<?xml version="1.0" encoding="UTF-8"?>
<svg id="Layer_1" data-name="Layer 1" xmlns="http://www.w3.org/2000/svg" viewBox="0 0 113.56 82.96">
  <defs>
    <style>
      .cls-1 {
        fill: #ed2d85;
      }

      .cls-2 {
        fill: #89d1cc;
      }

      .cls-3 {
        fill: #3c342e;
      }
    </style>
  </defs>
  <path class="cls-2" d="M55.02,42.9c-.02-.11-.05-.22-.09-.33-.1-.27-.24-.52-.4-.76-.18-.25-.37-.5-.59-.72-.22-.23-.46-.43-.71-.61-.26-.19-.53-.37-.84-.47-.11-.03-.23-.05-.34-.06-.06,0-.11,0-.16.01-.06,0-.11.01-.16.03-.08.03-.17.06-.24.11-.07.05-.15.1-.21.17-.13.14-.21.28-.28.46-.05.14-.07.29-.09.43-.03.26.02.53.09.78.08.26.19.52.34.76.29.47.7.87,1.17,1.15.05.03.11.04.16.07.24.22.52.4.83.49.1.03.2.04.3.05.06,0,.11,0,.17,0,.1-.01.2-.02.29-.06.09-.04.18-.07.27-.13.01,0,.02-.02.03-.03.07-.02.13-.05.19-.11.06-.06.1-.14.12-.23,0-.01.02-.02.02-.03.04-.08.08-.17.1-.25.02-.09.03-.18.04-.27.02-.15,0-.3-.03-.45ZM52.7,42.27s-.03-.04-.04-.06c-.03-.06-.06-.11-.08-.17-.03-.07-.05-.15-.08-.22.13.07.26.13.38.22,0,0,.02.01.03.02.05.05.11.1.17.14-.03-.02-.05-.04-.08-.06.07.05.13.11.19.17.06.06.13.11.18.18-.02-.02-.04-.05-.06-.07.02.03.05.05.07.07,0,.01.02.02.02.03,0,0-.02-.01-.02-.02.02.02.04.04.06.06.09.13.17.26.24.4-.03-.04-.06-.08-.08-.12,0,0-.02,0-.02,0,.03.07.07.14.12.19,0,.02.01.05.02.07-.03,0-.06-.01-.09-.03-.12-.06-.23-.13-.33-.21-.22-.18-.43-.38-.61-.61Z"/>
  <path class="cls-2" d="M53.75,42.96c-.08-.15-.19-.27-.28-.4,0-.02.01-.03.01-.05,0-.03-.02-.09-.04-.11-.06-.05-.12-.1-.18-.14-.01-.01-.02-.03-.03-.04-.2-.23-.43-.43-.68-.61-.03-.02-.06-.04-.09-.06-.02-.01-.03-.02-.05-.03-.05-.03-.08-.04-.14-.07-.07-.03-.14-.05-.21-.08-.05-.02-.1-.02-.15,0-.05,0-.1.02-.14.05-.03.02-.05.04-.08.06-.04.03-.06.08-.08.12-.02.03-.03.06-.03.1-.01.05,0,.1,0,.15.01.03.03.06.04.09.03.06.08.1.14.14.03.02.06.04.08.06,0,0,0,0,0,0,.04.03.07.06.11.08.01,0,.02.01.03.02.04.02.08.05.12.08.03.02.05.04.08.06.01.03.02.07.04.1.04.1.09.19.15.28.07.11.16.21.25.31.09.09.2.18.3.25.05.03.1.06.15.1.02.02.05.03.08.05.05.03.11.05.17.07.03,0,.07,0,.1.01.03,0,.07,0,.1-.01.03-.01.06-.03.09-.04.04-.02.08-.06.11-.1.02-.02.04-.05.05-.08.02-.03.03-.06.03-.1,0-.03,0-.07,0-.1,0-.05-.02-.1-.05-.14Z"/>
  <path class="cls-2" d="M16.63,69.24c-.03-.08-.07-.17-.12-.25-.05-.08-.1-.15-.16-.21-.12-.12-.28-.22-.45-.26-.06-.02-.14-.02-.2-.03-.03,0-.05,0-.08,0-.07,0-.14.01-.21.03-.03,0-.05.01-.08.02-.06.02-.13.05-.19.08-.06.03-.12.08-.17.12-.07.06-.13.13-.18.21-.03.04-.06.09-.08.14-.03.06-.05.13-.07.2-.02,0-.04,0-.07.01-.06.02-.11.04-.16.07-.08.04-.14.13-.19.2-.03.04-.06.09-.08.14-.04.08-.07.16-.09.24-.02.08-.03.17-.04.26,0,.05,0,.11,0,.16,0,.14.03.29.08.42.03.08.06.16.11.24.04.08.1.15.16.21.03.04.07.08.11.11.07.05.14.11.21.15.17.08.33.13.52.14.09,0,.18-.01.27-.02.05,0,.1-.02.15-.04.14-.04.27-.11.39-.19.07-.05.14-.11.2-.17.06-.07.12-.14.17-.21.05-.08.08-.16.11-.25.02-.05.02-.1.03-.14.02-.05.06-.09.08-.15.02-.06.05-.12.06-.18.03-.09.04-.19.05-.28.01-.1.01-.21,0-.32-.02-.15-.04-.3-.1-.44Z"/>
  <path class="cls-2" d="M55.1,42.54c-.03-.15-.09-.29-.15-.43-.06-.14-.15-.25-.24-.37-.11-.14-.25-.25-.4-.36-.26-.2-.56-.33-.87-.44-.28-.1-.56-.17-.85-.22-.12-.02-.24-.05-.36-.01-.1.03-.19.09-.26.17-.06.06-.1.12-.12.2-.02.08-.02.16,0,.24.02.05.04.1.06.15.07.14.21.22.35.26.05.01.11.03.16.04.11.03.22.05.34.08.19.05.38.11.57.18.15.07.3.15.43.25.07.06.14.13.2.2.04.05.07.11.09.16.03.08.05.16.07.25,0,.08,0,.17,0,.25-.01.07-.03.13-.05.2-.02.04-.04.07-.06.1-.02.02-.04.04-.06.06-.02.01-.05.03-.07.04-.04.01-.08.03-.13.04-.03,0-.06,0-.1,0-.06-.01-.12-.03-.18-.05-.12-.06-.23-.12-.34-.2-.1-.08-.19-.16-.28-.25-.11-.11-.2-.22-.31-.32-.26-.25-.52-.49-.78-.73-.07-.07-.15-.13-.22-.2-.04-.03-.08-.07-.12-.1-.02-.02-.04-.04-.06-.05,0,0-.01,0-.02-.01-.05-.02-.05-.02-.03-.01,0,0-.03-.02-.04-.02-.1-.06-.24.04-.21.16,0,.02.01.04.02.06,0,.03.03.06.04.09.02.04.05.08.07.13.05.08.09.16.14.24.1.16.19.31.29.47.1.16.2.32.3.48.1.15.22.3.35.43.1.11.21.22.33.32.14.11.28.23.44.31.34.17.74.26,1.11.14.31-.1.56-.3.74-.58.08-.12.13-.26.17-.39.02-.07.03-.15.04-.22.01-.08.02-.15.02-.23,0-.15-.02-.3-.05-.45Z"/>
  <g>
    <path class="cls-2" d="M55.07,42.65c-.08-.12-.17-.23-.28-.32-.03-.03-.06-.05-.09-.08-.02-.11-.02-.22-.05-.33-.06-.24-.15-.47-.27-.69-.11-.18-.24-.36-.41-.49-.1-.08-.2-.16-.31-.22-.11-.06-.23-.11-.34-.15-.08-.03-.16-.05-.24-.06-.12-.02-.24-.04-.36-.03-.24.01-.48.07-.69.2-.1.06-.21.14-.29.23,0,0,0,0,0,0,0,0-.01-.01-.02-.02-.02-.02-.03-.03-.05-.05,0,.01.02.03.03.04,0,0,0,0,0,0-.02-.04-.06-.07-.1-.09-.02-.01-.03-.03-.05-.04-.08-.07-.18-.09-.28-.05-.04.02-.07.04-.1.08-.04.05-.05.09-.05.15,0,.03,0,.07-.01.1,0,.01-.01.02-.01.04,0,0,0,.01,0,.02,0,.04,0,.07,0,.11,0,0,0,.01,0,.02,0,.07.02.13.06.2.06.15.13.3.21.44,0,.04-.01.08-.01.12,0,.13.02.27.05.4.03.13.08.25.14.37.09.21.24.4.4.56.17.17.37.32.58.45.17.11.36.2.54.3.1.05.19.1.29.14.14.06.29.13.44.17.32.08.67.06.95-.12.15-.09.27-.21.36-.36.09-.15.14-.34.13-.51-.02-.18-.07-.36-.17-.52Z"/>
    <path class="cls-2" d="M51.17,41.22s0,0,0-.01c-.01-.03-.02-.06-.04-.08.01.03.03.06.04.09Z"/>
  </g>
  <g>
    <path class="cls-2" d="M16.72,69.84s0,.04,0,.06c0,.02.01.05.01.07l-.02-.13Z"/>
    <path class="cls-2" d="M16.72,69.91s-.01-.09-.03-.14c-.02-.07-.05-.13-.08-.19-.02-.05-.05-.1-.09-.15-.06-.08-.12-.16-.19-.22-.07-.06-.15-.13-.24-.18-.02-.01-.05-.03-.08-.04-.06-.03-.13-.06-.19-.08-.05-.02-.11-.03-.17-.04-.1-.02-.2-.03-.3-.03-.07,0-.15.02-.22.03-.03,0-.06,0-.09.02-.03,0-.05.02-.08.03-.07.03-.13.05-.19.08-.09.05-.17.11-.24.17-.04.04-.08.08-.12.12-.06.08-.13.16-.18.24-.05.09-.09.18-.12.28-.03.1-.04.2-.06.3,0,.06,0,.11,0,.17,0,.1.02.21.05.31.02.07.05.14.08.2.01.03.02.05.04.07.04.06.09.12.13.17.02.02.03.04.05.06.07.07.15.13.23.19.04.03.09.06.14.08.09.04.18.08.28.11.07.02.15.02.22.03.03,0,.06,0,.08,0,.1,0,.2-.01.3-.03.1-.02.19-.06.28-.1.09-.04.17-.1.25-.17.04-.03.08-.07.11-.11.06-.08.12-.15.17-.24,0,0,0-.01,0-.02.03-.03.06-.07.08-.1,0-.01.01-.02.02-.04.04-.08.08-.17.1-.26.02-.09.04-.19.04-.28,0-.08,0-.17-.02-.25Z"/>
  </g>
  <path class="cls-2" d="M55.15,42.5c-.08-.18-.16-.36-.26-.53-.07-.12-.15-.24-.23-.36-.17-.26-.35-.52-.57-.75-.09-.1-.18-.19-.29-.27-.14-.11-.28-.22-.44-.29-.15-.07-.3-.14-.46-.17-.16-.03-.31-.05-.47-.03-.09,0-.18.03-.28.05-.04,0-.08,0-.11,0-.2.02-.39.06-.56.18-.06.04-.12.08-.17.13-.05.05-.09.11-.14.17-.02.03-.03.05-.05.08-.02.04-.03.08-.05.12-.02.03-.04.05-.06.08-.05.09-.09.18-.12.27,0,.02-.01.05-.02.07-.01.06-.03.12-.02.17,0,.02.01.15.02.17,0,.01,0,.02.01.03.03.09.07.17.12.25.05.08.12.14.2.19,0,0,0,.02.01.02.12.25.27.49.44.71.2.26.4.51.64.73.24.22.5.42.77.6.02.01.05.02.07.03.09.07.18.15.27.21.13.09.26.17.4.24.14.08.29.09.44.02.12-.05.23-.16.27-.3.13-.06.25-.13.35-.22.02-.02.04-.04.06-.06.05-.06.1-.12.14-.18.06-.09.1-.19.13-.3.02-.06.03-.11.04-.17.02-.11.03-.22.03-.33-.01-.19-.05-.38-.12-.56ZM53.35,42.89c-.28-.22-.52-.47-.74-.74-.16-.21-.3-.43-.41-.67,0,0,0,0,0-.01.04-.02.07-.04.11-.06.03-.01.07-.02.1-.03.05.03.1.06.15.09.17.14.33.3.47.47.15.2.28.42.38.66.06.14.1.29.14.44-.06-.04-.12-.09-.18-.13Z"/>
  <g>
    <polygon class="cls-2" points="15.18 70.23 15.18 70.23 15.18 70.23 15.18 70.23"/>
    <path class="cls-2" d="M16.42,70.19s-.02-.07-.03-.11c-.02-.06-.05-.12-.07-.18-.03-.06-.06-.12-.1-.17-.05-.07-.11-.14-.17-.2-.07-.06-.14-.12-.21-.17-.08-.05-.16-.08-.25-.12-.1-.04-.19-.05-.29-.06-.08-.01-.17,0-.25.01-.04,0-.09.01-.13.03-.06.02-.12.05-.17.08-.05.03-.1.07-.15.11-.02.01-.04.03-.05.05,0,0-.02.02-.02.03-.03.04-.06.07-.08.11-.01.02-.02.04-.03.06-.03.07-.07.15-.08.23-.01.06-.02.12-.02.18,0,.02,0,.05,0,.07,0,.06.01.12.02.18,0,.02,0,.05.01.07.02.08.05.15.09.23.01.02.02.04.04.06.03.04.05.07.08.11,0,0,.02.02.02.02.04.03.09.08.14.1.05.03.1.05.16.07.01,0,.02,0,.04,0,.05,0,.09.01.14.02.06,0,.12,0,.18-.02.05-.01.09-.03.13-.07.04-.03.07-.06.1-.11.01-.03.03-.06.04-.09.02-.05.02-.1,0-.15,0-.03,0-.07-.03-.1-.02-.05-.04-.09-.08-.12-.03-.02-.05-.04-.08-.06-.03-.02-.06-.02-.09-.03,0,0-.02-.01-.03-.01,0,0,0,0,0,0h.03s-.02,0-.03,0c0,0,0,0-.01-.01,0-.01-.02-.03-.02-.04,0-.02-.01-.04-.01-.05,0-.02,0-.04,0-.06,0-.01,0-.02,0-.04,0,0,0,0,0-.01.01,0,.02-.01.03-.02.03,0,.05-.02.08-.02.03,0,.06,0,.09,0,.04,0,.09.02.13.04.04.02.09.05.13.08.03.03.07.06.09.09.05.07.08.14.12.21.05.12.08.24.1.37,0,0,0,.02,0,.03,0,.01,0,.03,0,.04,0,.04.01.07.02.11.01.05.03.11.04.16,0-.02,0-.04,0-.05,0,.04.01.07.03.1,0,0,0,0,0,0,0-.01-.01-.03-.02-.04,0,.02.02.04.02.06,0,.02,0,.04,0,.06,0,.04.01.08.04.1.02.02.05.04.08.04.03,0,.07,0,.09-.02,0,0,.02-.02.03-.02.02-.02.03-.04.04-.06,0-.02.02-.05.03-.07,0-.02.02-.03.03-.05,0,0-.01.02-.02.02h0s.02-.04.03-.05c0-.01,0-.02.01-.03,0-.01,0-.02.01-.03,0-.02.01-.04.02-.06,0,.02-.02.04-.02.06.02-.05.04-.1.06-.16.01-.04.01-.08.02-.12,0-.02,0-.04,0-.06,0-.08,0-.15,0-.23,0-.1-.02-.2-.04-.3Z"/>
    <path class="cls-2" d="M15,69.19s.03,0,.05,0c.02,0,.04,0,.06-.01-.04,0-.07,0-.11.01Z"/>
  </g>
  <g>
    <path class="cls-1" d="M78.28,13.93s0,0,.01,0c.04,0,.08-.02-.01,0Z"/>
    <path class="cls-1" d="M84.9,10.78c-.3-.55-.79-.98-1.3-1.33-.22-.16-.46-.3-.69-.44-.25-.15-.5-.3-.76-.43-.58-.29-1.21-.48-1.86-.4-.61.08-1.2.39-1.51.94-.34.58-.3,1.29-.11,1.91.05.16.11.32.18.48.06.15.13.29.19.44.03.07.05.14.08.21,0,.1,0,.21-.02.31-.07.44-.18.88-.33,1.3-.03.01-.05.03-.07.05-.03.02-.06.03-.1.05.15-.08.03-.01-.02,0-.07.02-.14.04-.21.06-.04,0-.08,0-.11.01.01,0,.02,0,.03,0-.01,0-.03,0-.04,0-.04,0-.08,0-.12,0,0,0-.01,0-.02,0-.07-.02-.15-.03-.22-.06-.19-.07-.41.06-.49.24-.08.18-.02.42.17.52.21.11.43.17.66.19.04,0,.2.02.03,0,.04,0,.07,0,.11,0-.01.13,0,.26.07.38.12.21.32.3.56.32.61.05,1.22,0,1.82-.08.55-.09,1.1-.23,1.62-.44.56-.22,1.1-.49,1.59-.85.52-.38.98-.85,1.16-1.49.18-.63.03-1.31-.28-1.88Z"/>
    <path class="cls-1" d="M78.86,11.53s0-.02,0-.02c-.02-.04-.04-.08-.05-.12.02.05.04.1.06.15Z"/>
  </g>
  <g>
    <path class="cls-1" d="M85.58,23.56c-.02-.07-.06-.14-.12-.19-.04-.03-.08-.06-.12-.09-.09-.05-.19-.08-.3-.08-.12,0-.23.02-.35.03-.06,0-.13.03-.19.05-.03.01-.06.02-.09.03-.08.03-.15.06-.23.1-.06.03-.11.06-.17.1-.09.07-.17.15-.25.23-.06.03-.12.05-.18.09-.11.07-.22.14-.32.23-.18.14-.33.32-.45.51-.08.13-.14.27-.19.4,0,.05-.01.09-.02.14,0,.07.01.14.05.2.01.04.04.08.07.12.04.06.09.1.15.14.09.05.19.09.29.12.03,0,.06.02.08.03.04.01.09.02.13.02.11.01.21.03.32.03.13,0,.25-.02.38-.05.08-.02.15-.04.22-.07.12-.05.23-.09.34-.16.11-.06.21-.14.31-.22.06-.05.12-.1.17-.16.03-.03.05-.06.08-.09.05-.07.11-.14.16-.21.04-.06.08-.13.11-.2.05-.13.11-.25.13-.38.03-.14.05-.28.04-.42,0-.08-.01-.16-.05-.23Z"/>
    <path class="cls-1" d="M83.46,25.75s-.06-.01-.09-.02c-.02,0-.04,0-.05,0,.05,0,.1.01.15.02Z"/>
  </g>
  <g>
    <path class="cls-1" d="M21,50.9s.04,0,.05,0c.03,0,.06,0,.09,0-.05,0-.1-.01-.14-.02Z"/>
    <path class="cls-1" d="M22.44,52.65s-.01-.06-.02-.09c0-.03-.02-.06-.03-.09-.03-.09-.07-.18-.11-.26-.03-.06-.06-.11-.1-.16-.07-.1-.15-.21-.24-.29,0,0-.02-.01-.03-.02.03-.02.05-.05.06-.08.02-.05.01-.09,0-.14,0-.03,0-.05-.01-.08,0-.03-.03-.06-.04-.08,0,0,0,0,0,0,0-.02-.02-.03-.02-.04-.03-.07-.08-.12-.15-.16-.04-.02-.08-.05-.12-.07-.07-.04-.15-.07-.23-.1-.12-.03-.23-.05-.35-.06-.05,0-.1-.01-.15-.02-.03,0-.07,0-.1,0-.12,0-.23.02-.35.04.05,0,.11-.01.16-.02-.03,0-.04,0-.09.01-.06,0-.06,0-.09.01,0,0-.02,0-.02,0-.02,0-.04,0-.06.01-.04,0-.07.02-.11.03-.13.04-.25.09-.36.17-.08.05-.15.11-.22.17-.03.02-.06.05-.08.07-.09.09-.17.2-.24.3-.02.03-.04.06-.05.1-.04.09-.08.17-.11.26-.03.07-.05.14-.06.21-.02.1-.03.19-.04.29,0,.04,0,.07,0,.11,0,.07,0,.14,0,.21.02.13.03.27.07.39.02.06.05.12.07.19.03.06.05.12.08.18.02.03.03.06.05.09.05.08.11.16.18.23.08.1.19.17.29.24.05.04.1.07.16.1.11.05.23.11.35.14.04.01.08.01.12.02,0,0,0,0,0,0,0,0,.02,0,.03.01,0,0,0,0,0,0,.06,0,.13.02.19.03,0,0,.01,0,.02,0,.06,0,.13,0,.19,0,.1,0,.19-.02.29-.04.03,0,.06-.01.09-.02.12-.03.24-.08.35-.14.06-.03.11-.06.16-.09.1-.07.2-.15.28-.24.06-.07.12-.15.17-.22.02-.03.03-.05.05-.08,0-.01.01-.03.02-.04.03-.07.07-.15.09-.22.01-.03.02-.06.03-.09,0-.01,0-.03,0-.04.01-.08.03-.16.03-.24,0-.03,0-.06,0-.09,0-.1-.02-.19-.03-.29Z"/>
  </g>
  <path class="cls-1" d="M47.74,39.3c-.27-.4-.64-.73-1.08-.93-.22-.1-.45-.19-.69-.24-.26-.05-.52-.09-.78-.08-.53,0-1.06.11-1.57.26-.81.24-1.62.56-2.26,1.14-.33.29-.57.67-.71,1.08-.03.08-.04.16-.06.24-.02.14-.04.28-.04.42,0,.15.03.31.06.46.03.15.09.28.15.42.19.45.55.81.95,1.08.22.15.46.25.71.34.21.08.43.13.64.17.49.08,1,.13,1.49.1.55-.02,1.1-.13,1.58-.4.05-.03.09-.07.13-.11.09-.04.18-.06.27-.1.2-.1.39-.24.56-.39.17-.15.31-.31.44-.49.1-.14.19-.28.27-.44.19-.4.32-.83.31-1.28,0-.44-.13-.89-.37-1.25Z"/>
  <path class="cls-1" d="M85.42,24.28c-.04-.06-.1-.1-.17-.1-.06,0-.11,0-.16.04-.04.02-.07.06-.11.09-.04.04-.08.07-.12.11-.06.06-.1.14-.15.21-.02.03-.04.06-.06.09-.07.09-.15.18-.23.27-.07.08-.14.15-.22.21-.08.06-.16.11-.25.15-.07.02-.13.04-.2.06-.05,0-.1,0-.16,0-.03,0-.07-.02-.1-.03-.03-.02-.07-.04-.1-.06-.02-.02-.04-.04-.06-.06-.02-.03-.04-.06-.06-.1,0-.02-.02-.05-.03-.07,0-.02-.01-.03-.02-.05-.02-.04-.03-.08-.05-.12-.03-.06-.07-.1-.12-.14-.03-.03-.07-.05-.11-.06-.06-.03-.12-.04-.19-.04-.04,0-.09.01-.13.02-.04.02-.08.03-.12.05-.06.03-.1.07-.14.12-.04.05-.07.1-.09.16-.01.09-.03.19-.02.28,0,.07.01.14.04.2.03.06.05.13.08.19.05.08.11.16.17.23.04.04.08.08.12.12.07.06.15.12.23.16.08.05.18.09.27.12.05.02.1.03.16.04.1.02.19.03.29.03.1,0,.21-.02.31-.04.06-.01.12-.03.18-.05.15-.06.3-.13.43-.22.13-.09.26-.2.36-.32.07-.07.13-.15.19-.23.04-.05.08-.11.11-.17.09-.16.16-.33.22-.5.01-.03.03-.07.04-.1.02-.06.02-.13.02-.19,0-.03,0-.07,0-.1,0-.07-.02-.13-.06-.19Z"/>
  <g>
    <path class="cls-3" d="M77.39,14.06s0,0,0,0c0,0,0,0,0,0,0,0,0,0,0-.01,0,0,0,0,0,0Z"/>
    <path class="cls-3" d="M80.49,15.14s0,0,.01,0c.02,0,.03,0,.05,0,.02,0,.02,0-.06,0Z"/>
    <path class="cls-3" d="M85.28,10.61c-.37-.88-1.1-1.55-1.93-2.01-.44-.25-.92-.45-1.41-.59-.52-.15-1.08-.25-1.62-.21-.5.04-.98.18-1.4.46-.38.26-.72.61-.91,1.03-.22.49-.24,1.01-.07,1.52.17.5.46.94.68,1.42.04.08.08.19.12.31.04.11.07.26.08.35.01.11.02.23,0,.34,0-.04-.02.07-.01.06,0,.02-.01.04-.02.07,0,.03-.02.07-.03.1.02-.06,0,0-.01.02-.02.04-.05.08-.07.12,0,0,.03-.04,0,0-.02.02-.03.04-.05.05-.07.07-.08.08-.17.14-.03.02-.07.04-.1.06-.05.02-.03.02-.09.03-.09.03-.14.04-.22.04-.07,0-.15-.02-.22-.06,0,0,.02-.02.02-.03.1-.19.05-.42-.14-.53,0,0,0,0,0,0-.08-.07-.18-.12-.27-.14-.19-.04-.37,0-.54.1-.27.18-.45.48-.45.81,0,.59.47,1.04.91,1.37.73.55,1.66.76,2.56.75.94-.01,1.86-.25,2.71-.63.94-.41,1.82-1.05,2.37-1.93.56-.91.71-2.02.29-3.01ZM84.52,11.96s0,.04,0,.07c0,0,0,0,0,.01-.01.02-.02.13-.03.15-.01.05-.02.11-.04.16-.03.12-.07.23-.12.35-.01.02-.02.04-.03.07-.02.05-.05.1-.08.15-.06.1-.12.2-.18.3-.03.05-.06.09-.1.14h0s-.03.04-.04.06c-.07.09-.15.18-.24.26-.08.08-.16.15-.24.23-.04.04-.09.07-.13.11,0,0,0,0,0,0-.03.02-.05.04-.08.06-.18.13-.37.25-.57.36-.1.05-.2.11-.3.15-.05.02-.1.05-.15.07-.04.02-.1.05-.15.07,0,0,0,0,0,0-.03.01-.06.02-.09.04-.05.02-.09.04-.14.05-.1.04-.2.07-.29.1-.2.06-.39.12-.59.16-.1.02-.2.04-.3.06-.03,0-.05,0-.08.01,0,0-.02,0-.03,0,0,0-.01,0-.02,0,0,0-.02,0-.02,0,0,0,0,0,.01,0-.03,0-.06,0-.08,0-.2.02-.4.03-.59.03-.1,0-.2,0-.29-.01-.05,0-.1,0-.15-.01-.02,0-.08-.01-.12-.02-.17-.03-.35-.06-.52-.11-.09-.03-.18-.06-.27-.09-.04-.02-.18-.09-.04-.01-.05-.03-.1-.05-.15-.07-.08-.04-.17-.09-.25-.14-.04-.02-.08-.05-.12-.08-.02-.01-.03-.02-.05-.03-.01,0-.11-.09-.04-.03.07.05,0,0-.02-.02-.02-.02-.04-.03-.06-.05-.04-.03-.07-.06-.11-.1-.03-.03-.07-.07-.1-.1-.02-.02-.04-.05-.06-.07h0s0,0,0,0c-.02-.04-.05-.11-.08-.14.05.05.03.07,0,.01,0,0,0-.02,0-.04,0,.02,0,.03,0,0,0,0,0,0,0,0h0s0,0,0,0c0,0,0,0,0,0h0s0,0,0,0c0,0,0,0,0,0,0,0,0,0,0,0,0,0,0,0,0,0,.01,0,.03-.01.04-.02.04,0,.07,0,.11,0,.18.25.5.34.82.29.36-.05.71-.29.87-.62.23-.47.19-1.01.03-1.5-.08-.25-.18-.48-.29-.72-.05-.1-.09-.21-.14-.31,0-.02,0-.02-.01-.02,0,0,0,0,0-.02,0-.02-.02-.04-.03-.07-.03-.07-.05-.13-.07-.2-.04-.11-.07-.22-.09-.33,0-.02,0-.05-.01-.07,0,0,0-.04,0-.06,0-.06-.01-.12-.01-.18,0-.05,0-.09,0-.14,0-.02,0-.05,0-.06,0,0,0,0,0,0,.02-.1.04-.19.08-.28,0,0,0-.02,0-.02,0-.01.01-.03.02-.04.02-.04.04-.08.07-.12.02-.04.05-.08.08-.12.01-.02.03-.04.04-.05,0,0,.01-.02.02-.02.06-.07.13-.14.2-.21.03-.03.06-.06.1-.09,0,0,0,0,0,0,.02-.02.05-.03.07-.05.08-.06.16-.11.25-.15.04-.02.09-.04.13-.06,0,0,0,0,0,0,0,0,0,0,0,0,.03,0,.05-.02.08-.03.09-.03.19-.06.29-.08.06-.01.11-.02.17-.03,0,0,0,0,0,0,.04,0,.08,0,.12-.01.11,0,.23,0,.34,0,.06,0,.12,0,.18.01.04,0,.07,0,.11.01-.1,0,.02,0,.03,0,.25.04.5.11.74.19.06.02.11.04.17.06.02,0,.05.02.07.03,0,0,.05.02.06.03.02,0,.04.02.04.02.03.01.05.02.08.04.06.03.12.05.17.08.19.09.38.2.56.31.09.05.17.11.26.17.04.03.08.06.12.09.02.01.03.03.05.04-.11-.08-.01,0,.01.01.16.13.31.27.46.42.07.07.14.15.2.22.01.02.02.03.04.05,0,0,0,0,0,0,.03.05.07.09.1.14.05.08.1.16.14.24.02.04.05.09.07.13,0,.02.02.04.03.06.03.09.07.18.09.27.01.05.02.1.03.14,0,.02,0,.05.01.07,0,.01,0,.04,0,.05,0,.09.02.19.02.28,0,.06,0,.11,0,.17Z"/>
  </g>
  <g>
    <path class="cls-3" d="M54.33,40.91s0,0-.02-.01c0,0,0,0,0,0,0,0,0,0,0,0,0,0,.02.02.02.02h0Z"/>
    <path class="cls-3" d="M55.81,41.57c-.02-.08-.06-.16-.09-.24-.02-.05-.05-.11-.08-.16.01.03.02.05.03.08-.04-.09-.08-.17-.17-.22-.08-.05-.19-.07-.28-.04-.04.01-.08.03-.11.06-.05-.1-.11-.2-.18-.28-.08-.11-.17-.21-.27-.31-.4-.38-.94-.6-1.5-.59-.16,0-.32.03-.47.06-.15.04-.3.1-.44.17-.26.12-.5.3-.71.51-.44.44-.72,1.03-.75,1.65-.03.61.22,1.21.62,1.66.19.21.42.39.66.54.24.14.52.26.8.32.59.13,1.21.05,1.73-.26.47-.28.85-.72,1.07-1.22.06-.14.12-.28.15-.44.04-.15.06-.31.07-.46.02-.27,0-.55-.07-.81ZM54.29,43.6c-.11.08-.22.14-.33.2-.12.04-.24.08-.36.1-.13.01-.26.01-.39,0-.15-.03-.3-.07-.44-.12-.15-.07-.29-.15-.42-.25-.13-.11-.26-.23-.36-.37-.08-.11-.15-.23-.21-.35-.05-.12-.08-.24-.1-.37-.01-.11-.01-.23,0-.35.02-.13.06-.26.11-.39.06-.14.14-.27.23-.39.1-.13.22-.24.35-.35.13-.09.26-.17.4-.23.16-.06.32-.11.48-.14.12-.01.24-.01.37,0,.12.02.25.05.36.1.08.04.16.07.23.12.04.03.08.05.12.08,0,0,0,0-.02-.01,0,0,.01,0,.02.01,0,0,0,0,0,0,0,0,0,0,0,0,0,0,0,0,.01,0,0,0,0,0,0,0,0,0,0,0,0,0,.02.02.04.03.06.05.08.07.15.14.22.22.01.02.03.03.04.05.01.01.04.05,0-.01,0,.01.02.02.02.03.02.02.11.14.05.06.02.02.04.05.05.07.06.08.11.17.16.26.02.04.04.08.06.12,0,0,.02.04,0,0,0,.01,0,.02.01.04.01.03.02.06.03.08,0,0,0,.01,0,.02,0,.12.01.24,0,.37-.03.19-.09.38-.16.56-.07.16-.16.31-.26.45-.1.12-.2.23-.32.32Z"/>
  </g>
  <g>
    <path class="cls-3" d="M16.67,69.56s-.05-.03-.08-.05c0-.01,0-.02,0-.03-.02-.24-.07-.48-.17-.71-.05-.15-.1-.29-.18-.43h0s-.04-.07-.07-.1c0,0-.01-.01-.02-.02-.01-.01-.02-.03-.04-.04-.02-.03-.05-.05-.07-.08-.05-.05-.1-.1-.16-.14-.08-.06-.16-.13-.25-.18-.09-.05-.19-.09-.29-.13-.18-.07-.37-.1-.56-.11-.08,0-.16,0-.24.01-.11.01-.23.03-.34.06-.37.11-.71.33-.98.61-.28.29-.48.64-.6,1.02-.06.19-.09.39-.1.58,0,.08,0,.16,0,.24.01.12.03.23.06.35.03.11.08.22.13.32.04.07.08.14.13.21.06.09.13.18.21.26.08.08.16.14.25.21.14.1.31.18.47.24.17.06.35.09.53.11.14.01.29.01.43,0,.18-.02.36-.05.54-.11.34-.11.66-.29.93-.54.13-.12.24-.26.33-.41.04-.06.07-.12.1-.19.04-.1.08-.19.11-.3.02-.11.04-.21.05-.32.01-.11-.06-.24-.13-.31ZM15.18,70.68c-.14.05-.28.09-.43.12-.13.01-.27.01-.4,0-.1-.02-.21-.05-.31-.08-.07-.03-.14-.07-.21-.12-.06-.05-.11-.1-.16-.16-.04-.06-.08-.13-.11-.19-.03-.08-.05-.16-.07-.25,0-.1,0-.21,0-.31.02-.12.06-.25.1-.36.06-.13.13-.26.22-.38.08-.1.18-.2.28-.28.09-.06.19-.12.29-.17.08-.03.17-.06.26-.07.08,0,.17,0,.25,0,.08.01.16.04.24.07.08.04.16.08.23.13.03.03.06.05.09.08.02.02.05.05.07.07,0,.01.02.02.03.03.03.04.07.07.11.1-.03-.02-.06-.04-.08-.07.04.04.08.08.11.13.06.07.1.15.14.24.06.15.1.3.13.46,0,0,0,0,0,.01-.03.06-.05.12-.05.19,0-.04,0-.07.01-.11-.02.11-.05.21-.09.31-.04.08-.08.15-.13.22-.06.08-.13.14-.21.21-.1.07-.21.14-.33.19Z"/>
    <path class="cls-3" d="M16.42,68.76s0,0,0,0c.01.03.03.05.04.08-.01-.03-.02-.06-.04-.09Z"/>
  </g>
  <g>
    <path class="cls-3" d="M22.01,54.72s0,0,0,0h-.01s0,0,.01,0Z"/>
    <path class="cls-3" d="M22.76,50.87c-.13-.21-.3-.41-.49-.56-.11-.09-.23-.18-.35-.25-.13-.07-.27-.13-.41-.18-.24-.09-.5-.14-.76-.15-.11,0-.22,0-.32.01-.15.02-.29.04-.44.09-.54.17-.98.54-1.29,1.01-.14.22-.25.46-.33.71-.08.25-.12.52-.12.78,0,.15.02.3.04.45.02.11.04.22.08.32.05.14.11.29.18.42.07.13.16.25.26.37.16.21.37.38.58.53.22.15.46.26.71.35.25.09.52.13.79.14.27.01.54-.01.8-.08.12-.03.24-.08.35-.13.05-.02.09-.03.13-.07.05-.04.1-.08.13-.14.06-.11.09-.27.05-.39-.04-.12-.11-.24-.23-.3-.03-.02-.07-.03-.11-.04,0,0,.01,0,.02-.01.22-.13.43-.31.59-.51.19-.23.32-.5.39-.79.13-.54.04-1.11-.26-1.58ZM21.86,53.06c-.08.1-.16.19-.26.27-.01.01-.02.02-.04.03-.03.02-.06.04-.09.06-.06.04-.11.07-.17.1-.03.02-.06.03-.1.04.07-.03.02,0,0,0-.01,0-.03.01-.04.02-.07.02-.13.04-.2.06-.03,0-.06,0-.09.02.06-.01,0,0-.01,0-.02,0-.04,0-.05,0-.07,0-.14,0-.22,0-.07,0-.12.05-.15.11-.04-.01-.09-.02-.13-.04-.14-.07-.28-.14-.4-.24-.11-.09-.2-.18-.29-.29-.07-.1-.13-.2-.18-.31-.04-.11-.07-.23-.09-.34-.01-.15-.02-.3,0-.45.03-.16.07-.32.13-.47.06-.13.13-.26.22-.37.08-.09.16-.18.25-.25.09-.06.18-.12.28-.16.1-.04.2-.06.31-.08.12-.01.24-.01.36,0,.14.02.27.06.4.11.15.07.29.15.42.24.1.08.19.17.27.27.06.09.12.18.16.27.04.09.06.19.08.29,0,.1,0,.2,0,.3-.02.12-.05.24-.1.35-.07.16-.16.32-.26.46Z"/>
    <path class="cls-3" d="M22.11,54.67s-.04.01-.07.02c-.01,0-.03.02-.04.02.04-.01.07-.03.11-.04Z"/>
  </g>
  <g>
    <path class="cls-3" d="M40.14,41.35s0,.01,0,.02c0,0,0,.01,0,.02,0,0,0,0,0,0,0,0,0,0,0,.01-.02-.06-.02-.07-.02-.05Z"/>
    <path class="cls-3" d="M46.64,38.3s-.02,0-.03-.01c0,0,0,0-.01,0,.06.03.06.03.04.02Z"/>
    <path class="cls-3" d="M48.39,38.65c-.36-.74-1.07-1.22-1.84-1.45-.76-.23-1.6-.26-2.39-.19-.47.04-.93.12-1.39.21-.49.1-.97.23-1.42.42-.5.21-.97.47-1.37.85-.38.36-.67.79-.87,1.28-.19.47-.23.97-.15,1.47.08.47.31.89.6,1.26.54.69,1.4,1.16,2.25,1.31.5.09,1,.08,1.5.03.03.05.08.09.15.08.49-.07.97-.13,1.45-.25.47-.12.94-.28,1.38-.48.84-.38,1.57-1.02,1.99-1.85.42-.84.52-1.82.1-2.68ZM47.78,40.21s0,.03,0,.05c-.02.1-.04.2-.06.29-.02.09-.05.18-.08.26-.02.04-.03.09-.05.13-.01.02-.03.07-.04.09-.09.18-.19.35-.3.51-.01.02-.02.03-.04.05,0,0-.03.04-.04.05-.02.02-.04.05-.06.07-.07.08-.14.15-.21.23-.07.07-.14.13-.21.19-.1.08-.12.1-.24.18-.06.04-.13.08-.19.12-.11-.17-.31-.27-.52-.21-.25.06-.51.12-.76.19-.25.07-.5.15-.75.21-.25.06-.51.11-.76.15,0,0-.07,0-.08.01-.01,0-.02,0-.02,0-.06,0-.12.01-.18.02-.13.01-.26.02-.38.02-.13,0-.26,0-.38-.01-.06,0-.12,0-.18-.02-.02,0-.04,0-.06,0-.01,0-.03,0-.04,0-.19-.03-.38-.08-.56-.15-.04-.01-.08-.03-.12-.05-.01,0-.02,0-.03-.02-.09-.04-.18-.09-.27-.14-.08-.05-.16-.09-.23-.15-.03-.02-.07-.05-.1-.07-.02-.01-.04-.03-.05-.04-.14-.12-.27-.25-.39-.4,0,0-.01-.02-.02-.03-.03-.04-.05-.07-.07-.11-.05-.08-.09-.16-.13-.24,0,.01,0,.01,0,.03,0-.01,0-.03-.02-.04,0,0,0,0,0,0,0,0,0,0,0,0,0,0,0,0,0-.01,0,0,0,0,0,0,0,0,0-.01,0-.02-.01-.04-.03-.08-.04-.12-.03-.08-.04-.17-.06-.26,0,0,0-.02,0-.03,0-.05,0-.1,0-.15,0-.04,0-.09,0-.13,0-.02,0-.05,0-.07.02-.1.04-.19.06-.28.01-.04.03-.08.04-.12,0-.02.01-.04.02-.06.08-.18.19-.35.31-.51,0-.01.02-.02.03-.04.04-.04.07-.08.11-.12.07-.08.15-.16.24-.23.03-.03.07-.06.1-.08.01-.01.03-.02.04-.03.1-.07.19-.13.29-.19.09-.06.19-.11.29-.16.04-.02.09-.04.13-.06.03-.02.07-.03.1-.05,0,0,0,0,0,0,0,0,0,0,0,0,.22-.09.44-.16.67-.23.43-.12.87-.22,1.31-.29.07-.01.14-.02.22-.03,0,0,.01,0,.02,0,0,0,0,0,.01,0,.02,0,.04,0,.06,0-.02,0-.02,0-.03,0,.05,0,.1-.01.15-.02.18-.02.37-.03.55-.04.18,0,.37,0,.55,0,.09,0,.17,0,.26.02.04,0,.08,0,.13.01.02,0,.03,0,.05,0h0c.17.03.35.06.51.11.08.02.16.05.23.07.03.01.07.02.1.04,0,0-.01,0-.02-.01.01,0,.02,0,.03.01,0,0,0,0,0,0,0,0,.02,0,.03.01,0,0,0,0,0,0,.15.07.29.15.43.25,0,0,0,0,.01,0,.03.02.06.05.09.07.07.06.13.12.19.18.02.03.05.05.07.08,0,0,0,0,0-.01,0,0,.01.01.02.02,0,0,0,0,0,0,0,0,0,0,0,0,0,0,0,.01.01.02.05.07.1.15.14.23.02.04.04.08.06.12,0,0,0,0,0,0,0,.02.01.04.01.04.03.09.06.19.08.29,0,.04.02.08.02.12,0,.02,0,.04,0,.05,0,.1,0,.2,0,.3,0,.04,0,.09,0,.13Z"/>
    <path class="cls-3" d="M44.06,38.08s-.02,0-.03,0c0,0-.02,0-.02,0,0,0,.02,0,.06,0,0,0,0,0,0,0Z"/>
    <path class="cls-3" d="M47.44,38.9s0,0,0,0c0,0,0,0,0,0,.04.06.03.04.01.01Z"/>
  </g>
</svg>