<?xml version="1.0" encoding="UTF-8"?>
<svg id="Layer_1" data-name="Layer 1" xmlns="http://www.w3.org/2000/svg" viewBox="0 0 35.97 34.1">
  <defs>
    <style>
      .cls-1 {
        fill: #ed2d85;
      }

      .cls-2 {
        fill: #3c342e;
      }
    </style>
  </defs>
  <path class="cls-1" d="M24.07,15.08c-.22-1.66-.75-3.32-1.82-4.63-.55-.67-1.31-1.2-2.16-1.43-.21-.06-.42-.09-.63-.11-.37-.22-.76-.39-1.17-.49-.95-.23-1.9-.09-2.78.3-.8.35-1.51.92-2.11,1.55-.61.64-1.15,1.37-1.61,2.13-.89,1.48-1.51,3.14-1.79,4.84-.08.5-.13,1.02-.16,1.53-.08.48-.12.96-.11,1.46.02,1.09.25,2.21.73,3.2.45,1.2,1.15,2.31,2.19,3.09,1.42,1.07,3.32,1.13,4.95.5,3.1-1.21,5.29-4.17,6.15-7.32.41-1.5.54-3.08.33-4.62Z"/>
  <path class="cls-2" d="M24.4,13.92c-.41-1.9-1.4-3.66-2.95-4.86-1.43-1.1-3.28-1.69-5.07-1.28-1.53.35-2.91,1.4-3.61,2.8-.15-.05-.32-.02-.44.1-.71.8-1.3,1.69-1.84,2.62-.54.93-.99,1.92-1.34,2.94-.66,1.9-.91,3.99-.45,5.97.39,1.69,1.29,3.33,2.58,4.5,1.34,1.22,3.14,1.91,4.96,1.7,2.07-.23,3.94-1.36,5.31-2.89,1.38-1.53,2.3-3.39,2.71-5.41.41-2.04.59-4.16.14-6.2ZM23.76,17.35c-.03.22-.06.47-.09.66-.04.24-.09.47-.14.71-.1.46-.23.9-.38,1.34-.08.22-.17.44-.26.66,0,.02-.02.04-.03.06-.03.07-.06.14-.09.22-.02.04-.03.08-.05.12,0,0,0,.01,0,.02,0,0,0,.02,0,.02-.02.04-.03.08-.05.12-.37.84-.83,1.67-1.36,2.42-.06.09-.13.18-.2.27-.01.02-.03.03-.03.04-.04.05-.09.11-.13.16-.15.18-.3.35-.46.52-.16.17-.32.33-.49.48-.08.07-.16.15-.25.22-.02.02-.26.24-.28.23,0,0,.1-.08.04-.03-.03.02-.05.04-.08.06-.04.03-.08.06-.12.09-.1.07-.2.14-.3.2-.2.13-.4.25-.61.36-.1.05-.2.1-.29.15-.05.02-.09.04-.14.06-.02.01-.05.02-.07.03-.09.04-.07.02,0,0-.1.03-.21.08-.31.12-.11.04-.22.08-.33.11-.22.07-.44.12-.66.16-.06.01-.11.02-.17.03-.02,0-.07.01-.1.01-.03,0-.06,0-.09,0-.06,0-.12.01-.17.01-.23.02-.45.02-.68,0-.11,0-.22-.01-.32-.03,0,0,0,0,0,0-.05,0-.09-.01-.14-.02-.38-.07-.72-.19-1.08-.31,0,0,0,0-.01,0-.04-.02-.08-.03-.11-.05-.09-.04-.18-.09-.26-.13-.17-.09-.33-.19-.49-.29-.08-.05-.15-.1-.22-.16-.02-.01-.04-.03-.06-.04-.03-.02-.05-.04-.08-.06-.15-.12-.29-.25-.43-.38-.14-.13-.27-.27-.4-.42-.06-.07-.12-.14-.18-.21-.03-.04-.06-.08-.1-.12,0,0,0,0,0,0,0,0,0,0,0,0-.24-.32-.46-.66-.65-1.01-.09-.17-.18-.35-.27-.53-.02-.04-.04-.08-.05-.12,0,0,0,0,0-.01-.04-.1-.08-.19-.11-.29-.14-.37-.25-.75-.33-1.14-.04-.19-.07-.38-.1-.56,0,0,0-.02,0-.03,0-.04,0-.09-.01-.13-.01-.11-.02-.22-.03-.33-.03-.48-.02-.96.03-1.43.01-.12.02-.23.04-.35,0-.03,0-.05,0-.08,0-.08,0,.05,0,.05,0,0,.03-.19.03-.21.04-.24.08-.48.13-.71.1-.48.23-.96.39-1.43.08-.23.16-.46.25-.69.04-.11.09-.22.13-.33.02-.05.04-.1.06-.15-.06.14.03-.06.04-.09.05-.11.1-.22.15-.33.03-.06.05-.12.08-.17.02-.04.04-.08.06-.13.04-.09.04-.1.02-.05-.01.04-.01.04,0,0,.11-.22.21-.45.32-.67.23-.45.47-.89.71-1.34.01-.03.03-.05.04-.08.05.12.19.21.32.21.2,0,.33-.16.34-.34.02-.35.17-.74.3-1.07.11-.28.34-.69.55-.95.47-.61,1.09-1.08,1.8-1.41.68-.31,1.44-.45,2.22-.4.77.05,1.58.32,2.27.71,1.48.84,2.58,2.23,3.13,3.85.31.92.47,1.86.5,2.83.02.5,0,1-.05,1.49Z"/>
</svg>