<?xml version="1.0" encoding="UTF-8"?>
<svg id="Layer_1" data-name="Layer 1" xmlns="http://www.w3.org/2000/svg" viewBox="0 0 27.34 32.66">
  <defs>
    <style>
      .cls-1 {
        fill: #89d1cc;
      }

      .cls-2 {
        fill: #3c342e;
      }
    </style>
  </defs>
  <path class="cls-1" d="M20.66,16.15c0-.08,0-.16-.01-.24,0-.06-.03-.12-.04-.18.08-.75-.13-1.52-.57-2.14-.53-.75-1.27-1.27-2.1-1.64-.07-.03-.15-.06-.22-.09-.39-.21-.8-.37-1.23-.48-.31-.08-.68.1-.76.43,0,.02,0,.05,0,.07-.48,0-.95.07-1.41.23-1.31.47-2.24,1.52-2.75,2.79-.5,1.23-.52,2.63-.13,3.89.08.26.19.5.3.75.24.97.71,1.88,1.48,2.56.27.24.57.45.89.62.15.13.3.27.45.4.24.19.54.25.8.05.01-.01.02-.03.04-.04.61.07,1.23,0,1.81-.23,1.36-.55,2.41-1.71,2.99-3.04.51-1.17.7-2.47.48-3.73Z"/>
  <g>
    <path class="cls-2" d="M13.87,22.28c.05.02.09.03,0,0h0Z"/>
    <path class="cls-2" d="M12.32,21.04s.1.11,0,0h0Z"/>
    <path class="cls-2" d="M13.07,21.81s0,0,0,0c.04.03.14.08,0,0Z"/>
    <path class="cls-2" d="M21.1,15.15c-.07-.32-.18-.62-.34-.91,0,0-.01,0-.02-.01-.26-.78-.73-1.48-1.36-2.02-.95-.82-2.18-1.23-3.44-1.16-1.32.07-2.6.61-3.61,1.46-1.03.87-1.74,2.1-2.1,3.39-.35,1.28-.37,2.65-.01,3.94.36,1.27,1.06,2.41,2.12,3.21.97.73,2.24,1.05,3.45.92,1.29-.13,2.47-.66,3.45-1.52.97-.85,1.58-2.09,1.86-3.34.03-.14.06-.29.08-.44,0-.04.01-.09.02-.13,0-.04.01-.09.02-.13,0,0,0,0,0,0,0,0,0,0,0,0,0-.03,0-.03,0-.02,0-.05.02-.12.02-.14,0-.05.01-.1.02-.15.03-.32.03-.63.03-.95,0-.66-.06-1.33-.2-1.98ZM20.4,17.52s0,.02,0,.02c0,.04-.01.09-.02.13-.01.07-.02.15-.04.22-.06.3-.13.6-.23.9-.04.13-.09.25-.13.37-.02.04-.03.08-.05.12-.03.08-.07.16-.11.23-.13.26-.27.52-.43.76-.04.06-.08.12-.13.18-.02.03-.04.06-.06.09,0,0,0,0,0,0,0,0,0,0,0,0,0,0,0,0,0,0,0,0-.01.01-.02.02-.09.09-.17.21-.26.3-.18.2-.38.39-.58.56-.04.03-.08.07-.12.1-.02.02-.05.03-.07.05-.11.08-.23.16-.35.23-.22.14-.46.25-.69.36-.02,0-.04.02-.06.02-.06.02-.12.05-.18.07-.13.05-.26.09-.39.13-.12.03-.24.06-.36.09-.06.01-.13.03-.19.04-.03,0-.06,0-.08.01-.26.03-.51.04-.77.03-.06,0-.13,0-.19-.01-.03,0-.08,0-.12-.01-.1-.02-.2-.03-.3-.06-.13-.03-.25-.06-.37-.1-.06-.02-.12-.04-.18-.07-.02,0-.05-.02-.07-.03.02,0,.03,0,.04.01-.02,0-.04-.01-.05-.02-.24-.11-.48-.25-.7-.41-.02-.02-.04-.04-.07-.05,0,0,0,0,.01,0-.05-.04-.1-.09-.15-.13-.1-.09-.2-.19-.29-.28-.09-.1-.18-.2-.27-.3-.02-.02-.03-.04-.05-.06,0,0,0,0,.01.01,0,0,0,0,0,0-.04-.06-.09-.12-.13-.18-.16-.23-.29-.48-.41-.73-.02-.05-.05-.1-.07-.15-.01-.03-.02-.06-.03-.08-.05-.14-.1-.27-.14-.41-.08-.27-.15-.54-.2-.81-.01-.06-.02-.13-.03-.19,0-.03,0-.06-.01-.09-.02-.14-.02-.29-.03-.43-.02-.31-.01-.62,0-.92,0-.08.01-.15.02-.22,0-.03,0-.06.01-.09,0,0,.02-.14,0-.06,0-.02,0-.05,0-.05,0-.03,0-.06.01-.09.02-.09.03-.18.05-.27.06-.29.14-.59.24-.87.02-.07.05-.14.08-.21.01-.03.03-.07.04-.1,0,0,0-.01.01-.02.06-.14.13-.28.2-.42.14-.27.3-.53.48-.78.02-.02.04-.05.05-.07.01-.01,0-.01.01-.02,0,0,0,0,.02-.02.04-.05.09-.1.13-.16.1-.12.21-.23.32-.34.1-.1.21-.2.32-.29.02-.02.04-.04.07-.06,0,0,.05-.04.06-.05.05-.04.11-.08.16-.12.25-.18.52-.33.79-.46.14-.06.16-.07.3-.13.15-.06.3-.11.46-.15,1.05-.3,2.18-.23,3.18.26.84.41,1.55,1.11,1.98,1.95-.05.05-.09.11-.08.2.03.32.06.63.12.95.01.07.03.15.04.22,0,.04.01.07.02.11,0-.05,0,.02,0,.03.02.16.04.33.05.49.02.3.03.6.02.89,0,.15-.02.29-.04.44Z"/>
    <path class="cls-2" d="M19.19,20.56s.01-.01.02-.02c0,0,0,0,0,0-.08.07-.05.05-.02.02Z"/>
  </g>
</svg>