<?xml version="1.0" encoding="UTF-8"?>
<svg id="Layer_1" data-name="Layer 1" xmlns="http://www.w3.org/2000/svg" viewBox="0 0 65.66 47.51">
  <defs>
    <style>
      .cls-1 {
        fill: #ed2d85;
      }

      .cls-2 {
        fill: #3c342e;
      }
    </style>
  </defs>
  <g>
    <path class="cls-1" d="M31.75,17.57s.04.03.06.05c-.06-.05-.12-.1-.18-.14-.03-.02-.06-.04-.09-.06-.08-.05-.16-.1-.24-.15-.16-.09-.34-.17-.51-.24-.38-.16-.78-.3-1.18-.4-.74-.19-1.52-.3-2.29-.31-1.55-.03-3.09.32-4.47,1.02-2.47,1.25-4.36,3.68-4.96,6.38-.74,3.29.36,6.63,1.58,9.66,1.14,2.83,2.56,5.54,4.21,8.1,1.65,2.55,3.55,4.95,5.67,7.13.26.27.53.53.79.79.2.19.51.21.73.04.2-.16.31-.49.14-.72-.1-.14-.19-.28-.29-.41.16.03.33-.05.42-.17.13-.18.12-.4-.03-.57-.63-.69-1.28-1.36-1.93-2.03-.05-.09-.11-.17-.16-.27-.04-.09-.13-.11-.21-.11-.34-.35-.67-.69-1.01-1.04-.19-.2-.46-.17-.65-.04-.12-.16-.24-.33-.36-.49-.43-.59-.85-1.19-1.25-1.79-1.62-2.45-3.01-5.04-4.18-7.73-.04-.08-.07-.16-.11-.24-.02-.04-.03-.08-.05-.12,0,0,0,0,0,0-.08-.18-.15-.36-.22-.54-.13-.33-.26-.66-.39-.99-.28-.75-.55-1.5-.78-2.26-.23-.78-.42-1.57-.55-2.38,0,0,0-.02,0-.04,0,0,0,0,0,0,0,0,0,0,0,0,0-.03-.01-.07,0-.07,0-.01,0-.02,0-.03-.01-.1-.02-.19-.03-.29-.02-.19-.04-.39-.05-.58-.02-.41-.02-.81,0-1.22.01-.18.01-.37.05-.55,0,0,0,0,0,0,0-.06.02-.12.03-.17.01-.09.03-.18.05-.26.06-.31.14-.62.24-.92.05-.15.1-.29.15-.44.03-.07.05-.14.08-.2.02-.04.04-.09.06-.13.13-.28.27-.56.43-.83.17-.28.35-.55.54-.82.02-.02.03-.04.05-.07,0,0,0,0,0,0,.05-.06.1-.12.15-.18.11-.13.22-.26.34-.38.21-.23.44-.44.67-.65.12-.1.24-.2.36-.3-.18.15.02-.02.07-.05.08-.05.15-.11.23-.16.26-.18.54-.34.82-.49.13-.07.27-.14.41-.2.05-.02.09-.04.14-.06.07-.03.05-.02.02,0,.07-.04.16-.06.23-.09.34-.13.68-.23,1.03-.31.16-.04.32-.07.48-.1.08-.01.17-.03.25-.04.04,0,.09-.01.13-.02.36-.04.72-.06,1.08-.05.17,0,.34,0,.51.02.09,0,.17.01.26.02.03,0,.07,0,.1.01.03,0,.07,0,.1.01-.11,0,.03,0,.06,0,.04,0,.08.01.13.02.08.01.15.03.23.04.19.04.37.08.55.12.35.09.69.21,1.03.33.08.03.16.06.24.09.03.01.06.03.1.04.02,0,.03.01.05.02-.14-.06-.11-.05.09.04.07.03.14.05.21.08.04.02.08.03.12.05.01,0,.04.02.06.03-.01,0-.02,0-.04-.02.32.17.76.09.94-.25.17-.32.09-.76-.25-.94Z"/>
    <path class="cls-1" d="M31.1,18.78s.03.01,0,0h0Z"/>
    <path class="cls-1" d="M19.27,27.52s0-.05-.01-.08c0,0,0,0,0,0,0,.02,0,.05,0,.07h0Z"/>
  </g>
  <g>
    <polygon class="cls-1" points="39.75 17.95 39.75 17.95 39.76 17.96 39.75 17.96 39.75 17.95"/>
    <path class="cls-1" d="M54.45,37.25s-.02-.09,0,.04c0,0,0-.01,0-.02,0,0,0-.02,0-.02Z"/>
    <path class="cls-1" d="M55.72,35.85c-.36-2.06-.97-4.06-1.79-5.98-.8-1.86-1.83-3.63-3.06-5.24-1.25-1.63-2.68-3.1-4.29-4.38-1.6-1.27-3.34-2.37-5.19-3.25-1.85-.87-3.78-1.55-5.78-1.98-2-.43-4.06-.65-6.1-.59-1.1.03-2.19.13-3.27.31-1.13.19-2.25.51-3.28,1.03-1.99,1-3.57,2.86-3.86,5.11-.03.25-.03.5,0,.75,0,0,0,.01,0,.02,0-.02,0-.03,0,0,0,.03,0,.06.01.09.01.1.03.2.04.3.02.13.05.25.08.37.06.33.48.55.79.45.36-.12.51-.44.45-.79.03.18,0-.03,0-.07,0-.06,0-.11,0-.17,0-.05,0-.09,0-.14,0,0,0,.02-.02.02,0,0,.03-.2.03-.23,0-.05.01-.1.02-.15,0-.02,0-.04,0-.06,0-.06.02-.11.03-.17,0,0,0,0,0-.01.01-.06.02-.13.03-.19.04-.23.1-.46.18-.69.02-.05.04-.1.06-.16.02-.05.11-.24.01-.04.05-.11.1-.22.15-.33.11-.22.24-.44.38-.64.03-.05.06-.09.1-.14.01-.02.03-.04.04-.06.08-.11-.03.03-.03.04,0-.02.09-.11.11-.13.05-.06.09-.11.14-.17.16-.18.33-.35.51-.52.08-.07.16-.14.24-.21.02-.02.05-.04.05-.04.05-.04.11-.08.16-.12.44-.31.92-.56,1.41-.78.02-.01.05-.02.07-.03,0,0-.01,0-.02,0,.05-.02.1-.04.15-.06.13-.05.26-.1.4-.14.25-.09.51-.16.77-.23.53-.14,1.06-.24,1.6-.32.01,0,.04,0,.07,0,0,0,.13-.02.15-.02.14-.02.28-.03.42-.05.24-.02.49-.05.73-.06.97-.07,1.95-.08,2.92-.03.49.02.98.06,1.47.12.11.01.22.03.34.04.05,0,.1.01.16.02.02,0,.04,0,.07,0,.24.03.48.07.72.11,1.92.33,3.8.88,5.6,1.62.01,0,.02,0,.03.01-.04-.02-.06-.03,0,0,.02,0,.04.02.05.02,0,0-.03-.01-.05-.02.05.02.1.04.15.07.12.05.24.1.35.16.22.1.44.2.66.31.44.21.88.44,1.31.68.84.47,1.66.99,2.45,1.55.2.15.4.29.6.44,0,0,.02.01.03.02,0,0,0,0,0,0,0,0,.02.02.03.03,0,0,0,0,0,0,.04.03.04.03.03.02.02.02.04.03.06.05.1.08.2.16.3.24.38.31.75.63,1.12.96.72.66,1.4,1.36,2.03,2.1.16.18.31.37.46.56.08.1.15.19.23.29,0,0,0,0,0,0,0,0,0,0,.01.02.04.05.08.1.12.16.3.4.59.81.86,1.23.55.83,1.04,1.69,1.48,2.58.22.44.42.89.62,1.34,0,0,0,.02.01.02.03.06.05.12.08.18.05.12.1.24.15.37.09.23.18.46.26.69.33.94.62,1.89.85,2.86.11.48.21.96.3,1.45.04.25.08.5.12.75,0,.06.02.11.02.17,0,0,0,0,0,0,0,0,0,.01,0,.02h0s0,.04,0,.05c0-.01,0-.01,0-.02.02.12.03.24.04.36.11.99.17,1.98.17,2.97,0,.99-.03,1.98-.13,2.97-.03.24-.05.49-.07.73-.01.12-.03.24-.04.36,0,.06-.01.11-.02.17,0,.03,0,.05-.01.08-.04.25-.07.51-.12.76-.02.11-.04.23-.06.34,0,.04-.02.17-.02.17,0,0,0,0,0,0-.01.07-.02.15-.03.22-.04.24-.08.47-.12.71-.01.07-.03.14-.04.2,0,.06,0,.05-.02.14-.02.13-.04.26-.06.39-.03.18.03.35.21.42.15.06.37.02.45-.15.92-1.89,1.32-3.99,1.48-6.07.16-2.08.02-4.18-.34-6.23Z"/>
    <path class="cls-1" d="M45.3,21.18s.05.04.06.05c-.01,0-.03-.02-.04-.03,0,0-.02-.01-.02-.02Z"/>
    <path class="cls-1" d="M20.49,21.7s0,.02,0,.02c.01-.04,0-.11,0-.02Z"/>
    <path class="cls-1" d="M54.19,46.2s0,.02,0,.02c0-.01.01-.09,0-.02Z"/>
    <path class="cls-1" d="M24.16,16.93s-.01,0-.02,0c-.04.02-.11.06.02,0Z"/>
  </g>
  <path class="cls-1" d="M55.15,46.83c-.11-.05-.24-.13-.35-.16-.15-.04-.29-.02-.44,0-.2.02-.41.05-.61.07-.41.05-.82.09-1.23.14-.8.08-1.6.16-2.4.23-1.62.14-3.24.24-4.86.33-3.24.18-6.5.24-9.75.21-.9,0-1.81,0-2.71-.01-.92-.01-1.86-.03-2.77.07-.17.02-.32.12-.34.3-.02.16.08.34.25.38.81.2,1.66.28,2.49.37.82.09,1.65.13,2.47.19,1.62.11,3.25.15,4.87.15,3.27,0,6.54-.14,9.8-.42.9-.08,1.8-.16,2.7-.26.45-.05.9-.1,1.35-.15.27-.03.54-.06.81-.1.12-.02.25-.02.37-.05.19-.05.33-.2.48-.32.29-.24.21-.79-.12-.96Z"/>
  <path class="cls-1" d="M56.07,43.91c-.02-.25-.05-.51-.11-.76-.02-.1-.07-.18-.11-.27-.03-.07-.06-.12-.1-.18-.07-.09-.14-.16-.21-.25-.09-.11-.26-.14-.39-.1-.14.04-.24.14-.28.28-.02.05-.03.1-.05.15.02-.04.03-.08.05-.12-.04.08-.08.16-.1.25-.03.09-.03.21-.04.3-.01.12,0,.24,0,.36.01.23.02.46.02.69,0,.23,0,.46-.01.69-.01.21-.03.41-.06.62-.04.27-.09.54-.15.81-.06.24-.13.48-.22.71-.05.11-.1.22-.18.31.03-.04.07-.09.1-.13-.06.07-.11.14-.14.22,0-.01,0-.02.01-.03,0,.02-.02.03-.02.05-.06.04-.12.07-.18.1-.17.06-.34.1-.51.13-.23.03-.46.04-.69.04-.13,0-.26,0-.39-.02-.06,0-.09,0-.15,0-.06,0-.11.01-.16.04-.08.06-.09.07-.03.02-.01,0-.02.01-.03.02.06-.02-.03,0-.04,0-.15.02-.19.23-.09.33.01.01.02.02.03.03-.01-.02-.01-.02,0,0,0,.01.01.02.02.03-.03-.07-.02-.06.02.03.06.1.18.17.29.21.12.05.25.09.37.12.28.08.57.12.86.14.26.02.52,0,.78-.05.15-.03.29-.09.42-.15.14-.06.26-.16.38-.25-.04.03-.08.06-.12.09.11-.07.22-.11.3-.22.08-.1.16-.2.22-.31.1-.18.18-.37.24-.56.12-.34.21-.69.28-1.04.15-.77.24-1.57.16-2.35Z"/>
  <path class="cls-1" d="M53.34,32.7s.03,0,.05-.01c.3-.12.5-.48.39-.8-.67-2-1.72-3.84-3.09-5.44-.37-.44-.77-.85-1.19-1.24-.12-.11-.27-.18-.43-.19-1.85-2.58-4.27-4.74-7.07-6.25-.83-.45-1.69-.83-2.58-1.17-.21-.08-.44,0-.62.15-1.01-.52-2.06-.97-3.14-1.35-.22-.11-.44-.21-.66-.32-.16-.08-.35-.1-.53-.07-1.23-.36-2.48-.64-3.74-.81-1.04-.14-2.08-.23-3.13-.24-.34,0-.62.26-.67.59,0,.03,0,.06,0,.09h-.06c-.33-.04-.62.28-.66.58-.03.23.06.45.23.59-.57-.05-1.14-.1-1.72-.15-.33-.03-.61.27-.65.58-.03.21.06.42.2.57-.03,0-.05,0-.08,0-.24-.01-.47.15-.58.37-.11-.06-.24-.09-.37-.07-.3.04-.46.24-.53.5-.02,0-.04,0-.06,0-.26.01-.49.15-.59.4,0,0,0,.02,0,.03-.22.09-.34.25-.39.45-.13-.07-.27-.1-.43-.05-.36.12-.5.43-.44.78,0,.04.01.09.02.13-.35.12-.49.42-.43.77.01.07.02.13.03.2,0,0,0,0,0,0-.23.04-.4.19-.49.42-.1.27-.19.55-.28.83-.17.07-.31.2-.37.39-.55,1.93-.59,4-.13,5.96.09.4.22.78.35,1.17.19.57.41,1.12.69,1.65,0,0,.01.02.02.03-.06.14-.08.3-.03.45.24.7.57,1.37.95,2.01,0,0,0,0,0,0-.11.21-.12.46,0,.67l1.56,2.6c.05.09.13.16.22.22.56.88,1.11,1.76,1.67,2.64.22.35.44.7.66,1.05-.18.2-.23.5-.09.75.5.88,1,1.75,1.5,2.63.16.28.52.39.81.26.04-.02.07-.04.1-.07l.49.58c.23.27.46.54.69.81.11.13.23.27.34.4.14.17.27.35.46.47.56.35,1.21.61,1.85.8.65.19,1.34.29,2.02.31.02,0,.05.02.07.03.31.11.65-.1.77-.38.12-.28.02-.55-.19-.74-.02-.02-.04-.04-.07-.06,0,0,0,0,0,0-.97-.68-1.94-1.35-2.91-2.03-.28-.2-.74-.06-.89.23-.16.29-.08.59.14.81,0,0-.01,0-.02,0-.02-.01-.05-.03-.07-.04,0,0,0,0-.03-.04-.05-.07-.11-.13-.16-.19l-.34-.4-.67-.78c-.35-.41-.7-.82-1.05-1.23.01,0,.03-.01.04-.02.04-.03.07-.07.1-.11.1-.02.19-.05.27-.11.25-.19.33-.55.17-.83-.19-.32-.35-.65-.51-.98.04.06.08.12.12.17.18.27.49.39.8.26.25-.11.42-.39.38-.67.08,0,.16-.02.23-.05.32-.13.44-.44.38-.77-.09-.51-.18-1.03-.28-1.54.09.19.18.39.28.58.15.32.59.42.89.29.35-.15.48-.49.41-.84l-.23-1.31s.08.03.13.04c0,.01,0,.03.02.04.12.28.54.42.82.33.3-.1.54-.37.53-.7-.03-.78-.05-1.56-.08-2.34l.19.58c.11.35.43.57.8.52.24-.03.5-.22.6-.46.05,0,.1,0,.14-.01.41-.13.59-.5.51-.9-.09-.51-.18-1.02-.25-1.53-.01-.07-.02-.14-.03-.21,0,.01,0,.01,0,.02,0-.02,0-.04,0-.07,0-.04,0-.08-.01-.12.03.1.06.2.09.3.17.58.34,1.16.51,1.74.1.36.45.58.81.53.34-.05.68-.36.64-.73-.06-.61-.11-1.21-.17-1.82.09.29.18.58.27.87.11.36.45.59.82.54.33-.04.7-.37.65-.73-.07-.5-.13-1.01-.2-1.51.1.28.2.55.3.83.13.36.44.59.83.54.33-.04.7-.37.65-.74,0,0,0,0,0-.01.16.22.42.34.7.3.34-.05.68-.36.65-.73l-.1-1.15c.11.34.22.69.33,1.03.12.37.52.64.91.52.42-.13.58-.5.52-.91-.04-.24-.08-.48-.11-.72.11.29.23.58.34.87.14.34.42.57.8.52.34-.05.64-.35.63-.71.08.15.16.31.25.46.18.31.58.43.9.3.31-.13.48-.46.42-.79.19.14.43.19.68.09.25-.11.42-.35.43-.61.16.32.58.42.88.29.1-.04.18-.11.25-.19.19.36.37.72.56,1.08.16.31.57.41.87.29.17-.07.31-.22.38-.4.08.12.16.24.25.36.2.28.53.43.86.28.1-.04.18-.11.25-.19.05.08.1.16.16.24.33.49.67.96,1.02,1.43.21.28.52.42.85.28.29-.12.52-.49.4-.81l-.37-1Z"/>
  <path class="cls-1" d="M50.89,26.2c-1.32-2.05-3.07-3.82-5-5.31-1.92-1.48-4.11-2.62-6.4-3.41-1.28-.44-2.59-.77-3.93-.97-.31-.05-.66.08-.74.42-.07.31.09.66.42.74.63.15,1.25.32,1.86.53.3.1.61.21.91.33.07.03.14.06.21.09.04.02.08.04.13.05,0,0,0,0,0,0,.15.06.29.13.44.19,1.17.53,2.29,1.18,3.33,1.93.13.09.26.19.39.29.03.02.06.05.09.07,0,0,0,0,0,0,.07.05.13.1.2.15.25.2.5.41.74.62.48.42.95.87,1.39,1.34.44.47.86.96,1.26,1.46,0,.01,0,0,.01.01,0,0,0,0,0,0,.02.03.05.06.07.09.05.06.09.12.14.18.1.13.19.26.28.39.18.26.36.53.54.8.39.61.74,1.25,1.06,1.9.16.32.29.66.47.97.17.32.36.63.53.95.1.19.35.26.54.18.2-.09.29-.29.25-.51-.07-.33-.12-.66-.22-.98-.1-.34-.25-.67-.4-1-.28-.6-.59-1.18-.93-1.74-.69-1.14-1.5-2.22-2.4-3.21-.57-.63-1.2-1.21-1.84-1.77.22.14.45.28.67.43.5.34.96.68,1.38,1.02.45.37.89.75,1.32,1.15.32.3.62.63.92.95-.17-.06-.34-.13-.51-.18-.18-.05-.32.24-.13.31.46.2.91.47,1.31.78.39.3.75.66,1.04,1.06.11.15.3.22.47.12.15-.09.22-.31.12-.47Z"/>
  <path class="cls-1" d="M55.26,47.53c-.16-.67-.34-1.33-.52-1.99.12-.23.23-.47.3-.71.19-.62.18-1.27,0-1.86.23-2.1.17-4.23-.17-6.32-.1-.64-.24-1.27-.39-1.89-.07-.26-.3-.43-.56-.46-.21-.65-.45-1.29-.73-1.92-.11-.24-.46-.37-.72-.31-.16-.41-.32-.81-.5-1.21,0,0,0,0,0,0,0,0,0,0,0,0-.02-.05-.04-.1-.06-.15-.13-.29-.53-.37-.8-.26-.16.07-.26.18-.32.31-.03-.09-.06-.18-.09-.28-.1-.32-.45-.56-.79-.45-.23.08-.37.24-.43.45-.17-.47-.34-.95-.51-1.42-.12-.32-.45-.57-.81-.46-.13.04-.23.12-.31.22,0-.02-.02-.04-.03-.05-.16-.29-.53-.4-.83-.27-.18.08-.31.24-.37.42-.12-.25-.24-.5-.36-.75-.14-.3-.55-.39-.83-.27-.29.12-.48.46-.39.78-.14-.21-.27-.43-.42-.65-.19-.28-.51-.41-.84-.27-.18.07-.32.25-.38.44l-.17-.3c-.17-.3-.61-.43-.91-.24-.33.22-.38.56-.24.91.09.21.18.42.27.63-.44-.12-.96.3-.81.8.12.4.26.79.4,1.19-.45-.46-.92-.89-1.41-1.31-.24-.21-.58-.26-.85-.05-.23.18-.33.53-.18.79-.19-.16-.38-.34-.58-.5-.25-.2-.57-.26-.83-.05-.05.04-.1.1-.14.16-.21-.12-.5-.1-.69.05-.23.18-.34.55-.16.81.41.58.82,1.17,1.23,1.75-.41-.41-.81-.81-1.22-1.22-.23-.23-.6-.25-.86-.05-.1.08-.18.21-.22.34-.1-.11-.2-.22-.3-.33-.22-.24-.61-.24-.86-.05-.09.07-.16.18-.21.3-.22-.22-.59-.23-.83-.04-.24.18-.35.57-.17.83.14.2.28.4.42.6l-.5-.51c-.24-.24-.67-.25-.91,0-.16.17-.2.37-.16.56-.21-.05-.45-.01-.6.15-.1.11-.15.24-.16.37-.07-.07-.14-.13-.21-.2-.24-.23-.67-.26-.91,0-.09.1-.14.22-.16.35-.1.02-.21.05-.29.12-.16.13-.26.35-.25.56-.25-.17-.61-.17-.82.06-.24.26-.25.65,0,.91.12.13.25.26.37.39-.11.24-.09.53.11.73.27.25.54.51.82.76-.16.05-.3.15-.37.28-.13.24-.12.58.1.78.1.09.2.18.3.26-.22-.04-.46.07-.59.23-.18.23-.17.58.05.79l.18.17c-.28-.2-.56-.39-.84-.59-.24-.17-.6-.06-.77.15-.14.19-.16.42-.06.62-.02-.02-.05-.04-.07-.05-.24-.17-.6-.06-.77.15-.19.24-.15.55.05.78.02.03.04.05.07.08-.13,0-.26.05-.36.16-.22.24-.23.6,0,.84.06.07.13.14.19.21-.03.03-.07.05-.1.09-.19.25-.14.54.05.78.12.14.23.29.35.43-.07.05-.14.11-.18.19-.16.31-.05.61.21.81.89.69,1.89,1.24,2.93,1.67.04.3.27.5.57.52l1.28.08c.07.02.13.03.2.05.01.06.04.12.07.17-.02.26.14.55.42.6,2.18.44,4.42.55,6.64.34l.44.04c.12.01.24-.04.34-.11.24-.03.46-.17.54-.39.04,0,.08,0,.12.01.54.37,1.2.58,1.87.53.27-.02.55-.18.61-.47,0,0,0,0,0,0,1.29.19,2.58.38,3.88.57.32.05.62-.05.75-.37.03-.07.04-.15.04-.24.53.07,1.05.13,1.58.14,1.11.02,2.29-.15,3.25-.74.04-.03.08-.06.12-.09,0,.13.01.27.08.41.12.25.24.5.36.75.16.33.6.43.91.3.34-.14.51-.5.42-.86Z"/>
  <path class="cls-2" d="M56.67,35.97c-.34-1.89-.87-3.75-1.6-5.53-.68-1.67-1.53-3.27-2.53-4.77-.99-1.48-2.13-2.87-3.39-4.13-1.26-1.27-2.65-2.41-4.13-3.42-1.46-.99-3.02-1.83-4.64-2.52-1.62-.68-3.31-1.21-5.03-1.53-1.76-.33-3.56-.49-5.35-.39-1.8.1-3.61.42-5.3,1.07-1.68.64-3.25,1.58-4.5,2.88-1.37,1.42-2.28,3.21-2.74,5.12-.48,2.04-.46,4.16-.09,6.21.39,2.17,1.17,4.26,2.1,6.26.83,1.81,1.79,3.56,2.84,5.26,1.05,1.69,2.19,3.33,3.43,4.87,1.24,1.53,2.56,2.99,3.97,4.37,1.4,1.38,2.89,2.66,4.45,3.86.37.29.76.55,1.15.81.4.26.78.56,1.17.83.13.09.25-.12.12-.21-.4-.29-.81-.57-1.18-.89-.36-.31-.72-.62-1.09-.93-.74-.62-1.46-1.27-2.17-1.93-1.42-1.32-2.77-2.71-4.03-4.18-1.25-1.46-2.43-2.98-3.52-4.56-1.1-1.59-2.11-3.25-3.02-4.96-.97-1.81-1.86-3.68-2.52-5.63-.67-1.98-1.11-4.02-1.07-6.11.03-1.9.45-3.83,1.37-5.49.23-.42.49-.81.78-1.19,0,0,.01-.02.02-.03.01-.01.02-.03.03-.04.03-.04.07-.08.1-.12.07-.08.14-.16.21-.24.14-.16.28-.31.43-.46.64-.64,1.2-1.07,1.97-1.54.36-.22.74-.42,1.12-.6.1-.05.19-.09.29-.13.04-.02.08-.04.13-.06.02-.01.05-.02.07-.03,0,0,.01,0,.03-.01.2-.08.4-.16.6-.23.82-.3,1.67-.52,2.54-.69.22-.04.45-.08.67-.11.05,0,.09-.01.14-.02,0,0,.01,0,.02,0,.02,0,.04,0,.06,0,.12-.01.23-.03.35-.04.43-.05.87-.08,1.31-.1.87-.03,1.74,0,2.61.06.22.02.44.04.66.07.1.01.2.02.3.04.02,0,.09.01.1.01.05,0,.1.01.16.02.42.06.84.13,1.26.22.84.17,1.68.38,2.5.64.41.13.82.27,1.23.42.2.07.4.15.6.23.1.04.2.08.3.12.02,0,.06.03.07.03.05.02.1.04.15.06.79.34,1.57.72,2.32,1.14.76.42,1.49.88,2.2,1.37.36.25.71.5,1.06.77.02.01.04.03.05.04,0,0,.01.01.02.02,0,0,.03.03.04.03.02.01.04.03.05.04.09.07.18.14.27.21.17.13.33.27.5.41,1.33,1.12,2.55,2.36,3.64,3.71.07.08.13.17.2.25.03.04.06.07.09.11.02.02.04.05.06.07,0,0,.06.08.03.04-.03-.04.02.03.03.04.01.02.03.04.04.05.03.04.06.09.1.13.07.09.14.18.21.28.25.35.5.7.74,1.06.48.72.92,1.47,1.32,2.24.2.38.39.76.57,1.15.09.2.18.4.27.61.02.04.03.08.05.12,0,.01.01.03.01.03,0,.02.02.05.03.07.05.12.1.23.14.35.35.88.65,1.78.91,2.7.26.91.46,1.84.63,2.77.04.23.08.46.11.7.02.11.03.22.05.33,0,.02,0,.07.01.08,0,.07.02.13.03.2.06.48.1.95.14,1.43.14,1.9.09,3.81-.12,5.7-.01.11-.03.22-.04.33,0,.06-.01.12-.02.18,0,.01,0,0,0,0,0,.04,0,.07-.01.11-.03.23-.07.47-.11.7-.08.47-.17.95-.26,1.42-.2.93-.43,1.86-.71,2.77-.28.91-.6,1.81-.95,2.7-.09.22-.17.43-.26.65,0,.02-.04.09-.04.1-.02.05-.04.09-.06.14-.05.12-.1.23-.15.35-.19.43-.4.86-.61,1.28-.21.42-.41.83-.62,1.25-.21.4-.42.83-.67,1.22-.23.36.34.69.57.34.26-.41.56-.81.83-1.22.26-.4.51-.81.74-1.24.47-.88.89-1.78,1.27-2.7.73-1.79,1.29-3.65,1.68-5.55.39-1.92.61-3.88.64-5.83.03-1.96-.13-3.92-.47-5.85Z"/>
</svg>