<?xml version="1.0" encoding="UTF-8"?>
<svg id="Layer_1" data-name="Layer 1" xmlns="http://www.w3.org/2000/svg" viewBox="0 0 46.03 38.41">
  <defs>
    <style>
      .cls-1 {
        fill: #89d1cc;
      }

      .cls-2 {
        fill: #3c342e;
      }
    </style>
  </defs>
  <path class="cls-1" d="M38.86,12.86c-.07-.18-.17-.34-.26-.51-.05-.15-.11-.29-.18-.43-.59-1.2-1.87-1.96-3.15-2.21-.52-.1-1.05-.12-1.57-.08-1.25-.02-2.5.27-3.67.68-1.53.53-3.02,1.2-4.49,1.89-1.44.67-2.85,1.38-4.24,2.13-.41.22-.81.46-1.22.69-2.52,1.03-4.95,2.25-7.26,3.68-1.29.8-2.54,1.67-3.75,2.59-.75.57-1.49,1.18-2.13,1.88-.44.34-.86.69-1.22,1.11-.44.52-.83,1.11-.99,1.78-.16.69-.08,1.39.22,2.04.48,1.04,1.6,1.61,2.67,1.83,1.2.25,2.4.16,3.6-.02,1.44-.22,2.86-.52,4.28-.87,2.86-.72,5.65-1.72,8.34-2.93,2.66-1.2,5.21-2.62,7.64-4.24.61-.4,1.2-.82,1.79-1.25.14-.1.29-.21.43-.32.07-.05.14-.11.21-.16.03-.02.06-.04.09-.06.04-.03.33-.25.17-.13.31-.24.62-.48.93-.72.47-.37.92-.77,1.36-1.18.77-.61,1.49-1.29,1.94-2.16.08-.16.15-.32.22-.48.4-.78.58-1.66.26-2.52Z"/>
  <path class="cls-1" d="M36.09,16.47c-.25-.23-.56-.2-.81,0-.07.05-.14.11-.2.16-.01.01-.03.02-.04.03.09-.07.06-.05-.08.06-.03.02-.05.05-.08.07-.13.12-.26.24-.4.36-.26.24-.52.47-.78.7-.51.45-1.03.9-1.56,1.33-.13.11-.27.21-.4.32-.07.05-.13.11-.2.16-.03.02-.05.04-.08.06.12-.09-.03.02-.05.04-.28.21-.56.42-.84.63-.55.4-1.11.79-1.68,1.16-1.16.76-2.35,1.46-3.57,2.1-.62.33-1.25.64-1.88.93-.31.14-.62.28-.93.42-.08.03-.16.07-.23.1-.03.01-.06.03-.09.04,0,0-.04.02-.07.03-.15.06-.3.12-.45.19-2.56,1.04-5.22,1.84-7.93,2.37-.69.13-1.38.25-2.07.35-.08.01-.15.02-.23.03-.02,0-.08.01-.07,0-.02,0-.03,0-.05,0-.19.02-.37.05-.56.07-.34.04-.68.07-1.02.11-.31.03-.62.06-.94.06-.15,0-.3,0-.45,0-.07,0-.15,0-.22-.01-.03,0-.06,0-.09,0-.01,0-.04,0-.07,0-.13-.01-.25-.04-.38-.07-.07-.02-.14-.04-.2-.06-.04-.01-.08-.03-.12-.04,0,0,0,0-.01,0,0,0,0,0,0,0-.12-.06-.23-.12-.34-.19,0,0,0,0,0,0-.02-.02-.05-.04-.07-.06-.06-.05-.11-.11-.16-.16,0,0,0,0,0,0-.02-.03-.04-.06-.06-.09-.04-.06-.07-.12-.1-.19,0,0,0,0,0-.01-.01-.03-.02-.06-.03-.08-.02-.07-.03-.13-.05-.2,0,0,0,0,0,0,0,0,0,0,0,0,0-.03,0-.05,0-.08,0-.07,0-.14,0-.21,0-.03,0-.07,0-.1.02-.08.03-.17.05-.25.02-.06.04-.12.06-.19,0-.02.04-.09.05-.12.07-.14.14-.28.22-.41.08-.12.15-.24.24-.36,0-.01.03-.03.04-.05.02-.02.03-.04.05-.06.05-.06.11-.13.17-.19.1-.11.21-.21.33-.31.07-.06.23-.18.31-.24.27-.2.56-.39.84-.58.57-.36,1.14-.71,1.64-1.17.23-.21.45-.45.64-.71.06-.09-.07-.17-.14-.11-1.07.91-2.51,1.16-3.69,1.88-1.16.71-2.1,2.05-1.89,3.46.1.67.52,1.26,1.09,1.62.57.36,1.27.48,1.93.5.66.03,1.33-.05,1.99-.12.73-.07,1.46-.17,2.19-.28,2.82-.43,5.59-1.15,8.26-2.13,2.69-.99,5.29-2.24,7.74-3.73,1.21-.74,2.38-1.54,3.51-2.39,1.16-.88,2.3-1.81,3.35-2.82.25-.25.49-.49.72-.77.19-.23.24-.59,0-.81Z"/>
  <path class="cls-2" d="M38.33,10.63c-1.01-.81-2.26-1.3-3.55-1.37-1.63-.09-3.23.38-4.71,1.01-.73.31-1.42.67-2.14,1-.09.04-.14.13-.17.22-.47.15-.95.3-1.41.46-1.46.5-2.89,1.07-4.31,1.67-2.83,1.2-5.58,2.58-8.23,4.14-1.32.78-2.61,1.6-3.88,2.46-.64.43-1.27.88-1.89,1.33-.59.43-1.18.86-1.73,1.35-.99.88-1.97,2.02-2.16,3.39-.09.68.02,1.37.34,1.98.31.59.8,1.07,1.36,1.43,1.31.86,2.94.92,4.46.79,1.52-.13,3.03-.38,4.52-.7,2.96-.63,5.83-1.58,8.6-2.78,2.77-1.19,5.42-2.62,7.97-4.22,1.27-.8,2.52-1.64,3.73-2.52,1.16-.84,2.35-1.68,3.31-2.74.92-1.02,1.65-2.29,1.59-3.7-.05-1.27-.73-2.43-1.71-3.21ZM39.1,14.38s0,.01,0,.01c0,0,0,0,0,.02-.01.08-.03.15-.04.22-.03.15-.07.29-.12.44-.1.28-.21.51-.38.8-.62,1.04-1.69,1.97-2.63,2.69-1.16.89-2.35,1.74-3.57,2.55-2.43,1.63-4.96,3.1-7.59,4.36-2.61,1.25-5.32,2.28-8.12,3.06-1.39.38-2.81.7-4.23.94-.73.12-1.46.23-2.2.3-.78.07-1.58.11-2.36-.03-1.19-.21-2.41-.85-2.9-2.02-.49-1.18.03-2.41.79-3.34.89-1.09,2.05-1.91,3.18-2.73,1.2-.87,2.44-1.7,3.69-2.49,2.53-1.59,5.15-3.04,7.85-4.32,2.4-1.13,4.87-2.13,7.37-3.01.12.13.3.16.46.08,1.39-.66,2.86-1.28,4.37-1.6.71-.15,1.43-.22,2.16-.17.07,0,.14.01.22.02,0,0,.15.02.05,0,.03,0,.06,0,.09.01.16.03.32.06.47.1.28.07.56.16.83.27.01,0,.03.01.04.02.03.01.07.03.1.05.07.03.13.06.2.1.13.07.26.14.38.21.12.08.24.16.36.24,0,0,.04.03.06.04.02.02.06.05.06.04.07.05.13.11.2.17.44.39.71.73.96,1.27.01.03.03.06.04.09,0,0,0,.02.01.03.02.06.05.13.07.19.05.15.09.29.11.44,0,.03,0,.06.01.08,0,.02,0,.02,0,.02,0,0,0,0,0,.02,0,.06.01.13.02.19,0,.16,0,.32,0,.49,0,.04,0,.08-.01.11Z"/>
</svg>