<?xml version="1.0" encoding="UTF-8"?>
<svg id="Layer_1" data-name="Layer 1" xmlns="http://www.w3.org/2000/svg" viewBox="0 0 113.56 47.51">
  <defs>
    <style>
      .cls-1 {
        fill: #ed2d85;
      }

      .cls-2 {
        fill: #3c342e;
      }
    </style>
  </defs>
  <path class="cls-1" d="M96.4,32.66c-.12-.34-.3-.65-.56-.91-.05-.04-.09-.09-.14-.13-.09-.07-.18-.14-.28-.2-.05-.03-.11-.06-.17-.09-.11-.05-.21-.09-.32-.12-.07-.02-.15-.02-.23-.03,0,0-.01,0-.02,0-.11-.05-.23-.08-.35-.1-.16-.03-.33-.05-.5-.05-.17,0-.34.02-.5.06-.16.03-.32.1-.47.16-.11.05-.21.11-.3.18-.14.1-.26.21-.37.34-.11.13-.21.27-.29.42-.08.15-.14.31-.19.47-.05.17-.07.34-.09.51-.01.12,0,.24,0,.36.02.17.04.34.09.5.05.16.12.32.2.47.08.15.19.29.31.42.12.13.25.23.39.33.1.07.21.13.32.19.16.07.32.14.49.18.17.04.34.07.52.08.12,0,.25,0,.37-.01.17-.02.35-.05.51-.1.17-.06.34-.13.49-.22.32-.19.57-.45.78-.75.11-.15.18-.31.25-.48.05-.12.09-.25.11-.38.03-.18.05-.36.04-.54-.02-.18-.04-.36-.1-.54Z"/>
  <g>
    <path class="cls-1" d="M62.24,7.65s0,0,0,0c.01.03.03.06.04.09-.01-.03-.03-.07-.04-.1Z"/>
    <path class="cls-1" d="M62.24,7.66c-.09-.21-.18-.42-.27-.63-.03-.04-.07-.09-.1-.13-.04-.03-.09-.07-.13-.1-.07-.04-.14-.06-.22-.07-.45-.56-1.08-.99-1.77-1.19-.52-.14-1.09-.16-1.62-.02-.17.05-.34.13-.5.21-.12.01-.23.02-.35.05-.36.09-.67.27-.95.51-.13.11-.24.25-.34.4-.3.4-.43.92-.44,1.41,0,.49.12.97.34,1.4.43.87,1.33,1.46,2.27,1.62.53.09,1.05.08,1.57-.03.26-.06.5-.15.74-.26.19-.08.37-.19.54-.31.4-.3.77-.67.97-1.13.06-.14.12-.28.15-.42.04-.15.06-.31.07-.46,0-.04,0-.09,0-.13.06-.07.1-.14.12-.23l.02-.17c0-.11-.03-.22-.08-.31Z"/>
    <path class="cls-1" d="M62.22,7.6s.01.04.02.05c0,0,0,0,0,0,0-.02-.01-.03-.02-.05Z"/>
    <path class="cls-1" d="M55.93,6.74s.04-.04.06-.07c.01-.01.02-.03.03-.04l-.09.11Z"/>
  </g>
  <path class="cls-1" d="M13.82,16.03c-.06-.13-.16-.24-.25-.35-.07-.07-.14-.14-.22-.2-.2-.16-.41-.29-.63-.41-.77-.43-1.62-.72-2.49-.84-.46-.07-.93-.11-1.39-.1-.47.01-.93.07-1.39.17-.1.02-.2.05-.3.07-.21.05-.38.23-.43.43-.06.22.01.44.16.6.5.57,1.14,1.04,1.82,1.39.36.18.74.34,1.13.45.39.12.79.18,1.19.21.2.02.4.03.6.01.09,0,.18-.02.27-.04.18.08.37.16.57.2.25.05.51.07.76-.01.31-.1.55-.31.67-.6.14-.33.1-.67-.06-.99Z"/>
  <path class="cls-1" d="M28.53,33.69c-.19-.39-.49-.71-.84-.96-.36-.25-.8-.36-1.23-.38-.22-.01-.44.02-.66.05-.16.03-.33.07-.48.12-.37.13-.73.3-1.06.52-1.22.83-2.13,2.09-2.53,3.52-.1.37-.17.76-.2,1.14-.03.37-.02.77.09,1.13.14.47.43.87.84,1.13.17.1.36.18.56.22.02,0,.04,0,.06,0,.41.23.86.36,1.33.39.67.05,1.35-.15,1.9-.54.63-.43,1.12-1.02,1.49-1.68.16-.29.3-.58.43-.88.17-.4.33-.8.45-1.21.12-.42.19-.88.17-1.32-.02-.44-.13-.85-.32-1.25Z"/>
  <path class="cls-1" d="M84.29,26.19c-.12-.05-.27-.07-.39-.03-.05.02-.1.04-.14.06-.05.03-.08.08-.12.12-.15-.12-.34-.19-.55-.19-.23,0-.44.08-.66.17-.23.09-.46.19-.68.29-.8.37-1.54.86-2.22,1.42-.68.57-1.27,1.23-1.78,1.95-.06.09-.12.18-.18.27-.12.19-.09.45.04.61.14.18.36.25.58.2.01,0,.03,0,.04-.01.1.18.28.3.5.3.12,0,.24.01.36,0,.16-.01.32-.04.49-.06.23-.04.46-.09.69-.15.49-.14.97-.35,1.42-.6.89-.51,1.66-1.23,2.23-2.09.32-.47.56-1,.73-1.55.09-.29-.08-.6-.35-.71Z"/>
  <path class="cls-2" d="M97.13,32.84c-.05-.38-.16-.74-.35-1.08-.17-.3-.39-.58-.65-.8-.57-.49-1.27-.8-2.02-.85-.36-.02-.73.03-1.06.14-.39.13-.72.32-1.04.57-.29.23-.53.51-.73.81-.2.3-.35.64-.44.99-.19.76-.09,1.55.27,2.24.16.32.39.61.65.86.26.25.56.47.89.63.37.18.74.28,1.15.33.37.04.76,0,1.12-.11.75-.21,1.45-.68,1.87-1.35.06-.1.12-.2.16-.31.03-.09.02-.19,0-.29.01-.06.02-.12.03-.18,0-.05-.02-.1-.04-.14.06-.15.11-.3.14-.45.08-.33.11-.67.06-1ZM92.26,34.69c-.12-.16-.22-.33-.3-.51-.07-.17-.12-.35-.15-.53-.02-.17-.02-.34,0-.52.03-.2.08-.39.16-.57.09-.19.2-.38.32-.55.13-.16.27-.3.43-.43.15-.11.31-.21.48-.28.16-.06.33-.11.49-.14.18-.02.37-.02.55,0,.22.04.44.09.65.17.19.09.37.19.54.32.15.12.3.26.42.41.11.15.21.32.29.49.06.17.11.34.14.51.02.22.03.43,0,.65-.02.15-.05.3-.1.45-.01.04-.03.08-.04.12,0,.02-.01.03-.02.05,0,.01-.02.05,0,0,.03-.08-.03.06-.03.07,0,.02-.01.03-.02.05-.02.03-.03.07-.05.1-.15.19-.33.37-.52.53-.19.14-.39.26-.6.35-.19.07-.39.13-.59.16-.18.02-.35.02-.53,0-.19-.03-.37-.08-.55-.15-.19-.08-.36-.19-.53-.31-.16-.13-.31-.28-.45-.45Z"/>
  <path class="cls-2" d="M54.1,8.69c-.1-.35-.28-.66-.51-.94-.36-.45-.93-.75-1.5-.83-.17-.02-.33-.04-.49-.03-.16,0-.32.03-.48.07-.15.04-.29.09-.43.15-.14.06-.26.15-.38.25,0,0-.01.02-.02.02-.03,0-.05,0-.08.01-.02,0-.04.02-.06.03,0,0-.07.03-.03.01-.02,0-.04.02-.06.02.02,0,.02,0,0,0-.01,0-.03.01-.05.02-.06.02-.11.04-.16.08-.04.03-.07.05-.11.08-.16.12-.32.23-.47.36-.26.23-.5.49-.72.75-.24.28-.48.58-.67.9-.21.35-.35.73-.39,1.14-.04.35.05.72.21,1.03.15.29.38.51.63.7.48.36,1.08.52,1.67.56.32.02.64-.01.96-.06.3-.05.6-.13.89-.25.32-.13.62-.28.9-.48.15-.11.3-.22.43-.35.14-.13.26-.28.38-.44.4-.53.62-1.18.64-1.84.01-.32-.03-.66-.12-.97ZM52.66,10.85c-.14.18-.31.34-.49.48-.22.16-.46.3-.71.41-.29.11-.59.19-.89.24-.24.03-.48.03-.73,0-.22-.03-.44-.09-.65-.18-.13-.06-.25-.12-.36-.2-.07-.06-.14-.13-.2-.2-.04-.06-.08-.13-.12-.2-.03-.07-.05-.15-.06-.22,0-.09,0-.18,0-.27.03-.16.07-.31.13-.46.17-.37.4-.72.64-1.05.03-.04.06-.08.09-.12.02-.02.03-.04.05-.06,0,0,0,0,.01-.01.07-.08.13-.17.2-.25.14-.17.28-.34.43-.51.03-.03.05-.06.08-.09.09.05.19.05.27-.01-.02.01-.04.03-.07.04.06-.02.13-.06.18-.1.01,0,.02,0,.03-.01.01,0,.02,0,.04-.01.04-.02.07-.03.1-.05.06-.03.11-.05.17-.08.05-.02.1-.04.15-.06-.03.01-.06.03-.1.04.13-.04.25-.07.38-.1.15-.02.31-.02.46,0,.16.02.32.07.47.13.12.05.23.12.33.19.08.07.16.15.23.23.08.11.14.22.2.34.07.17.12.36.15.54.02.19.02.38,0,.56-.03.19-.08.38-.15.57-.08.16-.17.32-.27.47Z"/>
  <g>
    <path class="cls-2" d="M62.92,7.15c-.16-.39-.38-.73-.67-1.04-.26-.28-.58-.52-.91-.71-.73-.43-1.58-.67-2.42-.69-.82-.02-1.66.19-2.35.64-.67.44-1.18,1.05-1.48,1.79-.28.67-.31,1.46-.07,2.15.13.37.31.73.58,1.02.19.22.43.4.69.54,0,.01,0,.03.02.04.03,0,.06.02.09.03.01,0,.02.01.03.02.09.04.19.07.29.1.07.03.13.06.2.08.21.06.42.11.63.16.43.1.87.15,1.32.15.83.01,1.67-.13,2.4-.53.63-.35,1.23-.87,1.55-1.53.34-.69.42-1.5.12-2.23ZM61.97,8.78s-.02.05-.03.07c0,0,0,0,0,.01-.09.18-.17.35-.29.52-.03.04-.06.08-.09.13.09-.13-.01.02-.04.05-.07.08-.14.16-.22.23-.08.07-.15.14-.24.21,0,0,0,0-.01.01-.02.01-.03.02-.04.03-.04.03-.09.06-.13.09-.09.06-.18.11-.27.16-.05.02-.09.05-.14.07-.01,0-.04.02-.06.03-.01,0-.02,0-.03.01-.23.09-.48.16-.72.21-.12.03-.23.05-.35.06-.01,0,0,0-.01,0,0,0,0,0-.02,0-.03,0-.07,0-.1.01-.08,0-.15.01-.23.02-.26.02-.53.02-.79.01-.26,0-.51,0-.77,0-.01-.11-.06-.21-.16-.26-.1-.05-.2-.11-.3-.18-.03-.02-.06-.07,0,0-.02-.02-.05-.04-.07-.06-.04-.03-.07-.06-.11-.1-.09-.08-.17-.16-.24-.25-.01-.02-.03-.03-.04-.05,0,0,0,0,0-.01-.03-.04-.06-.09-.09-.13-.06-.09-.12-.19-.17-.29-.03-.05-.05-.1-.08-.16,0,0,0,0,0,0,0,.01,0,.02.02.04,0-.02-.02-.04-.03-.06,0,0,0,0,0,0,0,0,0-.01,0-.02,0,0,0,0,0,0,0,0,0,0,0,0-.07-.19-.12-.39-.15-.59-.02-.18-.02-.36,0-.54.03-.2.09-.4.16-.6.08-.17.16-.33.26-.48.02-.03.05-.07.07-.1,0,0,0,0,0,0,.01-.02.03-.03.04-.05.07-.08.14-.16.21-.23.07-.07.15-.14.22-.2-.02.01,0,0,0,0,0,0,0,0,0,0,.02-.02.04-.03.06-.05-.02.02-.03.03-.05.04,0,0,.02-.01.02-.02.04-.03.09-.06.13-.09.16-.1.33-.19.5-.27.24-.09.5-.16.75-.2.32-.04.64-.04.96,0,.36.05.71.15,1.04.28.18.08.36.17.53.28.08.05.16.11.24.16,0,0,0,0,0,0,0,0,.01,0,.02.01,0,0,0,0,0,0,.02.02.03.03.04.03,0,0,0,0,0,0,.04.03.08.07.12.11.08.07.15.14.22.22.03.04.07.07.1.11.01.01.02.03.03.04.11.15.2.32.28.49.05.14.09.28.12.43.02.15.02.31,0,.46-.01.07-.02.14-.04.21-.01.05-.03.1-.04.14Z"/>
    <path class="cls-2" d="M61.17,6.58s-.03-.02-.04-.03c0,0,0,0-.01,0,.01.02.06.05.05.04Z"/>
    <path class="cls-2" d="M56.92,6.41s0,0,0,0c0,0,.01-.01.02-.01,0,0-.01,0-.02.01Z"/>
    <path class="cls-2" d="M56.09,9.19s0,.01,0,.02c0,0,0,0,0,0,0,0,0,.02,0,.02-.01-.03-.02-.04-.02-.04,0,0,0,0,0,0Z"/>
  </g>
  <g>
    <path class="cls-2" d="M70.58,14.81c-.13-1.29-.64-2.52-1.52-3.48-.94-1.04-2.28-1.59-3.68-1.62-1.56-.03-3.09.53-4.44,1.26-1.29.69-2.48,1.6-3.33,2.81-.86,1.21-1.34,2.81-1.03,4.28.26,1.23,1.11,2.4,2.24,2.97.31.15.6.24.94.27.16.02.3-.13.31-.28,0,0,0,0,0-.01.08.03.16.07.23.1.71.29,1.43.47,2.19.57,1.44.19,2.88-.02,4.19-.63,2.34-1.09,4.16-3.57,3.9-6.22ZM69.2,15.82s0,.05-.01.07c-.01.07-.02.13-.04.2-.03.15-.07.29-.11.43-.04.13-.08.26-.13.38,0,0-.02.03-.02.06,0,0,0,.01,0,.02-.03.07-.06.14-.1.2-.13.25-.27.5-.43.73-.04.06-.09.12-.13.18-.02.02-.04.05-.05.07,0-.01.01-.01.02-.02-.09.11-.19.22-.28.33-.19.21-.4.41-.62.59-.03.03-.24.18-.07.06-.06.04-.11.08-.16.12-.12.09-.25.17-.38.25-.24.15-.5.29-.76.41-.05.02-.25.09-.07.03-.07.02-.14.06-.21.08-.13.05-.27.09-.41.14-.3.09-.65.2-.97.21-.07,0-.14.02-.21.03.16-.02.04,0,0,0-.04,0-.09,0-.13.01-.17.02-.35.03-.52.03-.33,0-.66,0-.99-.04-.03,0-.07,0-.1-.01,0,0-.04,0-.07,0-.03,0-.08-.01-.08-.01-.03,0-.07-.01-.1-.02-.17-.03-.34-.06-.52-.1-.33-.07-.65-.15-.96-.26-.15-.05-.3-.1-.44-.16-.04-.02-.08-.03-.12-.05-.02,0-.12-.05-.04-.02-.11-.04-.21-.08-.32-.12-.14-.05-.26-.1-.37-.15-.09-.04-.17-.09-.28-.09h-.06c-.07.02-.08.02-.03,0-.07-.01-.15-.01-.22-.02-.16-.02-.28.14-.28.29-.14-.16-.25-.3-.37-.51-.07-.12-.14-.25-.2-.38,0,0,0-.02-.01-.03,0-.02-.02-.04-.03-.06-.03-.08-.06-.17-.09-.26-.04-.13-.07-.26-.1-.39,0-.03-.01-.06-.02-.09,0,0,0-.04-.01-.07,0-.03-.01-.09,0-.08,0-.05,0-.1-.01-.15-.02-.32-.02-.64.02-.96,0-.02.02-.14.02-.16.01-.08.03-.15.05-.23.04-.17.09-.34.14-.5.02-.07.05-.15.08-.22.02-.04.03-.08.05-.12,0,.02-.04.08,0-.02.07-.16.15-.32.23-.47.08-.14.16-.27.24-.4.05-.07.1-.14.15-.22.02-.03.04-.06.06-.08.02-.02.02-.02.02-.03,0,0,0,0,.02-.02.21-.26.43-.5.66-.73.12-.11.24-.22.37-.33.06-.05.12-.1.18-.15.02-.01.04-.03.05-.04,0,0,.07-.05.08-.06.27-.2.55-.39.84-.56.28-.17.57-.33.87-.48.15-.08.31-.15.46-.22.06-.03.12-.05.18-.08.02,0,.05-.02.06-.03.06-.02.12-.05.18-.07.33-.13.66-.24,1-.33.16-.04.32-.08.48-.11.08-.02.16-.03.24-.04.03,0,.07-.01.1-.01.01,0,.07,0,.09-.01.34-.04.69-.05,1.03-.02.08,0,.16.02.24.02,0,0,0,0,0,0,0,0,0,0,.02,0,.04,0,.07.01.11.02.18.03.35.07.53.13.08.02.15.05.23.08.03.01.07.03.1.04.06.02.05.02.02,0,.05.02.11.05.14.07.06.03.13.06.19.1.11.06.22.13.32.2.02.01.07.04.11.08,0,0,0,0,.03.02.03.03.07.05.1.08.2.17.39.37.57.57.03.04.16.23.06.07.03.05.08.1.11.15.08.12.16.24.23.36.06.11.13.22.18.34.03.06.05.12.08.18,0,0,0,0,0,0,.01.03.03.06.04.1.1.25.18.52.23.78.01.06.03.13.04.19,0,.03,0,.06.01.09,0,0,0,0,0-.01,0,0,0,.02,0,.02,0,0,0,0,0,0,0,.02,0,.03,0,.05,0,.12.03.23.03.35,0,.13,0,.26,0,.39,0,.13-.04.28-.03.41Z"/>
    <path class="cls-2" d="M69.2,14.68s0-.04,0-.06c0,0,0,0,0,0,0,.1,0,.1,0,.07Z"/>
    <path class="cls-2" d="M68.17,18.15s0,0,0-.01c.02-.03.06-.08,0,.01Z"/>
  </g>
  <g>
    <path class="cls-2" d="M25.82,23.5c-.68-1.14-2.16-1.58-3.4-1.2-.64.2-1.21.58-1.66,1.07-.46.5-.81,1.12-.96,1.79-.16.7-.11,1.48.28,2.1.36.57.95.95,1.6,1.11.66.16,1.36.11,2-.13.36-.13.69-.3,1.01-.51.15-.1.29-.2.43-.31.16-.12.32-.24.46-.38.06-.06.12-.12.18-.18.07-.07.1-.14.13-.23.01-.04.02-.07.03-.11.03-.1,0-.21-.07-.28s-.17-.09-.27-.07c.23-.26.4-.58.48-.92.14-.59.05-1.23-.26-1.75ZM23.56,27.34c-.24.1-.49.17-.74.21-.23.03-.46.03-.69,0-.19-.03-.38-.08-.57-.15-.14-.06-.26-.14-.39-.22-.1-.08-.18-.17-.26-.26-.08-.11-.14-.22-.2-.34-.06-.15-.1-.3-.12-.46-.02-.21-.02-.42,0-.63.04-.25.11-.49.2-.72.06-.13.13-.27.2-.39.04-.07.09-.14.13-.2.02-.03.04-.06.06-.08.01-.02.02-.03.04-.05,0,0,0,0,0,0,.1-.13.21-.25.33-.36.05-.05.11-.1.16-.15.03-.02.06-.05.09-.07,0,0,0,0,0,0,0,0,0,0,.01,0,0,0,0,0,0,0,0,0,0,0,0,0,.01-.01.03-.02.04-.03.13-.09.27-.18.41-.25.06-.03.13-.06.19-.09.02,0,.03-.01.05-.02.04-.01.08-.03.11-.04.15-.05.3-.09.46-.11,0,0,0,0-.02,0,.02,0,.04,0,.06,0,.04,0,.08,0,.12,0,.08,0,.15,0,.23,0,.07,0,.14,0,.21.01-.03,0,.02,0,.04,0h0s.01,0,.02,0c0,0,0,0-.01,0,.04,0,.09.01.13.02.15.03.3.07.44.13.01,0,.03.01.04.02.03.01.06.03.09.04.07.04.15.08.22.12.06.04.12.07.17.11.01,0,.03.02.04.03.03.02.06.05.08.07.06.05.11.1.16.16.03.03.05.06.08.09,0,0,.02.02.02.03,0,0,.02.02.02.03-.03-.04-.04-.05-.02-.02.09.12.16.24.22.38,0,.01.01.03.02.04.01.03.02.06.03.09.02.07.04.14.06.21,0,.03.01.07.02.1,0,0,0,.01,0,.02,0,0,0,0,0,0,0,.08.01.15.01.23,0,.08,0,.15,0,.23,0,.04,0,.08-.01.12,0,0,0,0,0,0,0,.02,0,.04,0,.05-.03.16-.07.31-.13.46,0,.02-.01.03-.02.05,0,0,0,.02-.01.03-.01.03-.03.06-.05.09-.04.07-.08.14-.13.21,0,.01-.02.03-.03.04.02-.03-.02.02-.02.02-.02.03-.05.06-.08.09-.06.06-.12.11-.18.17-.05.04-.05.12-.02.18-.42.31-.86.59-1.33.8Z"/>
    <path class="cls-2" d="M21.82,23.45s0,0,0,0c0,0,0,0,0,0,.07-.05.04-.03.01-.01Z"/>
    <path class="cls-2" d="M23.72,22.9s-.01,0-.02,0c0,0-.01,0-.02,0,0,0,.02,0,.04,0,0,0,0,0,0,0Z"/>
    <path class="cls-2" d="M23.09,22.9s0,0,0,0c.08,0,.03,0,0,0Z"/>
  </g>
  <path class="cls-2" d="M25.95,13.34s0-.02-.02-.03c0-.02-.02-.03-.03-.05-.04-.05-.08-.11-.13-.16,0,0-.01-.02-.02-.02-.01-.01-.03-.03-.04-.04-.05-.04-.11-.09-.16-.13,0,0-.02-.01-.03-.02-.02-.01-.04-.02-.05-.03-.06-.03-.13-.06-.19-.08-.01,0-.02,0-.03-.01,0,0-.02,0-.03,0-.07-.01-.16-.02-.21-.03-.08,0-.16,0-.24.02,0,0-.01,0-.02,0,0,0-.13.05-.19.08-.06.03-.11.08-.16.12,0,0-.01,0-.02.01-.04.05-.08.1-.12.16,0,0,0,.01-.01.02-.04.06-.06.13-.09.2,0,0,0,.01,0,.02-.01.07-.02.14-.03.21,0,.01,0,.03,0,.04,0,.07.02.14.03.2,0,0,0,.02,0,.02,0,0,0,.01,0,.02.04.11.09.24.19.32.05.04.1.08.15.11,0,0,.01,0,.02.01.06.03.12.05.18.08,0,0,.01,0,.02,0,.06.01.13.02.2.03,0,0,.01,0,.02,0,.05,0,.13,0,.19-.03,0,0,.02,0,.03-.01,0,0,0,0,.01,0,.06,0,.12.02.19.02.1,0,.19-.02.27-.06.06-.02.11-.05.15-.09.08-.05.14-.11.18-.2l.07-.17c.03-.12.03-.25,0-.37-.03-.06-.05-.13-.08-.19Z"/>
  <path class="cls-2" d="M29.57,20.06s-.04-.09-.06-.13c0,0,0,0-.01-.01,0-.01,0-.03,0-.04-.03-.1-.08-.19-.16-.27-.04-.03-.08-.06-.12-.09-.09-.05-.2-.08-.31-.08,0,0-.01,0-.02,0-.06,0-.12.01-.18.02,0,0-.01,0-.02,0-.05.02-.11.04-.16.07-.05.03-.1.07-.14.1,0,0,0,0-.01.01-.02.02-.08.1-.1.13,0,0,0,0,0,0,0,0,0,0,0,0-.03.05-.05.11-.07.17-.02.06-.02.12-.03.18,0,.03,0,.08.01.1,0,.02,0,.07.01.1.02.06.04.11.07.17,0,0,0,.01.01.02.03.05.07.1.11.14,0,0,0,0,.01.01.02.02.05.04.07.05.02.02.04.03.07.05,0,0,0,0,.01,0,.12.07.2.08.33.09,0,0,.02,0,.02,0,.06,0,.12-.01.18-.02.05,0,.13-.05.16-.06.04-.03.08-.06.12-.1,0,0,0,0,0,0,.01-.01.01-.03.02-.04.03-.04.07-.08.1-.12,0,0,0,0,0,0,0,0,0,0,0,0,0-.02.05-.12.06-.14,0,0,0-.01,0-.02,0-.05.01-.1.02-.15l-.02-.15Z"/>
  <g>
    <path class="cls-2" d="M8.04,14.6s0,0,0,0c0,0,0,0-.01,0-.02,0-.02.01.02,0Z"/>
    <path class="cls-2" d="M14.13,16.03c-.34-.64-1.05-.96-1.69-1.22-.67-.28-1.38-.49-2.09-.64-.38-.08-.75-.14-1.14-.18-.32-.03-.64-.07-.96-.05-.57.02-1.24.2-1.49.77-.16.36-.12.75.04,1.1.15.32.43.57.72.77.29.19.6.34.91.48.33.15.67.29,1.01.41.68.24,1.38.43,2.1.52.17.02.35.04.52.05.05,0,.09-.02.12-.06.51.11,1.1.11,1.55-.18.26-.17.46-.43.54-.73.09-.36.01-.73-.15-1.05ZM13.67,16.86s-.02.08-.03.11c0,.03-.04.09,0,.03-.01.03-.03.05-.04.08,0,0-.02.04-.03.06-.01.01-.02.03-.03.04-.02.02-.04.04-.06.06,0,0-.01,0-.02.01-.01.02-.13.08-.14.08-.01,0-.02.01-.03.02-.02,0-.04.01-.06.02-.06.02-.12.04-.18.05-.03,0-.05,0-.08.01-.01,0-.02,0-.04,0-.06,0-.13,0-.19,0-.06,0-.11,0-.17,0-.03,0-.05,0-.08,0,0,0,0,0,0,0-.02,0-.03,0-.05,0-.63-.11-1.2-.45-1.84-.48-.17,0-.34,0-.51.04-.08.02-.12.06-.15.12-.53-.19-1.03-.41-1.54-.68-.14-.07-.28-.15-.41-.23-.06-.04-.12-.08-.18-.12,0,0-.05-.04-.03-.02.02.02-.02-.02-.03-.02-.03-.03-.07-.06-.1-.08-.05-.05-.1-.1-.15-.15,0,0-.04-.05-.02-.03.02.03-.01-.02-.02-.03-.02-.03-.04-.07-.06-.1-.02-.03-.03-.06-.05-.1.02.05,0-.02-.01-.04-.01-.03-.02-.07-.03-.1,0-.02,0-.03-.01-.05,0,0,0-.01,0-.02,0-.07,0-.14,0-.2,0,.06,0,0,.01-.03,0-.02,0-.03.01-.05,0-.01,0-.02,0-.03.01-.02.02-.05.04-.07,0-.01.02-.02.02-.04,0,0,0,0,0,0,.02-.04.07-.08.1-.1,0,0,.02-.01.02-.02.02-.02.05-.03.07-.04.03-.01.05-.03.08-.04,0,0,0,0,0,0,0,0,.02,0,.02,0,.06-.02.11-.04.17-.05.05-.01.11-.02.16-.03,0,0,0,0,0,0h0s0,0,0,0c0,0,0,0,0,0,.01,0,.02,0,.04,0,.03,0,.06,0,.09,0,.07,0,.13,0,.2,0,.14,0,.28,0,.42.02.17.01.34.03.5.05.04,0,.08.01.13.02,0,0,0,0,0,0,.02,0,.03,0,.05,0,.09.01.18.03.27.04.67.11,1.34.28,1.98.51.16.06.32.12.47.18.04.02.08.03.12.05.02,0,.03.01.05.02,0,0,0,0,.02,0,.07.03.14.06.22.1.14.06.28.13.41.21.07.04.13.08.19.13,0,0,.01,0,.02.01,0,0,.02.01.03.02.03.02.06.05.08.08.06.05.1.11.15.16-.05-.05.02.02.03.04.02.03.04.06.06.09.02.03.03.06.05.09,0,0,0,0,0,0,0,.01.01.03.02.04.02.07.04.14.05.21,0,.01,0,.03,0,.04,0,.03,0,.07,0,.1,0,.02,0,.03,0,.05Z"/>
  </g>
  <g>
    <path class="cls-2" d="M24.08,40.62s.02,0,.02,0c0,0,0,0,0,0-.06-.02-.06,0-.03,0Z"/>
    <path class="cls-2" d="M27.21,33.68s0,0,0,0c0,0-.01,0-.02-.01,0,0,.01.01.02.01Z"/>
    <path class="cls-2" d="M28.86,34.54c-.34-.83-.92-1.53-1.74-1.91-.76-.35-1.66-.46-2.45-.14-.1.04-.21.09-.3.15-.1.07-.17.16-.25.25-.08.1-.12.23-.05.36.04.07.12.11.21.13-.54.34-1.07.71-1.53,1.15-.7.67-1.28,1.47-1.57,2.4-.28.91-.26,1.92.16,2.78.39.79,1.11,1.34,1.93,1.62.79.27,1.69.28,2.48.01.84-.29,1.59-.83,2.14-1.52.57-.72.99-1.56,1.17-2.47.18-.93.16-1.92-.2-2.8ZM28.25,36.68s0,.09-.02.14c0,0,0,0,0,0,0,.02,0,.04,0,.06-.02.11-.04.23-.07.34-.05.2-.11.4-.17.59-.02.05-.03.09-.05.14,0,.02-.02.07-.04.11,0,0,0,0,0,0-.01.03-.02.05-.04.08-.02.05-.04.09-.06.13-.09.19-.19.37-.3.54-.05.08-.1.15-.15.22-.03.04-.06.08-.09.12,0,0,0,0,0,0,0,0,0,0,0,0-.02.02-.04.05-.06.07-.12.15-.26.3-.4.43-.07.07-.14.13-.22.2-.03.02-.06.05-.09.08-.03.02-.05.04-.08.06-.16.12-.33.22-.51.31-.04.02-.08.04-.12.06-.02,0-.04.02-.06.03-.09.04-.18.07-.28.1-.16.05-.33.08-.49.11-.03,0-.06,0-.08.01-.05,0-.09,0-.14.01-.1,0-.19,0-.29,0-.09,0-.17,0-.26-.02-.02,0-.04,0-.06,0,0,0,0,0,.01,0,0,0-.01,0-.02,0h-.02s0,0,0,0c-.04,0-.08-.01-.12-.02-.18-.03-.35-.08-.52-.14-.04-.01-.08-.03-.12-.05-.02,0-.03-.01-.05-.02-.08-.04-.16-.08-.24-.12-.08-.04-.15-.09-.23-.14-.04-.03-.07-.05-.11-.08,0,0,0,0,0,0-.02-.01-.03-.03-.05-.04-.14-.11-.26-.24-.37-.38-.01-.02-.03-.04-.04-.05-.02-.03-.05-.07-.07-.1-.06-.09-.11-.18-.15-.28-.01-.02-.02-.05-.03-.07,0,0,0,0,0,0-.02-.05-.04-.09-.05-.14-.03-.1-.06-.19-.08-.29-.01-.05-.02-.1-.03-.15,0-.02-.01-.05-.01-.08-.01-.11-.02-.22-.02-.33,0-.09,0-.19,0-.28,0-.05,0-.1.01-.15,0-.03,0-.06.01-.09-.02.07,0,.02,0-.02,0-.03,0-.07.01-.1,0,.01,0,.03,0,.04,0-.03.01-.07.02-.09,0-.05.02-.1.03-.15.02-.1.05-.2.08-.31.03-.1.06-.2.1-.3.02-.05.04-.09.05-.14,0,0,0,0,0,0,.02-.03.03-.07.05-.1.09-.2.2-.38.31-.57.06-.09.12-.17.18-.26.03-.04.06-.08.09-.12-.04.05.03-.04.03-.04.02-.03.04-.05.06-.08.58-.7,1.28-1.27,1.97-1.84.16-.14.33-.27.49-.4,0,0,0,0,0,0,0,0,0,0,0,0,.02,0,.04,0,.05,0,.17-.02.35-.01.53,0,0,0,.01,0,.03,0,.01,0,.02,0,.02,0,.04,0,.09.02.13.02.09.02.17.04.26.06.09.02.17.05.26.09,0,0,.02,0,.03,0,.02,0,0,0,0,0,0,0,.02,0,.02.01.05.02.1.05.15.07.07.04.14.08.21.12.04.02.08.05.11.07,0,0,.06.05.1.07,0,0-.01-.01,0,0,0,0,0,0,.01.01,0,0,0,0,0,0,0,0,0,0,0,0,.02.01.03.03.05.04.03.03.07.06.1.09.07.06.13.13.19.19.03.03.06.07.08.1.01.02.03.03.04.05.06.09.12.18.17.27.05.08.09.17.13.26,0,.02.02.05.03.07.02.06.04.11.06.17.07.19.12.39.15.59,0,.04.02.09.02.13,0,.03,0,.06,0,.09.01.1.02.21.02.31,0,.21,0,.43-.02.64Z"/>
  </g>
  <path class="cls-2" d="M62.78,35.72h0s0,0,0,0c0,0,0,0,0,0,0,0,0,0,0,0,0,0,0,0,0,0,0,0,0,0,0,0,0,0,0,0,0,0,0-.02-.01-.04-.02-.06-.02-.06-.05-.11-.1-.16,0,0,0,0,0,0-.03-.03-.07-.05-.1-.08,0,0,0,0,0,0-.02-.01-.04-.02-.06-.03,0,0,0,0-.01,0,0,0,0,0,0,0,0,0,0,0,0,0-.04-.02-.09-.04-.13-.05-.01,0-.02,0-.03-.01,0,0-.01,0-.02,0-.03-.01-.05,0-.09-.01-.05-.01-.1-.01-.15,0-.03,0-.05,0-.08.01,0,0,0,0,0,0,0,0-.01,0-.02,0-.04.02-.09.04-.13.06-.06.03-.12.08-.16.14-.03.03-.06.08-.07.12-.03.07-.05.14-.05.21,0,.05.01.1.02.15.02.04.04.09.06.13.03.06.08.12.14.16.05.05.12.08.19.1.11.04.24.04.35,0,.06-.02.13-.04.18-.07.02,0,.03-.02.04-.03.05-.03.09-.06.14-.1.05-.04.08-.1.1-.16.03-.06.04-.12.04-.19,0-.04-.01-.08-.02-.12Z"/>
  <g>
    <path class="cls-2" d="M83.82,26.47s0,0,0,0c-.02-.02-.03-.01,0,0Z"/>
    <path class="cls-2" d="M78.3,30.8s0,0,0,0c0,0,0,0,0,0,.02,0,.02,0-.01,0Z"/>
    <path class="cls-2" d="M84.64,26.38c-.36-.63-1.09-.86-1.78-.77-.72.09-1.38.4-2.02.74-.69.37-1.34.8-1.95,1.29-.29.23-.58.48-.85.74-.27.27-.54.56-.71.91-.18.37-.25.76-.18,1.16.06.39.3.73.64.93.31.18.69.25,1.04.2.1-.01.18-.05.28-.07.22-.03.45-.06.68-.1.36-.06.72-.18,1.06-.3.7-.25,1.38-.61,1.99-1.03.63-.43,1.25-.93,1.65-1.58.38-.63.5-1.46.12-2.12ZM84.16,27.37s0,.04,0,.06c0,0,0,0,0,.01,0-.01,0,.03,0,.03,0,.02,0,.04-.01.06-.01.07-.03.14-.06.21,0,.02-.01.03-.02.05,0,0,0,.01,0,.02,0,0-.01.02-.01.03-.01.03-.02.05-.04.08-.04.07-.07.14-.12.21-.02.03-.04.06-.06.09-.01.02-.03.04-.04.06,0,0,0,0,0,0-.1.13-.22.25-.34.37-.12.12-.25.23-.38.34-.06.05-.13.1-.19.15-.03.03-.07.05-.1.08-.01,0-.02.02-.03.03,0,0-.02.01-.03.02-.54.41-1.13.77-1.75,1.06-.16.07-.31.15-.47.22,0,0-.02,0-.02.01,0-.04,0-.08-.03-.11-.08-.1-.19-.11-.3-.06-.15.07-.34.14-.5.22-.08.04-.15.07-.23.11,0,0,0,0,0,0,0,0,0,0-.01,0-.02,0-.04.01-.06.02-.05.02-.09.03-.14.05-.08.03-.16.05-.24.07-.01,0-.04.01-.07.02,0,0,0,0-.02,0-.02,0-.05,0-.07,0-.07,0-.13,0-.2,0-.02,0-.03,0-.05,0-.04,0-.08-.01-.11-.02-.04,0-.07-.02-.11-.03,0,0-.01,0-.02,0,0,0,0,0,0,0h0s-.01,0-.02,0c0,0,0,0,.01,0-.03-.01-.06-.03-.09-.05-.01,0-.03-.02-.04-.03,0,0-.02-.01-.02-.02,0,0-.01,0-.02-.01-.01-.01-.02-.02-.04-.03-.02-.02-.04-.04-.06-.07,0,0,0,0,0,0,0-.01-.02-.03-.03-.04-.02-.04-.04-.07-.06-.11,0-.01,0,0,0,0,0-.01,0-.03-.01-.03-.01-.04-.02-.07-.03-.11,0-.03,0-.13,0-.02,0-.04,0-.08,0-.13,0-.03,0-.07,0-.1,0-.02,0-.04,0-.06,0,0,0,0,0,0,0,.02,0-.02,0-.03,0-.02,0-.03.01-.05,0-.04.02-.08.03-.12,0-.03.02-.06.03-.1,0,0,0,0,0,0,0-.02.02-.03.02-.05.04-.08.08-.16.13-.23.02-.03.04-.06.06-.09.01-.02.02-.03.03-.05.05-.07.11-.14.17-.2.23-.25.49-.49.75-.72.13-.12.27-.23.41-.34.03-.02.06-.05.09-.07-.06.05.05-.04.06-.05.08-.06.15-.11.23-.17.29-.21.58-.4.88-.58.3-.18.61-.35.93-.5.07-.04.14-.07.22-.1.02,0,.1-.06.04-.02.03-.02.08-.03.12-.05.14-.05.29-.1.44-.13.07-.02.14-.03.21-.04,0,0,.05,0,.07-.01.01,0,.03,0,.03,0,.02,0,.04,0,.06,0,.07,0,.14,0,.21,0,.04,0,.07,0,.11,0,.02,0,.03,0,.05,0,0,0,.03,0,.04,0,0,0,0,0,0,0,.02,0,.04,0,.06.01.03,0,.06.01.09.02.03,0,.06.02.09.03.02,0,.03.01.05.02.06.03.12.06.18.1.01,0,.03.02.04.03,0,0,0,0-.01,0,.03.03.06.05.08.08.01.01.02.02.03.04,0,0,.01.01.02.02-.02-.02,0,0,.01.02.01.02.02.03.03.05.02.03.03.06.05.08,0,.01.01.03.02.04,0,0,0,0,0,0h0c.02.07.04.13.06.2,0,.01.01.04.02.07,0,0,0,0,0,.02,0,.02,0,.05,0,.07,0,.07,0,.13,0,.2Z"/>
  </g>
  <path class="cls-2" d="M88.49,26.18c-.38-.86-.99-1.61-1.77-2.14-.78-.53-1.71-.77-2.64-.84-1.84-.13-3.68.44-5.37,1.11-1.78.71-3.51,1.63-4.89,2.99-.66.65-1.24,1.4-1.64,2.23-.41.84-.67,1.73-.77,2.66-.2,1.78.35,3.63,1.67,4.88,1.32,1.25,3.15,1.79,4.93,1.9.2.01.41.02.61.02.11,0,.22,0,.33-.01.05,0,.09,0,.14-.01.03,0,.06,0,.09,0,0,0,.22-.01.09,0,.2,0,.39-.13.46-.32.36,0,.71-.01,1.06-.05.14-.02.27-.03.41-.05-.13.02.1-.01.1-.01.02,0,.05,0,.07-.01.07-.01.13-.02.2-.04.22-.04.44-.09.66-.15.48-.13.94-.31,1.4-.51.84-.38,1.62-.89,2.31-1.51,1.36-1.21,2.35-2.85,2.84-4.6.51-1.8.48-3.79-.27-5.51ZM87.82,29.75c0,.1-.02.21-.03.31,0,.05-.01.09-.02.14,0,.01,0,.03,0,.04,0,0,0,0,0,0-.07.41-.15.83-.26,1.23-.06.2-.12.39-.19.59-.03.1-.07.19-.11.29,0,0-.01.03-.02.06,0,.01-.02.05-.02.06-.01.03-.03.06-.04.09-.17.38-.37.76-.59,1.11-.11.18-.22.35-.34.51-.03.04-.06.08-.08.12,0,.01-.04.05-.06.08-.01.02-.05.06-.06.08-.03.04-.07.09-.11.13-.27.32-.55.63-.86.92-.15.14-.31.28-.47.4-.02.02-.08.06-.08.07-.03.02-.05.04-.08.06-.09.07-.18.13-.27.19-.36.25-.74.46-1.14.65-.09.04-.18.08-.27.12,0,0,0,0,0,0-.02,0-.05.02-.07.03-.05.02-.11.04-.16.06-.2.08-.41.15-.61.21-.42.13-.85.22-1.29.3-.05,0-.1.02-.15.02-.03,0-.05,0-.08.01,0,0,0,0,0,0-.11.01-.22.03-.32.03-.22.02-.45.03-.67.04-.87.02-1.7-.07-2.54-.26-.42-.09-.83-.21-1.24-.34-.1-.03-.16.03-.18.11-.04-.02-.07-.03-.11-.05-.18-.08-.35-.18-.52-.28-.17-.1-.33-.21-.49-.32,0,0-.03-.02-.04-.03,0,0,0,0,0,0-.03-.03-.07-.06-.1-.09-.08-.07-.16-.14-.23-.21-.14-.14-.28-.28-.4-.44-.01-.01-.02-.03-.04-.05,0,0,0,0,0,0-.03-.04-.05-.07-.08-.11-.06-.09-.12-.18-.17-.27-.1-.17-.19-.34-.27-.52,0,0,0-.02-.01-.02,0,0,0,0,0,0-.02-.05-.04-.1-.06-.15-.03-.09-.06-.18-.09-.28-.06-.19-.11-.39-.14-.59,0-.04-.01-.09-.02-.13,0-.01,0-.01,0-.02,0,0,0,0,0,0-.01-.11-.02-.21-.03-.32-.03-.41,0-.81.04-1.21,0-.01,0-.02,0-.03,0-.05.02-.11.03-.16.02-.1.04-.2.06-.3.05-.21.1-.41.16-.61.06-.19.13-.37.2-.56,0-.01.01-.03.02-.05.02-.05.04-.1.07-.15.04-.09.09-.18.13-.27.1-.19.2-.37.31-.54.05-.08.1-.16.15-.23.03-.04.06-.09.09-.13.01-.02.03-.04.04-.06,0,0,.02-.03.03-.04,0,0,.01-.01.01-.02.02-.03.04-.05.06-.08.03-.04.06-.08.1-.12.07-.09.15-.18.23-.26.15-.16.3-.31.45-.46.16-.15.32-.29.48-.43.08-.07.17-.14.25-.2,0,0,0,0,0,0,.01,0,.02-.02.04-.03.05-.04.11-.08.16-.12.71-.52,1.48-.96,2.28-1.33.21-.1.42-.19.62-.28,0,0,0,0,0,0,.01,0,.03-.01.04-.02.05-.02.09-.04.14-.06.11-.04.22-.09.33-.13.41-.16.83-.31,1.25-.45.4-.13.81-.25,1.22-.34.22-.05.43-.09.65-.13.1-.02.22-.06.32-.05,0,0-.11.01-.04,0,.02,0,.05,0,.07,0,.06,0,.11-.01.17-.02.42-.04.85-.06,1.27-.03.1,0,.2.02.3.03,0,0,.01,0,.02,0,.05,0,.11.02.16.03.2.04.41.09.6.15.09.03.17.06.26.09.02,0,.04.02.07.03.03.02.11.05.12.06.19.09.37.19.54.31.04.03.08.05.12.08.01,0,0,0,.01,0,0,0,0,0,.01,0,.09.07.17.14.25.22.07.06.13.13.2.2.04.04.07.08.11.12.02.02.03.04.04.05.01.01,0,0,.01,0,.06.06.11.16.15.22.06.09.12.19.17.28.05.08.09.17.13.25.02.05.05.1.07.15,0,.02.01.03.02.05.15.4.27.8.35,1.21,0,.03.03.27.05.28,0,.02,0,.03,0,.05,0,.06.01.11.02.17.02.21.03.41.03.62,0,.21,0,.43-.02.64Z"/>
  <path class="cls-2" d="M97.72,41.14c0-.07-.02-.13-.03-.2,0-.02,0-.04-.01-.06-.02-.08-.06-.16-.09-.24,0-.02-.02-.03-.03-.05,0,0,0-.01-.01-.02-.03-.05-.07-.09-.11-.14-.01-.01-.03-.03-.04-.04-.05-.04-.09-.07-.14-.11,0,0-.01,0-.02-.01-.05-.03-.11-.05-.16-.07,0,0-.01,0-.02,0-.07-.02-.14-.02-.21-.03-.02,0-.03,0-.05,0-.06,0-.12.01-.18.03,0,0-.02,0-.02,0,0,0-.02,0-.02,0-.06.02-.11.05-.17.07-.01,0-.03.01-.04.02-.06.04-.11.08-.16.13-.01,0-.02.02-.03.03-.04.05-.08.1-.12.15,0,0,0,.01-.01.02,0,0,0,.01-.01.02-.02.04-.05.12-.07.16,0,0,0,0,0,0,0,0,0,0,0,.01-.02.06-.03.18-.03.2,0,0,0,.01,0,.02,0,.11.03.29.1.38.04.08.1.14.17.19.07.06.14.1.23.12.06,0,.12.02.18.02.09,0,.18-.02.26-.06.05-.02.1-.04.14-.08.02.02.04.03.06.05.03.01.06.02.08.04.05.01.09.02.14,0,.03,0,.06,0,.09-.02.03,0,.05-.02.08-.04.03-.02.05-.04.06-.06.03-.03.05-.07.06-.12,0,0,0-.01,0-.02.02-.02.04-.03.05-.05.05-.08.07-.17.07-.26Z"/>
</svg>