<?xml version="1.0" encoding="UTF-8"?>
<svg xmlns="http://www.w3.org/2000/svg" viewBox="0 0 691.2 281.76">
  <defs>
    <style>
      .cls-1 {
        fill: #7ce0d4;
      }

      .cls-2 {
        fill: #3b332d;
      }

      .cls-3 {
        fill: #f72585;
      }
    </style>
  </defs>
  <g id="Layer_6" data-name="Layer 6">
    <g>
      <path class="cls-1" d="M21.91,141.22s-.03,0-.05,0c-.01,0-.03,0-.05,0,.06.02.11,0,.1-.01Z"/>
      <path class="cls-1" d="M30,143.94c-.03-2.27-.11-4.61-.66-6.82-.56-2.24-1.76-4.31-3.78-5.52-1.87-1.12-4.26-1.26-6.1,0-1.7,1.15-2.66,3.01-3.35,4.88-.8,2.18-1.38,4.46-1.93,6.71-.91,3.72-1.6,7.5-2.09,11.3-.17,1.21-.32,2.43-.43,3.66-.11,1.22-.19,2.45-.24,3.68-.07,1.25-.11,2.5-.14,3.75-.02,1.24-.03,2.48,0,3.72.03,1.13.14,2.31.52,3.39.23,1.94.63,4.09,2.4,5.22.93.6,2.18.72,3.22.33,1.07-.4,1.98-1.13,2.72-1.99.74-.86,1.33-1.82,1.91-2.79.14-.24.26-.49.4-.73.14-.1.27-.22.36-.38,2.7-4.66,4.67-9.77,5.83-15.03.59-2.68.98-5.42,1.17-8.16.01-.19.02-.38.03-.57.11-1.55.19-3.11.16-4.66ZM20.98,135.1s.07-.06.12-.09c.08-.05.16-.1.24-.15.08-.05.16-.09.25-.13.04-.02.15-.05.07-.03,0,0,.02,0,.02,0,.09-.03.17-.05.26-.08.05-.01.1-.02.15-.03,0,0,0,0,.01,0,.08,0,.18,0,.19,0,.04,0,.08,0,.12,0,.03,0,.26.05.09,0-.17-.04.13.03.18.05.03,0,.12.03.2.05,0,0,0,0,.02.01.03.02.07.03.1.05.1.05.19.13.29.18,0,0,0,0,0,0,.01.01.02.02.03.03.07.06.13.12.19.18.06.06.12.13.18.2.02.02.02.03.03.04.02.03.03.06.05.08.1.15.19.32.28.48.04.08.08.17.12.26-.11-.22.01.03.04.12.15.4.26.8.35,1.22.04.19.08.39.11.58.01.09.03.18.04.27,0,.06.01.12.02.17.07.64.11,1.29.17,1.94-.09-.14-.19-.27-.3-.4-.01-.12-.02-.23-.04-.35-.14-1.07-.19-2.29-.8-3.23-.74-1.13-2.12-1.52-3.32-.9.17-.18.35-.35.53-.52ZM27.15,141.25c.05.28.1.57.14.86,0,.07.02.13.03.2,0,.02,0,.02,0,.04.02.17.04.34.06.51.06.58.1,1.16.13,1.75.05,1.23.03,2.45-.03,3.68-.06,1.3-.18,2.6-.34,3.9,0,.05-.01.09-.02.14,0,.02-.02.12-.02.15-.02.15-.04.3-.06.44-.01.1-.03.19-.05.29-.02.13-.04.25-.06.38.4-4.13.48-8.28.2-12.42,0,.03.01.05.02.08ZM21.01,138.26s.08-.11.13-.16c.08-.09.17-.18.26-.26.01-.01.05-.04.08-.06.04-.02.08-.05.12-.07.02,0,.03,0,.05-.01,0,0,.01,0,.02,0,0,0,0,0,.01,0,.01.01.03.03.04.05.01.03.03.05.05.08.02.03.04.07.05.1,0,.07.09.25.1.3.03.1.05.19.07.29.02.1.04.21.05.32-.55,0-1.1.16-1.6.41.08-.16.15-.32.23-.47.1-.18.22-.35.33-.52ZM23,166.41c-.03.08-.06.16-.1.23.11-.43.24-.86.34-1.29.24-1.01.44-2.03.63-3.06-.03.2-.06.4-.09.6-.19,1.07-.41,2.12-.65,3.17-.04.11-.08.23-.13.34ZM21.64,153.36c-.01-.11-.03-.23-.04-.34-.07-.87-.04-1.74.03-2.61.03-.43.08-.87.13-1.3.02-.17.04-.34.06-.51,0-.03.02-.17.03-.2.02-.13.04-.27.07-.4.04-.2.09-.4.15-.59.02-.08.05-.15.08-.23,0-.02.02-.03.02-.04.05-.09.09-.18.14-.26l.05-.09c.04-.06.06-.08.05-.08.03-.03.07-.06.09-.09.03-.03.07-.07.11-.1.04-.02.08-.05.12-.07.06,1.57.08,3.14.03,4.72-.05,1.51-.16,3.02-.3,4.52,0,0,0,0,0-.01-.11-.16-.21-.33-.3-.51-.03-.07-.06-.13-.09-.2,0-.03-.07-.17-.07-.19-.07-.2-.14-.4-.19-.61-.05-.21-.1-.41-.14-.62,0-.02-.02-.14-.03-.19ZM18.87,164.39c-.09-.46-.17-.92-.24-1.38-.04-.23-.07-.46-.1-.69,0-.03,0-.05-.01-.07,0-.02,0-.04,0-.07-.02-.15-.04-.31-.06-.46-.11-.93-.19-1.86-.24-2.79-.11-1.91-.09-3.82.04-5.72.14-2,.34-3.48.75-5.47.19-.95.42-1.9.67-2.84.11-.41.22-.82.35-1.22.05-.16.11-.32.17-.48,0-.01.07-.15.07-.16.02-.05.05-.1.05-.11.15-.31.32-.61.51-.9,0-.01.02-.03.03-.05.04-.06.1-.12.14-.17.03-.03.2-.22.31-.32,0,0,.02,0,.1-.06.06-.04.13-.08.19-.12,0,0,0,0,.01,0,.05-.01.17-.06.19-.06,0,0,0,0,.01,0-.01,0-.02,0-.03,0,.01,0,.05,0,.09,0,.03,0,.04,0,.05,0,.04,0,.08-.01.1-.01.01,0,.1,0,.17.01.03,0,.06.01.09.02,0,0,.03.01.05.02,0,0,.02,0,.06.02,0,0,0,0,0,0,.01,0,.02,0,.02,0,0,0,0,0,.02,0,0,0,0,0,0,0-.02,0-.03,0-.05,0,.1.89.19,1.78.25,2.67-.76.15-1.49.58-1.97,1.16-.68.82-1,1.81-1.14,2.85-.14,1.01-.25,2.02-.31,3.04-.11,1.95.05,4.12,1.15,5.8.41.63.93,1.17,1.52,1.62,0,.03-.02.07-.03.1-.25.82-.53,1.64-.83,2.45-.15.4-.31.81-.47,1.21-.04.1-.08.2-.12.3,0,.01-.05.12-.07.17-.09.21-.18.43-.28.64-.3.68-.63,1.35-.97,2.01-.09-.3-.17-.6-.23-.91ZM13.69,164.45c.04-1.45.13-2.9.24-4.35.1,1.58.28,3.17.56,4.74.37,2.11.91,4.2,1.62,6.23.35,1.01,1.6,1.16,2.2.29.54-.79,1.05-1.59,1.54-2.42-.22.73-.44,1.46-.72,2.16-.02.04-.08.18-.09.21-.03.06-.06.13-.07.15-.1.21-.2.42-.31.63-.1.18-.2.35-.31.52-.05.08-.11.17-.17.25-.03.04-.06.08-.08.11,0,0,0,0-.01.01-.13.14-.25.29-.39.42-.07.06-.14.13-.21.19-.01.01-.03.02-.05.04,0,0-.02,0-.02.01-.03.02-.23.15-.38.23,0,0,0,0-.03,0-.05.01-.1.03-.15.05-.1.03-.21.04-.3.08-.02,0-.04,0-.04,0-.1,0-.2,0-.3,0-.01,0-.05,0-.08,0,0,0,0,0-.01,0-.13-.03-.26-.06-.39-.1,0,0-.04-.01-.06-.02,0,0,0,0-.03-.02-.09-.05-.19-.1-.28-.15-.07-.04-.13-.08-.19-.13,0,0-.14-.11-.19-.16-.09-.08-.18-.17-.26-.27-.02-.03-.14-.17-.16-.19,0,0,0,0,0,0-.03-.05-.07-.1-.1-.16-.07-.1-.13-.21-.19-.32-.01-.02-.07-.14-.1-.2-.02-.04-.04-.11-.05-.13-.02-.05-.04-.1-.06-.16,0-.02,0-.04-.02-.06-.03-.32-.07-.63-.1-.95-.18-2-.26-4.01-.27-6.01,0-.18,0-.36,0-.54Z"/>
      <path class="cls-1" d="M22.37,141.3s0-.01,0-.02c-.02,0-.04-.01-.06-.02,0,0,.02.03.06.04Z"/>
    </g>
    <path class="cls-1" d="M30.18,151.07c-.04-.57-.11-1.14-.18-1.7-.07-.54-.36-.99-.94-1.07-.56-.08-1.01.26-1.19.78-.8,2.24-1.61,4.48-2.41,6.72.4-3.6.6-7.21.58-10.83,0-1.26-.05-2.53-.11-3.79-.03-.57-.48-1.12-1.09-1.09-.57.03-1.12.48-1.09,1.09.13,2.63.14,5.26.04,7.88-.29-2.24-.71-4.47-1.31-6.65-.12-.44-.57-.81-1.04-.79-.51.02-.85.33-1.04.79-.34.84-.64,1.69-.94,2.55-.09-.05-.19-.08-.31-.1-.45-.06-.99.22-1.08.71-.07.36-.14.73-.2,1.09-.01-1.41-.02-2.82-.03-4.24,0-.84-1.01-1.18-1.57-.77-.14-.1-.29-.19-.45-.21-.51-.07-.87.24-1.05.69-2,4.75-3.27,9.76-3.85,14.88-.28,2.51-.39,5.04-.3,7.56.04,1.27.14,2.54.27,3.81.11,1.05.26,2.1.53,3.12.5,1.9,1.39,3.78,2.98,4.99,1.81,1.38,4.24,1.24,6.12.07,2.01-1.25,3.45-3.29,4.69-5.26,1.26-2.01,2.3-4.17,3.1-6.41,1.59-4.39,2.26-9.17,1.9-13.83ZM15,160.15s.02-.11.02-.12c.01-.07.02-.14.03-.21.08-.52.18-1.04.3-1.56.15-.64.33-1.28.53-1.91,0,.28,0,.57,0,.85,0,.4.25.75.6.91-.05.47-.1.95-.14,1.42-.36.24-.68.53-.94.87-.21.27-.37.56-.52.86,0-.03,0-.06,0-.09.02-.25.05-.49.07-.74,0-.07.02-.14.03-.21,0,0,0-.03,0-.06ZM16.32,167.13s0,.09,0,.13c0,.15-.01.31-.03.46,0,.09-.02.17-.03.26,0,.02-.01.07-.02.11-.05.26-.1.52-.16.78-.01-.09-.02-.18-.03-.27-.02-.22-.03-.43-.04-.65,0-.1.01-.21.01-.31.09-.18.19-.35.29-.52ZM12.8,158.42c.17-2.24.47-4.31.94-6.51.05.42.43.77.83.82.15.02.3,0,.45-.06-.29.6-.54,1.22-.77,1.82-.41,1.05-.74,2.13-.99,3.24-.37,1.61-.57,3.27-.6,4.92,0-1.41.04-2.83.15-4.24ZM18.68,175.12s-.01,0-.03.01c-.07.03-.15.05-.22.08-.2.06-.4.11-.61.15-.02,0-.2.02-.25.03-.14,0-.28,0-.43,0-.05,0-.1,0-.16-.01-.08-.03-.18-.03-.27-.05-.1-.02-.2-.05-.3-.08-.05-.02-.1-.03-.14-.05,0,0,0,0,0,0-.17-.09-.34-.17-.51-.27-.07-.05-.14-.09-.21-.14-.05-.04-.09-.08-.14-.12-.14-.13-.28-.26-.4-.4-.06-.07-.12-.13-.18-.2,0-.01-.02-.02-.03-.03.02.03-.07-.1-.09-.13-.25-.35-.46-.72-.65-1.11-.05-.1-.09-.2-.14-.3,0,0,0,0,0-.01-.01-.03-.03-.07-.03-.08-.09-.22-.17-.44-.25-.67-.28-.85-.47-1.73-.6-2.61,0,0,0,0,0,0,0-.05-.01-.1-.02-.15-.02-.15-.04-.3-.05-.45-.03-.3-.07-.6-.09-.91-.06-.6-.1-1.21-.14-1.82-.02-.28-.02-.57-.04-.85.08,1.14.24,2.27.48,3.38.15.67.32,1.36.53,2.02.02.09.06.18.09.27.12.34.25.67.4.99.46.98,1.27,1.98,2.36,2.27.59.16,1.16.08,1.67-.16.26.03.51.03.77.02,0,.08-.01.17-.02.25-.02.31.14.59.36.79-.12.07-.23.15-.36.21-.1.05-.21.1-.32.15ZM27.84,157.7s0,0,0,.01c0,0,0,0,0,0-.01.07-.02.14-.03.21-.02.12-.04.24-.05.36-.05.29-.1.58-.15.87-.2,1.11-.47,2.2-.78,3.28-.31,1.06-.68,2.11-1.1,3.14-.03.06-.05.13-.08.19,0,.01-.02.04-.03.06-.04.1-.09.2-.13.3-.12.27-.24.54-.37.8-.24.5-.49,1-.75,1.48-.52.98-1.1,1.92-1.72,2.84-.16.23-.32.46-.48.68-.08.11-.16.22-.25.34-.03.04-.06.08-.09.12-.01.01,0,.01-.01.02,0,0,0,0-.01.01.1-.29.21-.58.31-.87.44-.81.71-1.75.94-2.63,1.66-4.63,3.31-9.25,4.97-13.88.01-.03.02-.06.03-.08-.02.36-.03.73-.06,1.09-.04.55-.1,1.1-.17,1.65Z"/>
  </g>
  <g id="Layer_5" data-name="Layer 5">
    <g>
      <path class="cls-3" d="M42.56,144.16c-.4-.09-.76.12-.89.51-.03.08-.08.17-.1.26,0,0,0,0,0,0-.02.04-.04.08-.05.12-.08.18-.16.36-.25.54-.17.34-.37.66-.58.97-.05.07-.1.15-.16.22-.03.03-.06.07-.08.11,0,0,0,0,0,0-.12.15-.25.3-.38.45-.26.28-.53.55-.81.8-.07.06-.14.12-.21.18-.05.04-.18.11-.21.17,0,0,0,0,0,0-.04.03-.07.06-.11.08-.09.06-.17.13-.26.19-.3.21-.62.4-.94.58-.16.09-.33.17-.49.25-.08.04-.17.08-.25.12-.04.02-.08.04-.13.06-.01,0-.02,0-.03.01,0,0,0,0,0,0-.36.14-.72.27-1.09.38-.41.12-.82.21-1.24.28-.11.02-.22.04-.33.05-.01,0,0,0-.01,0,0,0,0,0-.02,0-.06,0-.11.01-.17.02-.24.03-.48.05-.72.06-.46.03-.93.03-1.39,0-.22-.01-.45-.03-.67-.05-.09,0-.19-.02-.28-.03-.06,0-.11-.01-.17-.02-.03,0-.05,0-.08-.01,0,0,0,0,0,0-.93-.14-1.84-.35-2.74-.63-.45-.14-.89-.3-1.32-.47-.1-.04-.2-.08-.3-.12-.02,0-.04-.02-.05-.02-.05-.02-.1-.04-.15-.07-.22-.1-.44-.2-.66-.3-1.65-.8-3.21-1.79-4.68-2.88-.18-.13-.36-.27-.54-.4-.09-.07-.18-.14-.27-.2-.02-.01-.01,0-.02-.01,0,0,0,0-.02-.01-.06-.05-.12-.09-.18-.14-.37-.29-.73-.58-1.09-.87-.71-.58-1.42-1.17-2.11-1.77-2.83-2.45-5.54-5.04-8.11-7.77-1.28-1.35-2.53-2.73-3.76-4.14-.62-.71-1.23-1.43-1.84-2.13-.61-.7-1.2-1.45-1.88-2.09-.33-.31-.67-.59-1-.9-.15-.14-.38.04-.28.22.23.42.43.85.66,1.27.22.4.5.79.78,1.16.29.38.58.76.87,1.14.07.09.14.18.21.27.03.04.07.09.1.13.04.05.08.1.11.15.02.03.02.03,0,0-.03-.04-.02-.02.03.04.15.2.32.39.48.59,1.21,1.47,2.44,2.92,3.73,4.32,1.28,1.4,2.6,2.77,3.95,4.11,1.35,1.34,2.74,2.64,4.16,3.9,1.41,1.25,2.86,2.48,4.35,3.63,1.52,1.17,3.09,2.27,4.78,3.18,1.7.91,3.51,1.63,5.4,2.02,1.93.4,3.93.48,5.87.1,1.59-.31,3.13-.95,4.45-1.89,1.33-.95,2.48-2.17,3.22-3.64.19-.38.34-.77.48-1.17.12-.36-.14-.81-.51-.89Z"/>
      <path class="cls-3" d="M41.57,144.92s0,0,0,0c.03-.06.04-.17,0,0Z"/>
      <path class="cls-3" d="M40.44,146.87s0,0,0,0c.04-.05.08-.15,0,0Z"/>
    </g>
    <g>
      <path class="cls-3" d="M42.12,148.14s0,.01-.01.02c-.03.04-.05.06.01-.02Z"/>
      <path class="cls-3" d="M43.23,143.92c-.09.23-.17.46-.29.67-.04.06-.07.13-.1.19-.08.17.01-.03-.02.06-.01.03-.03.06-.04.09-.05.12-.11.24-.17.36-.24.46-.52.91-.83,1.33-.01.02-.03.04-.04.05,0,0,0,0-.01.01-.04.05-.08.1-.12.15-.08.1-.16.19-.25.29-.18.19-.36.39-.54.57-.19.19-.38.37-.58.54-.1.08-.2.16-.3.24,0,0,0,0,0,0-.02.01-.03.02-.05.04-.06.04-.12.09-.17.13-.44.32-.91.6-1.4.84-.13.07-.26.13-.39.19-.07.03-.13.06-.2.09-.03.01-.07.03-.1.04.16-.06-.01,0-.04.01-.27.11-.54.21-.82.3-.57.19-1.16.33-1.75.44-.14.03-.29.05-.43.07-.05,0-.27.04-.08.01-.08.01-.16.02-.25.03-.3.03-.6.06-.9.08-1.09.06-2.18.02-3.26-.12-.02,0-.04,0-.05,0-.06,0-.13-.02-.19-.03-.13-.02-.27-.04-.4-.07-.25-.04-.5-.09-.74-.15-.51-.11-1.02-.25-1.51-.4-.5-.16-.99-.33-1.48-.53-.04-.02-.09-.04-.13-.05,0,0,0,0,0,0,0,0,0,0,0,0-.01,0-.02-.01-.04-.02-.01,0-.01,0-.02,0-.01,0-.02,0-.03,0-.12-.05-.25-.11-.37-.16-.24-.11-.47-.22-.71-.34-.93-.47-1.82-1.01-2.66-1.61-.1-.07-.19-.14-.29-.21-.02-.01-.06-.04-.09-.06,0,0,0,0-.02-.02-.04-.03-.07-.06-.11-.09-.2-.16-.39-.32-.59-.48-.4-.34-.78-.69-1.16-1.06-.75-.73-1.4-1.54-2.1-2.31-.17-.18-.33-.37-.51-.55-.14-.14-.37-.17-.54-.07-.16.09-.27.32-.21.51.39,1.08,1.08,2.01,1.83,2.88.7.8,1.47,1.53,2.3,2.19,1.77,1.39,3.73,2.47,5.85,3.21,2.08.72,4.31,1.08,6.51,1.03,2.5-.06,5.12-.63,7.23-2.03.49-.32.95-.68,1.38-1.08.2-.18.39-.38.57-.58.11-.12.21-.24.31-.37.03-.04.07-.08.07-.09.02-.03.04-.05.06-.08.05-.06.09-.13.14-.19.31-.43.58-.89.8-1.37.23-.52.46-1.08.51-1.64.02-.24.06-.52.06-.78,0-.32-.43-.34-.53-.07Z"/>
      <path class="cls-3" d="M25.57,149.4s-.1-.05-.06-.03c.02,0,.04.02.05.02,0,0,0,0,0,0Z"/>
    </g>
    <g>
      <path class="cls-3" d="M47.12,133.05c-.1-2.59-.56-5.16-1.35-7.63-.87-2.69-2.08-5.27-3.49-7.71-1.41-2.43-3.03-4.73-4.75-6.96-1.76-2.27-3.59-4.49-5.49-6.64-1.89-2.14-3.89-4.2-6.1-6.03-.8-.66-1.63-1.27-2.47-1.86-.73-.85-1.52-1.66-2.39-2.38-1.37-1.15-2.87-2.14-4.48-2.92-1.61-.79-3.32-1.4-5.07-1.8-1.74-.4-3.53-.6-5.31-.59-1.78.01-3.56.26-5.29.69-.21.05-.42.11-.63.17-.36.1-.58.45-.53.81.05.37.36.64.73.64,1.38.03,2.76.1,4.13.23.34.03.68.07,1.02.11.16.02.32.04.48.06-.22-.02.08.01.12.02.09.01.18.03.27.04.67.1,1.35.21,2.01.34,2.47.48,4.91,1.18,7.25,2.11.63.33,1.26.67,1.87,1.04.6.36,1.18.74,1.76,1.14.28.2.56.4.84.6.14.1.29.21.43.31.06.05.13.1.19.14.04.03.07.05.11.08,0,0,0,0,0,0,0,0,0,0,0,0,0,0,0,0,0,0,0,0,.01.01,0,0,.16.13.31.21.53.21.09,0,.19-.02.28-.06.57.48,1.12.97,1.65,1.48.28.27.72.3,1.03.06.17.13.33.26.5.4.54.45,1.07.91,1.58,1.39,1.04.96,2.04,1.97,3.01,3,1.92,2.06,3.74,4.22,5.5,6.41.44.54.87,1.09,1.29,1.64.02.03.04.05.06.08.06.07.11.14.17.22.11.14.22.29.33.43.21.28.41.55.62.83.82,1.12,1.61,2.26,2.36,3.43.75,1.16,1.45,2.35,2.09,3.57.32.6.62,1.22.91,1.84.15.32.29.64.43.96.03.07.06.14.09.21.02.05.04.09.06.14.07.16.13.32.19.48.49,1.23.91,2.5,1.25,3.78.16.61.29,1.23.41,1.85.06.31.11.61.16.92.02.15.04.3.07.45,0,0,0-.01,0-.02,0,.03,0,.07.01.1.01.1.02.2.04.29.15,1.24.21,2.49.18,3.73-.01.63-.05,1.25-.11,1.88-.03.31-.06.61-.1.92,0,0,0,.01,0,.02,0,.02,0,.06-.01.08-.01.08-.02.16-.04.24-.02.16-.05.32-.08.48-.21,1.2-.52,2.39-.94,3.54-.1.28-.21.55-.32.83-.01.02-.03.06-.03.07-.03.06-.05.11-.07.17,0,.02-.01.04-.01.04-.01.02-.02.05-.03.07-.06.15-.13.29-.2.44-.06.14-.13.28-.2.41-.03.06-.06.12-.09.17-.03.05-.05.09-.07.14-.03.07-.03.08-.01.03-.01.03-.03.06-.04.09-.14.27-.28.54-.44.81-.3.52-.63,1.01-.99,1.49-.25.34.31.77.58.45.43-.51.81-1.02,1.18-1.54.17-.25.37-.5.51-.76,0-.02,0-.02.01-.02,0,0,.01-.01.03-.05.03-.05.06-.09.08-.13.04-.06.07-.12.11-.19.08-.15.17-.29.24-.44.6-1.11,1.07-2.3,1.43-3.51.37-1.23.62-2.49.78-3.77.02-.16.04-.32.06-.49,0-.06.01-.13.02-.19,0-.01,0-.17,0-.06,0,.16.02-.19.02-.23.02-.31.04-.62.05-.93.02-.64.02-1.28,0-1.92Z"/>
      <path class="cls-3" d="M45.56,130.83s0-.01,0-.02c.02.13,0,.05,0,.02Z"/>
    </g>
    <path class="cls-3" d="M43.23,119.52c-.03-.33-.09-.65-.17-.97-.14-.6-.32-1.18-.54-1.75-.46-1.19-1.05-2.33-1.72-3.41-1.36-2.19-3.08-4.15-4.79-6.07-1.75-1.96-3.57-3.85-5.48-5.65-1.91-1.81-3.89-3.53-5.94-5.17-1.06-.85-2.14-1.67-3.23-2.47-1.06-.78-2.13-1.55-3.26-2.22-.28-.16-.55-.33-.83-.49-.31-.18-.77-.08-.94.25-.19.36-.06.71.25.94.53.39,1.05.79,1.58,1.17.54.38,1.07.76,1.6,1.14.53.37,1.05.75,1.56,1.14.26.19.52.39.77.58.12.09.25.19.37.28.06.04.12.09.18.13,0,0,.09.07.09.07,0,0,.01,0,.02.01,2.05,1.59,4.05,3.26,5.97,5.01,1.93,1.75,3.8,3.57,5.59,5.46.89.94,1.77,1.9,2.62,2.88.41.46.8.93,1.19,1.41.2.24.39.48.58.73.02.03.06.08.08.1.04.06.09.11.13.17.03.04.05.07.08.11.02.03.1.12.11.14.02.02.04.05.03.05.03.04.05.07.08.11.75.99,1.43,2.02,2,3.12.28.55.51,1.05.71,1.59.22.57.39,1.16.56,1.75.04.14.08.28.12.42.04.15.11.29.16.44.1.26.43.2.46-.06.02-.16.05-.31.04-.47-.01-.15-.02-.31-.04-.46Z"/>
    <path class="cls-3" d="M1.38,124.06c-.02-1.26-.05-2.51-.07-3.77-.05-2.52-.13-5.05-.18-7.57-.05-2.51-.09-5.03-.1-7.54-.02-2.52-.03-5.05-.02-7.57,0-2.52.03-5.05.08-7.57,0-.15.01-.29,0-.44,0-.21-.06-.41-.11-.62-.15-.66-1.15-.63-1.31,0-.05.19-.11.38-.12.59,0,.16,0,.31,0,.47,0,.32,0,.64-.01.97,0,.63-.02,1.27-.02,1.9-.01,1.26-.02,2.51-.02,3.77,0,2.52,0,5.05.03,7.57.03,2.51.08,5.03.15,7.54.07,2.52.13,5.05.26,7.57.13,2.53.28,5.05.53,7.57.03.33.1.65.18.97.04.15.19.26.34.26.14,0,.32-.11.34-.26.05-.32.09-.64.09-.97,0-.32,0-.64,0-.96,0-.63-.01-1.27-.02-1.9Z"/>
    <path class="cls-3" d="M5.5,131.42c-.38-1.59-.86-3.16-1.42-4.69-.17-3.17-.37-6.34-.55-9.5-.18-3.19-.36-6.38-.54-9.57l-.15-2.68c-.03-.45-.05-.89-.08-1.34-.01-.23-.03-.46-.05-.69-.01-.13-.03-.26-.05-.39-.01-.09-.04-.25-.04-.29-.01-.26-.22-.52-.5-.5-.26.01-.52.22-.5.5.01.2-.01.4-.02.59,0,.21.01.42.02.62.02.41.04.81.07,1.22.04.79.09,1.58.13,2.37l.26,4.8c.18,3.19.35,6.38.53,9.57.04.68.07,1.37.11,2.05-.04-.08-.07-.17-.11-.26-.13-.26-.49-.35-.74-.24-.24.1-.45.42-.34.69.11.27.23.54.34.81-.23-.07-.47-.14-.7-.2-.26-.07-.46.21-.34.44.05.09.1.18.15.28-.08,0-.15.02-.23.06-.19.12-.31.36-.24.59.29.95.71,1.83,1.31,2.63.07.09.15.16.22.25.63,1.28,1.46,2.45,2.49,3.44.43.41,1.11,0,.98-.57Z"/>
    <path class="cls-3" d="M3.26,120.49c-.16-1.79-.31-3.57-.45-5.36-.09-2.14-.2-4.29-.35-6.42-.08-1.22-.18-2.43-.27-3.64-.13-2.69-.24-5.38-.31-8.07,0-.29-.01-.59-.02-.88.11-.1.18-.23.17-.39-.02-.41-.04-.83-.06-1.24,0-.34-.01-.68,0-1.02,0-.37.05-.73.04-1.1,0-.38-.01-.77,0-1.15,0-.16-.1-.25-.23-.28,0-.17-.02-.34-.03-.52-.02-.31-.26-.61-.6-.6-.33.01-.6.26-.6.6,0,.99-.02,1.99,0,2.98.01.97.03,1.95.04,2.92.04,1.97.09,3.93.16,5.9.04,1.11.1,2.22.16,3.33-.03,1.37-.03,2.74.01,4.11-.12.11-.2.27-.2.45-.02.64-.02,1.28-.03,1.91-.25.09-.42.32-.44.61-.15,3.02,0,6.05.45,9.04.08.51.18,1.02.27,1.54.06.48.12.95.2,1.43.06.35.51.58.83.47.24-.08.37-.24.44-.44.03,0,.07,0,.1,0,.3-.04.55-.3.54-.61-.01-1.02-.03-2.04-.05-3.06.15-.12.26-.3.24-.5Z"/>
    <polygon class="cls-3" points="18.26 97.58 18.26 97.58 18.26 97.57 18.25 97.57 18.26 97.58"/>
    <g>
      <path class="cls-3" d="M31.25,106.59s0,0,0,0c-.01-.03-.03-.06-.04-.09.01.03.03.07.04.1Z"/>
      <path class="cls-3" d="M31.27,106.62s0-.02-.01-.03c0,0,0,0,0,0,0,0,0,.02.01.02Z"/>
    </g>
    <path class="cls-3" d="M47.18,132.11c-.18-1.78-.5-3.54-1.01-5.26-.96-3.22-2.43-6.3-4.11-9.2-1.39-2.41-2.92-4.75-4.58-6.98-3.43-4.63-7.29-8.91-11.79-12.53-4.62-3.71-9.98-6.58-15.6-8.45-1.47-.49-2.92-.99-4.49-1-1.07,0-2.16.24-3.1.76-1.2.68-1.98,1.8-2.42,3.08-.32.91-.33,1.94-.36,2.91-.03.84-.03,1.68-.02,2.52.03,1.72.14,3.44.29,5.16.48,5.36,1.29,10.7,2.41,15.96-.11.53-.19,1.06-.26,1.6-.18,1.43-.05,2.84.17,4.26-.04-.27-.07-.53-.11-.8.15,1.76.76,3.42,1.48,5.01.53,1.17,1.22,2.26,2,3.28.55.72,1.13,1.41,1.74,2.07,1.28,2.34,2.9,4.51,4.85,6.33,2.34,2.18,5.04,3.94,7.81,5.51,2.87,1.63,5.83,3.24,8.98,4.28,1.68.55,3.46.89,5.23.94.91.02,1.92,0,2.8-.25,1.29-.36,2.27-1.26,2.68-2.47.5-.13.99-.33,1.44-.59,1.08-.63,1.82-1.51,2.56-2.49,1.01-1.34,1.73-2.87,2.31-4.44.59-1.6.88-3.26,1.07-4.95.16-1.42.16-2.86,0-4.28Z"/>
  </g>
  <g id="Layer_2" data-name="Layer 2">
    <path class="cls-2" d="M47.44,128.11c-.61-2.82-1.58-5.54-2.74-8.18-1.08-2.43-2.35-4.77-3.78-7.01-1.45-2.28-3.07-4.46-4.8-6.54-1.72-2.07-3.56-4.03-5.49-5.9-1.93-1.88-3.95-3.67-6.05-5.36-2.18-1.76-4.46-3.42-6.92-4.76-2.41-1.32-5-2.35-7.71-2.81-2.79-.47-5.65-.34-8.38.43-2.7.76-5.21,2.11-7.31,3.96-1.95,1.72-3.56,3.88-4.58,6.27-.25.59-.49,1.19-.68,1.8-.18.6-.33,1.2-.48,1.82-.06.24.08.5.32.57.24.06.51-.08.57-.32.07-.31.17-.62.27-.93.05-.15.1-.3.15-.45.02-.06.04-.12.07-.19,0,0,.03-.08.03-.09.02-.06.05-.12.08-.19.05-.14.11-.28.17-.41.04-.1.01-.03,0,0,.02-.04.03-.08.05-.11.04-.08.07-.17.11-.25.13-.28.26-.57.41-.84.29-.56.61-1.11.95-1.65.17-.27.35-.54.53-.8.09-.12.17-.24.26-.36.04-.06.09-.12.13-.18.02-.03.05-.07.08-.1,0,.01,0,.01-.01.02.01-.02.03-.04.04-.04.78-1,1.66-1.92,2.63-2.75.11-.1.23-.19.34-.28.06-.05.13-.1.19-.15.03-.02.05-.04.08-.06-.14.09,0,0,.02-.02.26-.2.53-.39.8-.57.57-.39,1.16-.74,1.77-1.06.3-.16.6-.3.9-.44.07-.03.14-.07.22-.1.04-.02.08-.04.12-.05,0,0,0,0,0,0,.16-.07.31-.13.47-.19.63-.25,1.28-.46,1.94-.63s1.32-.31,1.99-.41c.03,0,.07-.01.1-.02,0,0,.03,0,.06,0,.06,0,.12-.02.18-.02.18-.02.35-.04.53-.06.34-.03.69-.05,1.03-.06.68-.02,1.36,0,2.03.05.16.01.31.03.47.04.09,0,.17.02.26.03.03,0,.07,0,.1.01,0,0,.02,0,.04,0,.33.04.65.1.97.16,1.31.25,2.6.63,3.84,1.11.15.06.29.11.44.17.05.02.1.04.14.06,0,0,0,0,0,0,.07.03.14.06.22.09.31.14.62.28.93.43.61.29,1.21.61,1.8.94,1.19.67,2.34,1.41,3.45,2.2.55.39,1.09.79,1.63,1.2.04.03.08.06.13.1,0,0,0,0,0,0,.06.04.12.09.17.13.14.11.28.22.42.33.27.21.54.43.81.65,1.02.84,2.03,1.7,3.02,2.57,1.98,1.76,3.88,3.61,5.67,5.55.9.97,1.78,1.97,2.62,2.99.43.52.85,1.04,1.26,1.57.04.05.08.11.13.16,0,0,0,0,0,0,0,0,0,0,0,0,.03.03.05.07.08.1.1.14.21.27.31.41.2.26.39.52.58.78,1.55,2.13,2.97,4.35,4.22,6.67.62,1.16,1.2,2.34,1.73,3.55.06.14.12.28.18.42.03.07.06.14.09.21,0,0,0,0,0,0,0,0,0,0,0,0,.02.05.04.09.06.14.12.3.25.6.37.91.25.64.49,1.29.71,1.95.47,1.37.86,2.77,1.16,4.18.16.72.29,1.45.4,2.18.01.08.02.17.04.25,0,0,0,.02,0,.03,0,0,0,0,0-.01,0,.04,0,.07.01.11.02.19.05.37.07.56.04.36.07.71.1,1.07.1,1.44.1,2.88-.04,4.32-.02.17-.03.33-.05.5-.01.09-.02.18-.03.27,0,0,0,0,0,0,0,.06-.02.11-.02.17-.05.36-.11.72-.18,1.07-.14.71-.32,1.4-.53,2.09-.1.31-.2.62-.31.93-.05.13-.1.26-.15.38-.03.07-.06.14-.08.21-.01.03-.02.06-.03.08,0,0,0,0,0,0,0,0,0,0,0,0-.24.54-.5,1.08-.78,1.6-.28.51-.59,1-.92,1.48-.17.24-.34.48-.52.72-.02.02-.04.05-.05.07-.05.06-.09.12-.14.18-.1.12-.19.24-.29.35-.38.44-.77.86-1.19,1.26-.21.2-.42.39-.64.58-.11.09-.22.19-.33.28-.05.04-.11.09-.16.13-.03.02-.06.05-.09.07-.02.01-.14.11-.06.05.09-.07-.03.02-.04.03-.02.02-.05.04-.07.05-.06.05-.12.09-.18.13-.12.09-.24.18-.37.26-.23.16-.47.32-.72.46-.48.29-.98.56-1.5.8-.07.03-.14.06-.2.09-.03.01-.05.02-.08.04-.01,0-.15.07-.04.02.1-.05-.03.01-.04.02-.03.01-.05.02-.08.03-.08.03-.15.06-.23.09-.27.1-.54.2-.82.28-.54.17-1.09.3-1.64.4-.07.01-.15.02-.22.04-.03,0-.06,0-.09.01-.02,0-.16,0-.04,0,.11,0-.02,0-.04,0-.03,0-.06,0-.09.01-.08,0-.16.02-.24.03-.29.03-.58.05-.88.05-.65.02-1.3-.02-1.95-.1,0,0,0,0-.01,0-.04,0-.08-.01-.12-.02-.07-.01-.14-.02-.2-.03-.17-.03-.34-.06-.51-.09-.33-.07-.66-.14-.98-.23-.64-.17-1.28-.39-1.9-.64-.07-.03-.15-.06-.22-.09,0,0-.01,0-.02,0,0,0,0,0,0,0-.03-.01-.06-.03-.1-.04-.16-.07-.32-.14-.48-.21-.31-.14-.62-.3-.92-.45-.61-.31-1.2-.66-1.78-1.02-.58-.36-1.14-.73-1.69-1.12-.28-.2-.57-.4-.85-.61-.14-.1-.27-.2-.41-.3-.06-.04-.11-.09-.17-.13-.04-.03-.07-.05-.11-.08-.01-.01-.03-.02-.04-.03,0,0,0,0-.02-.01-1.11-.87-2.2-1.76-3.26-2.68-2.17-1.87-4.25-3.85-6.27-5.88-2.03-2.04-3.97-4.17-5.89-6.31-1.92-2.15-3.78-4.34-5.61-6.56-.88-1.06-1.74-2.13-2.58-3.23-.09-.12-.24-.18-.38-.1-.12.07-.19.26-.1.38,1.76,2.35,3.47,4.73,5.28,7.04.45.57.91,1.15,1.37,1.71.23.28.46.57.69.85.11.14.23.28.34.41.05.07.11.13.16.2.03.04.06.07.09.11.01.01.02.03.04.04-.04-.06-.02-.03.07.09.93,1.12,1.91,2.21,2.88,3.3,1.95,2.16,3.96,4.25,6.07,6.25,2.12,2,4.32,3.92,6.62,5.7,2.22,1.71,4.6,3.24,7.23,4.23,2.51.95,5.22,1.29,7.87.79,2.38-.45,4.57-1.58,6.46-3.08,1.88-1.49,3.45-3.4,4.59-5.51,1.32-2.44,2.04-5.15,2.3-7.9.28-2.96,0-5.96-.64-8.86Z"/>
    <g>
      <path class="cls-2" d="M31.68,149.15c.04-2.19-.05-4.38-.28-6.55-.11-1.11-.26-2.22-.45-3.32-.14-.83-.32-1.66-.56-2.47-.48-1.6-1.28-3.23-2.62-4.29-.75-.59-1.61-1-2.55-1.16-1.01-.17-2.03-.1-3.02.18-1.94.54-3.55,1.84-4.83,3.36-1.26,1.5-2.31,3.19-3.22,4.92-.91,1.73-1.68,3.55-2.32,5.4-.62,1.82-1.12,3.69-1.5,5.57-.39,1.95-.67,3.92-.85,5.9-.18,1.95-.26,3.9-.28,5.86-.01,1.96.05,3.92.18,5.87.14,2.14.34,4.33,1.27,6.3.78,1.66,2.14,3.1,3.9,3.7,1.87.63,3.86.13,5.53-.81,1.7-.96,3.11-2.35,4.35-3.84,1.23-1.47,2.3-3.06,3.2-4.75.9-1.69,1.61-3.48,2.13-5.33.52-1.83.83-3.7.95-5.59,0-.07,0-.14,0-.22.15-.72.29-1.44.4-2.17.34-2.17.52-4.37.56-6.57ZM25.48,170.97c-1.04,1.49-2.24,2.92-3.63,4.14-.18.15-.36.31-.54.45-.04.03-.08.07-.12.1,0,0-.07.06-.02.02-.02.02-.04.03-.06.05-.1.07-.2.15-.29.22-.38.27-.77.52-1.18.75-.21.11-.42.22-.64.32-.05.02-.09.04-.14.06-.02,0,0,0-.01,0-.02.01-.05.02-.07.03-.11.04-.22.09-.33.12-.42.15-.84.26-1.28.33-.03,0-.05,0-.1.01,0,0-.01,0-.02,0-.01,0-.02,0-.02,0-.02,0-.05,0-.07,0-.11.01-.22.02-.34.02-.23,0-.45,0-.68-.02-.05,0-.1-.01-.14-.02,0,0,0,0,0,0-.02,0-.05,0-.07-.01-.11-.02-.23-.04-.34-.07-.22-.05-.43-.11-.63-.19-.04-.01-.08-.03-.12-.05-.01,0-.05-.02-.07-.03-.1-.05-.2-.09-.29-.15-.18-.1-.36-.21-.53-.33-.04-.03-.09-.06-.13-.1-.01,0-.01,0-.02-.01,0,0,0,0-.01-.01-.09-.07-.18-.15-.27-.23-.16-.14-.31-.29-.45-.44-.07-.08-.14-.15-.2-.23-.03-.04-.06-.07-.09-.11,0,0-.01-.02-.02-.03-.01-.01-.03-.03-.03-.04-.13-.17-.25-.34-.36-.52-.11-.18-.22-.36-.32-.55-.05-.09-.09-.18-.14-.27-.02-.05-.05-.1-.07-.15,0-.02-.02-.04-.03-.06,0,0-.01-.03-.02-.05,0-.01-.04-.09-.04-.1-.03-.06-.05-.12-.07-.19-.05-.13-.09-.25-.13-.38-.08-.24-.15-.49-.22-.74-.13-.5-.23-1.01-.3-1.52,0-.06-.02-.11-.02-.17,0,0-.01-.08-.01-.1-.02-.14-.03-.29-.05-.43-.03-.26-.05-.52-.07-.78-.04-.5-.07-1-.1-1.5-.06-.95-.1-1.91-.12-2.86-.05-1.92-.03-3.84.07-5.76.05-.96.12-1.92.21-2.87.05-.47.1-.94.15-1.41.01-.11.03-.23.04-.34,0-.06.02-.12.02-.18,0-.03,0-.05.01-.08,0,0,0-.03,0-.05,0-.01,0-.02,0-.02v-.1c.02-.05.03-.1.04-.16.02-.12.03-.24.05-.36.28-1.88.66-3.74,1.15-5.58.25-.91.52-1.81.83-2.7.15-.44.31-.88.48-1.31.08-.22.17-.43.26-.65.04-.1.08-.21.13-.31.02-.04.07-.18.03-.07.03-.06.05-.13.08-.19.74-1.72,1.62-3.39,2.63-4.97.26-.4.52-.8.8-1.19.14-.19.27-.38.42-.57.02-.02.03-.04.05-.06,0,0,0-.01.01-.02.01-.02.03-.04.04-.05.02-.02.03-.04.05-.06.08-.1.15-.19.23-.28.3-.36.61-.71.95-1.04.17-.17.35-.33.53-.49.08-.07.17-.15.26-.22.04-.03.08-.06.12-.09.03-.02.06-.04.09-.07.37-.28.77-.53,1.18-.74.1-.05.2-.1.3-.15.03-.01.06-.03.09-.04,0,0,.01,0,.02-.01,0,0,.02,0,.02,0,.03-.01.06-.03.1-.04.22-.09.45-.16.69-.23.22-.06.45-.11.68-.15.05,0,.1-.02.15-.02,0,0,.04,0,.06,0,0,0,.01,0,.01,0,.12-.01.24-.02.36-.03.23-.01.46-.01.69,0,.11,0,.22.02.33.03.01,0,.03,0,.04,0,0,0,.02,0,.03,0,.06,0,.12.02.17.03.23.04.46.1.68.18.05.02.1.03.14.05.02,0,.1.04.12.05,0,0,.02,0,.02,0,.02.01.05.02.07.03.06.03.11.05.17.08.17.09.34.19.51.3.08.05.15.11.22.16.01.01.03.02.04.03.04.03.08.06.11.1.3.25.56.54.8.84,0,0,.01.02.02.03.03.04.06.08.09.12.06.08.12.17.17.25.11.17.21.34.3.51.1.18.19.35.27.53.04.09.08.18.12.27,0,0,0,.01,0,.02,0,0,0-.01-.01-.03,0,.01,0,.02.01.03,0,.01,0,.02,0,.02,0,0,0,0,0,0,.02.05.04.1.06.15.15.39.29.78.41,1.18.25.82.42,1.66.57,2.5.09.52.18,1.04.26,1.57.08.52.13.95.19,1.5.12,1.06.2,2.13.25,3.2.09,2.14.05,4.28-.13,6.41-.18,2.12-.49,4.15-.88,6.26-.19,1.02-.39,2.05-.67,3.05-.11.37.45.54.58.2-.36,1.36-.81,2.69-1.38,3.98-.75,1.7-1.65,3.33-2.72,4.86Z"/>
      <path class="cls-2" d="M28.93,136.09s0,0,0,0c0,.02.01.03.01.03,0,0,0-.02,0-.02Z"/>
    </g>
  </g>
</svg>