<?xml version="1.0" encoding="UTF-8"?>
<svg xmlns="http://www.w3.org/2000/svg" viewBox="0 0 691.2 281.76">
  <defs>
    <style>
      .cls-1 {
        fill: #7ce0d4;
      }

      .cls-2 {
        fill: #3b332d;
      }
    </style>
  </defs>
  <g id="Layer_6" data-name="Layer 6">
    <g>
      <path class="cls-1" d="M178.9,61.63c-.5-2.08-1.07-4.15-1.77-6.17-1.43-4.11-3.42-8.1-6.39-11.31-2.76-2.98-6.41-5.32-10.4-6.2-2-.44-4.02-.5-6.03-.17-.57.09-.95.76-.89,1.32-.85.61-1.55,1.41-2.01,2.35-.85,1.74-1,3.72-.79,5.62.22,1.99.77,3.92,1.41,5.81.68,2,1.5,3.96,2.44,5.86,1.44,2.9,3.21,5.65,5.22,8.19,1.04,1.69,2.17,3.32,3.39,4.89,1.28,1.64,2.66,3.37,4.51,4.41,1.45.81,3.16,1.03,4.69.47.92.1,1.87.04,2.74-.28.99-.36,1.87-.94,2.59-1.7,1.49-1.6,2.21-3.69,2.32-5.85.13-2.43-.46-4.87-1.02-7.22ZM174.77,58.66c.1.42.18.85.26,1.28.04.21.07.41.1.62.01.09.03.18.04.27,0,.04.01.08.02.12,0,0,0,.01,0,.03.21,1.72.27,3.46.15,5.2-.03.42-.07.84-.12,1.25,0,.05-.01.09-.02.14-.01.09-.03.19-.04.28-.03.22-.07.44-.11.67-.15.83-.34,1.65-.62,2.45-.06.18-.13.35-.2.53-.01.03-.03.06-.04.1-.05.11-.1.21-.15.32-.18.37-.39.74-.62,1.08-.05.08-.11.16-.17.24,0,0,0,0,0,0,0,0,0,0,0,0,0,0,0,0,0,0,0,.01-.02.03-.04.05-.01.02-.02.03-.04.05.01-.02.02-.02.03-.04,0,0,0,0,0,.01-.13.16-.27.31-.41.46-.13.13-.27.26-.42.38-.01,0-.02.02-.04.03,0,0,0,0-.02.01-.04.03-.08.05-.12.08-.18-.04-.37-.07-.55-.13-.23-.07-.46-.15-.69-.24-.03-.01-.04-.01-.05-.02,0,0-.02,0-.06-.03-.13-.06-.26-.12-.39-.18-.47-.24-.92-.51-1.35-.8-.21-.14-.42-.29-.62-.44-.05-.04-.32-.24-.14-.11-.11-.09-.23-.18-.34-.27-.39-.31-.76-.64-1.13-.97-1.45-1.29-2.82-2.68-4.09-4.15-.31-.36-.61-.72-.91-1.09-.15-.18-.3-.37-.44-.55-.04-.05-.08-.11-.13-.16,0,0-.01-.01-.02-.03-.02-.03-.06-.08-.07-.09-.04-.05-.08-.11-.12-.16-.16-.21-.3-.43-.46-.64-.9-1.58-1.72-3.21-2.45-4.87-.05-.11-.1-.23-.15-.34,0,0,0,0,0-.02-.02-.05-.04-.11-.07-.16-.1-.24-.2-.49-.3-.73-.19-.47-.37-.95-.54-1.43-.34-.94-.66-1.89-.94-2.85-.58-1.93-1.04-3.9-1.39-5.89-.09-.5-.17-1-.24-1.51-.02-.12-.04-.24-.05-.36,0-.05-.01-.1-.02-.16,0,0,0,0,0,0,0,0,0,0,0-.01-.02-.2-.05-.4-.06-.6-.03-.38-.05-.77-.04-1.15,0-.19,0-.39.02-.58,0-.1.01-.19.02-.29,0-.04,0-.08.01-.12,0,0,0,0,0-.01.07-.38.14-.75.26-1.11.03-.08.06-.16.09-.24.01-.02.02-.05.03-.07.08-.17.17-.33.27-.48.04-.06.21-.25.03-.05.05-.05.09-.11.14-.16.06-.06.12-.12.18-.18.03-.03.06-.05.09-.08.14-.08.3-.17.43-.26,0,0,0,0,0,0,.03-.01.07-.03.1-.04.13-.05.27-.08.41-.11.01,0,.05,0,.07,0,.04,0,.08,0,.11,0,.12,0,.24,0,.36,0,.06,0,.12,0,.19.02,0,0,0,0,0,0,.14.02.28.05.42.09.25.06.49.14.72.24.18.07.36.15.61.28.84.43,1.63.94,2.42,1.45.38.25.76.51,1.13.78.18.13.36.26.54.39.09.07.18.13.26.2.03.02.05.04.08.06,0,0,.07.06.1.08.71.56,1.4,1.14,2.07,1.75,2.74,2.49,4.93,5.18,6.86,8.28.84,1.34,1.57,2.73,2.23,4.14.05.2.1.4.15.6ZM177.48,69.32s-.01.1-.01.14c0,.03,0,.07,0,.07-.02.15-.05.3-.08.44-.09.43-.21.85-.37,1.26,0,.01-.01.04-.02.06,0,0-.01.01-.02.03-.05.1-.09.19-.14.29-.1.2-.21.4-.33.59-.08.13-.22.45-.36.52,0,0,.14-.17.05-.07-.03.03-.06.07-.09.1-.02.02-.04.05-.07.07.2-.41.37-.83.52-1.25.51-1.4.77-2.91.92-4.4.03.46.05.91.04,1.37,0,.26-.02.52-.05.77Z"/>
      <path class="cls-1" d="M173.2,73.26s.02-.03.04-.05c0,0,0,0,0,0,0,0,0,0,0,0,0,0,0,.01-.05.06,0,0,0,0,0-.01Z"/>
    </g>
    <g>
      <path class="cls-1" d="M161.72,49.9s.01-.02.02-.02c0,0-.01.01-.02.02Z"/>
      <path class="cls-1" d="M161.34,50.28s0,0,.02-.02c-.04.01-.08.04-.1.06.03-.02.05-.03.08-.04Z"/>
      <path class="cls-1" d="M176.09,57.04c-.55-1.27-1.24-2.47-2.06-3.58-.25-.34-.64-.59-1.05-.61-.92-2.35-2.38-4.48-4.29-6.16-.1-.09-.2-.16-.3-.24-1.66-2.1-3.53-4.04-5.59-5.74-1.97-1.64-4.52-3.4-7.16-2.21-1.93.87-2.59,3.06-2.59,5.02,0,2.25.72,4.47,1.36,6.6.75,2.46,1.61,4.89,2.59,7.27,1.98,4.82,4.4,9.44,7.26,13.79.35.53.7,1.05,1.06,1.57.31.45.83.66,1.35.44.49-.21.77-.75.62-1.27-.03-.11-.06-.21-.09-.32.01,0,.02.02.03.02.28.5.71.93,1.23,1.18.45.22.92.33,1.38.34.99.65,2.09,1.15,3.27,1.43.67.16,1.3-.21,1.51-.86.11-.33.2-.67.29-1.01.11.05.23.1.36.12.64.09,1.14-.3,1.35-.88,1.79-4.8,1.49-10.22-.53-14.9ZM161.93,49.57c-.05.09-.11.18-.16.27-.01.02-.02.03-.03.04,0,0,0,0,0,0,0,0,0,0,0,0-.02.03-.03.04-.02.02,0,.01-.02.02-.03.03-.07.08-.14.15-.21.22-.04.04-.07.07-.11.1,0,0,0,0,0,0,0,0,.01,0,.02,0,0,0-.03.02-.04.02-.07.06-.09.06-.08.04-.06.05-.13.1-.17.12-.02.01-.05.03-.07.04.03-.11.06-.22.09-.33,0-.02.06-.14.06-.15.05-.11.11-.21.17-.31.06-.11.14-.21.21-.31,0,0,0,0,.01-.01.05-.05.1-.11.15-.16,0,0,.01-.01.02-.02.06.13.13.25.19.38ZM163.17,43.54s.02.02.03.03c-.14-.01-.28-.01-.42-.02-.38-.31-.8-.58-1.26-.77-.02-.05-.05-.11-.07-.16t0-.02c-.05-.11-.09-.23-.14-.34-.06-.14-.14-.28-.2-.43.28.21.49.38.83.65.42.34.84.69,1.24,1.06ZM155.29,42.68s0-.03,0-.05c0-.01,0-.02,0-.05,0-.04.02-.08.02-.12.12.38.46.79.87.85.1.02.2.05.3.07-.33.28-.61.62-.81,1.01-.12.24-.21.49-.28.75,0,.01-.02.03-.03.04,0,0,0,0,0,0-.02-.11-.03-.21-.05-.32,0-.04-.01-.09-.01-.12-.03-.23-.05-.46-.06-.7-.02-.46-.01-.91.03-1.37Z"/>
    </g>
  </g>
  <g id="Layer_2" data-name="Layer 2">
    <g>
      <path class="cls-2" d="M180.28,64.86c-.21-1.99-.54-3.96-.98-5.91-.44-1.93-1.01-3.82-1.74-5.66-.67-1.7-1.48-3.36-2.45-4.91-.89-1.44-1.9-2.8-3.03-4.06-1.14-1.26-2.4-2.4-3.77-3.4-1.36-.99-2.82-1.81-4.38-2.44-1.56-.64-3.22-1.07-4.91-1.21-1.72-.14-3.49.06-5.06.8-.76.36-1.47.87-2.04,1.49-.07.07-.13.15-.2.23-.03.04-.07.08-.1.12-.03.03-.05.07-.08.1-.16.2.1-.13-.06.07-.14.18-.26.36-.37.55-.22.37-.41.77-.56,1.18-.61,1.58-.7,3.34-.57,5.01.15,1.84.54,3.66,1.04,5.44.52,1.85,1.2,3.66,1.98,5.42.77,1.74,1.66,3.43,2.64,5.07.98,1.63,2.04,3.21,3.18,4.74,1.15,1.55,2.34,3.07,3.66,4.47,1.31,1.38,2.79,2.66,4.47,3.56,1.69.9,3.61,1.45,5.53,1.42,1.83-.02,3.61-.59,5.03-1.76,1.24-1.02,2.21-2.52,2.48-4.11.14-.81.07-1.6-.12-2.4-.05-.22-.31-.36-.52-.3-.23.06-.35.3-.3.52.03.14.06.32.08.5.02.19.02.38.02.57,0,.09,0,.17-.01.26,0,.05,0,.1-.01.15,0,.02,0,.07-.01.09-.03.18-.06.36-.1.54-.04.19-.09.37-.15.55-.03.08-.06.17-.09.25-.02.04-.03.08-.05.12,0,0,0,0,0,.01,0,.02-.03.06-.03.07-.15.35-.34.68-.55.99-.05.08-.11.16-.17.24-.02.03-.04.06-.06.08,0,0-.05.06-.06.08-.12.15-.25.3-.39.44-.14.14-.28.28-.42.41-.07.06-.15.13-.22.19-.03.02-.06.04-.08.07,0,0-.06.05-.08.06-.31.23-.65.43-1,.6-.08.04-.16.08-.24.11,0,0,0,0,0,0-.02,0-.04.02-.06.02-.06.02-.11.04-.17.07-.21.08-.42.15-.64.21-.22.06-.43.11-.65.15-.1.02-.2.03-.3.05-.02,0-.04,0-.06,0-.07,0-.14.02-.2.02-.44.04-.88.05-1.32.02-.23-.01-.45-.03-.67-.06,0,0,0,0-.02,0,0,0,0,0,0,0-.03,0-.05,0-.08-.01-.05,0-.1-.02-.15-.02-.11-.02-.22-.04-.33-.06-.45-.09-.89-.21-1.32-.35-.22-.07-.43-.15-.64-.23-.05-.02-.1-.04-.15-.06-.02,0-.02,0-.02,0,0,0,0,0-.03-.01-.11-.05-.22-.1-.33-.15-.41-.19-.81-.41-1.2-.65-.39-.24-.78-.5-1.15-.77-.08-.06-.15-.12-.23-.17-.01,0-.05-.04-.07-.06-.06-.04-.11-.09-.17-.13-.18-.14-.36-.29-.53-.44-1.39-1.21-2.61-2.62-3.75-4.06-.14-.18-.29-.36-.43-.55-.01-.02-.07-.09-.06-.08,0-.01-.02-.03-.02-.03-.02-.02-.03-.04-.05-.06-.08-.1-.15-.2-.23-.3-.28-.37-.56-.75-.83-1.12-.54-.75-1.07-1.51-1.58-2.28-1.03-1.56-1.97-3.17-2.82-4.83-.42-.82-.81-1.65-1.18-2.49-.05-.11-.09-.21-.14-.32-.01-.02-.04-.08-.04-.09-.02-.05-.04-.09-.06-.14-.09-.21-.18-.43-.26-.64-.17-.43-.33-.86-.49-1.3-.62-1.74-1.11-3.52-1.45-5.33-.04-.22-.08-.44-.12-.67-.03-.19-.1-.41-.09-.6,0,0,.01.12,0,.04,0-.02,0-.05,0-.07,0-.05-.01-.11-.02-.16-.01-.1-.02-.2-.03-.31-.02-.21-.04-.41-.05-.62-.05-.82-.05-1.65.05-2.46,0-.02,0-.13.02-.14,0,0-.02.12,0,.05,0-.02,0-.05.01-.07.02-.11.03-.21.05-.32.04-.2.08-.39.13-.59.05-.19.1-.38.17-.57.03-.09.06-.17.09-.26.02-.04.03-.08.05-.13,0-.01.02-.05.03-.07,0-.01.04-.1.05-.11.02-.04.04-.08.06-.12.04-.09.09-.18.13-.26.09-.17.19-.34.3-.51.05-.08.11-.16.17-.24.03-.04.05-.07.08-.11,0,0,0,0,0,0,.01-.01.02-.03.03-.04.13-.16.26-.31.4-.45.14-.14.29-.28.44-.41.03-.03.06-.05.09-.08.02-.01.04-.03.06-.04.08-.06.16-.12.24-.17.16-.11.34-.21.51-.3.08-.04.16-.08.24-.12.05-.02.1-.05.14-.07.02,0,.04-.02.06-.03,0,0,.01,0,.02-.01.02,0,.08-.03.09-.04.04-.02.09-.03.13-.05.1-.04.2-.07.3-.11.19-.06.38-.12.58-.17.2-.05.39-.09.59-.13.09-.02.19-.03.28-.04.01,0,.03,0,.04,0,.05,0,.1-.01.16-.02.82-.09,1.65-.08,2.47,0,.1.01.2.02.31.03.01,0,.08,0,.1.01,0,0,.01,0,.01,0,.03,0,.06,0,.09.01.2.03.4.06.6.1.4.08.8.17,1.19.27.78.2,1.55.45,2.3.75.08.03.16.07.24.1.02,0,.06.02.07.03.05.02.1.04.15.07.18.08.37.17.55.25.36.17.72.36,1.08.55,1.42.79,2.72,1.72,3.92,2.79,1.21,1.08,2.32,2.28,3.3,3.57,1,1.32,1.87,2.73,2.61,4.21.87,1.73,1.57,3.54,2.13,5.38.57,1.85,1,3.74,1.33,5.65.33,1.92.59,3.85.77,5.78.09.94.14,1.89.18,2.84.01.22.35.22.34,0-.11-1.99-.23-3.97-.45-5.95Z"/>
      <path class="cls-2" d="M171.32,75.76c-.07-.01-.03,0,0,0h0Z"/>
    </g>
  </g>
</svg>