<?xml version="1.0" encoding="UTF-8"?>
<svg xmlns="http://www.w3.org/2000/svg" viewBox="0 0 691.2 281.76">
  <defs>
    <style>
      .cls-1 {
        fill: #7ce0d4;
      }

      .cls-2 {
        fill: #3b332d;
      }

      .cls-3 {
        fill: #f72585;
      }
    </style>
  </defs>
  <g id="Layer_6" data-name="Layer 6">
    <g>
      <path class="cls-1" d="M199.4,270.43c-.14.08-.08.05,0,0h0Z"/>
      <path class="cls-1" d="M205.99,260.41c-.22-2.13-.66-4.24-1.36-6.27-1.38-4.03-3.63-7.77-6.62-10.8-.27-.27-.55-.54-.84-.81-.77-.89-1.59-1.74-2.5-2.48-1.62-1.33-3.5-2.45-5.57-2.9-2.04-.44-4.19-.19-6,.9-1.15.7-2.05,1.65-2.75,2.74-1.16,1.06-2.11,2.33-2.79,3.75-.88,1.85-1.36,3.84-1.42,5.89-.07,2.33.37,4.69,1.09,6.89.72,2.21,1.71,4.33,2.81,6.37.98,1.81,2.09,3.55,3.4,5.14,1.27,1.54,2.77,2.92,4.49,3.96,1.64.99,3.42,1.59,5.32,1.76,1.17.11,2.37.02,3.52-.23.45.03.9.04,1.35,0,2.06-.18,4.02-1.08,5.37-2.68,1.25-1.49,1.99-3.33,2.33-5.23.35-1.99.36-4.01.15-6.01ZM200.37,251.32c-.16-.38-.32-.75-.48-1.12.22.42.44.84.64,1.27.82,1.74,1.49,3.55,2.01,5.47.13.47.22.96.37,1.42.14.43.24.89.35,1.33.04.15.06.3.09.45-.2-.77-.42-1.52-.64-2.24-.67-2.23-1.45-4.43-2.35-6.57ZM196.52,271.75s-.1-.01-.14-.02c-.45-.08-.9-.18-1.33-.32-.2-.06-.4-.13-.59-.2-.11-.04-.21-.08-.32-.12-.02,0-.06-.02-.09-.03-.01,0-.02-.01-.05-.02-.43-.19-.86-.4-1.28-.63-.42-.23-.82-.48-1.22-.75-.18-.12-.35-.24-.52-.37-.05-.04-.14-.09-.21-.15.05.04.08.06-.04-.03-.05-.04-.1-.08-.15-.12-.74-.6-1.44-1.25-2.1-1.93-.66-.68-1.28-1.39-1.87-2.13-.03-.04-.06-.08-.09-.12,0,0,0,0,0,0-.07-.08-.13-.16-.19-.25-.15-.2-.3-.4-.44-.6-.27-.38-.53-.76-.78-1.16-.52-.81-.99-1.65-1.42-2.51-.21-.41-.41-.83-.6-1.26-.05-.11-.09-.21-.14-.32,0,0,0,0,0,0-.01-.04-.03-.07-.04-.11-.09-.23-.19-.46-.27-.69-.68-1.78-1.18-3.63-1.48-5.51-.03-.2-.06-.4-.09-.61,0-.05-.01-.09-.02-.14-.02-.13-.03-.26-.05-.4-.05-.48-.09-.96-.11-1.44,0-.15,0-.29-.01-.44.1.42.2.84.33,1.25.17.53.36,1.06.57,1.58.13.32.26.63.39.94.06.14.12.28.18.42.02.05.04.11.07.16.01.02.02.03.02.04,0,.01,0,.02.01.03.24.6.83,1.08,1.52.86.58-.19,1.12-.88.86-1.52-.42-1.03-.79-2.09-1.12-3.15-.16-.51-.31-1.03-.42-1.55-.06-.26-.11-.52-.15-.79,0-.05-.02-.11-.03-.16h0c-.01-.15-.03-.3-.05-.46-.04-.47-.05-.94-.02-1.41,0-.09.01-.18.02-.28,0,0,0-.04,0-.06,0,0,0,0,0,0,.04-.23.08-.46.13-.68.05-.21.1-.42.17-.62.03-.1.07-.2.1-.3.02-.04.03-.09.05-.13.02-.04.13-.28.04-.1-.09.17.07-.14.09-.18.05-.1.1-.19.15-.28.11-.2.23-.39.36-.58.01-.02.03-.04.04-.06.06-.06.12-.15.17-.21.15-.17.31-.33.48-.48.03-.03.17-.14.19-.15.05-.03.11-.07.13-.09.2-.13.4-.25.62-.35.01,0,.07-.03.1-.04.1-.03.19-.07.29-.1.22-.07.45-.13.68-.17.04,0,.08-.01.12-.02.08,0,.16-.02.24-.02.2-.01.41-.02.61-.01.13,0,.27.02.4.03.02,0,.09.02.12.02.12.02.23.04.35.06.43.08.84.19,1.26.32.02,0,.04.01.06.02.05.02.09.03.14.05.03.01.06.02.09.04.09.04.06.02-.08-.04.01,0,.04,0,.06.01.04.01.07.03.11.04.15.07.34.19.4.23.21.11.42.23.62.37.09.06.19.13.28.19.04.03.12.09.16.12.18.14.36.29.53.45.36.33.71.68,1.03,1.05.14.17.28.34.42.51.03.04.05.07.08.11.08.11.16.22.24.33.58.81,1.08,1.68,1.55,2.56.5.93.97,1.89,1.42,2.85.24.51.47,1.02.69,1.54.05.11.09.21.14.32.03.06.05.12.08.18.11.27.22.54.33.81.83,2.07,1.56,4.18,2.17,6.33.3,1.04.58,2.09.81,3.15.05.25.11.51.15.77.02.13.04.26.07.39,0,.06.02.11.03.17,0,.02.02.15.03.19,0,0,0,.02,0,.02,0,.07.02.15.02.22.01.13.02.26.03.39.02.27.03.55.04.82,0,.24,0,.47-.02.71,0,.13-.02.25-.03.38,0,.06,0,.13-.02.19,0,0,0,0,0,0-.09.52-.21,1.03-.4,1.52,0,.01-.01.04-.02.06,0,.01,0,.01-.02.03-.04.08-.08.17-.12.25-.09.17-.18.34-.28.51-.09.14-.18.28-.28.41,0,.01-.01.02-.02.03-.06.07-.12.15-.18.22-.24.28-.51.53-.79.77-.02.01-.04.03-.06.05.02-.01.03-.02.06-.03-.08.04-.15.11-.22.16-.16.11-.32.22-.48.31-.31.19-.63.35-.96.5,0,0,0,0,0,0,0,0,0,0,0,0-.09.03-.17.07-.26.1-.18.07-.37.13-.56.19-.13.04-.26.06-.39.09-.02,0-.04,0-.06,0Z"/>
    </g>
    <g>
      <path class="cls-1" d="M203.09,259.13c-.17-1.51-.61-2.96-1.38-4.28-.32-.55-1.11-.79-1.66-.43-.09.06-.15.13-.22.21-.75-1.94-1.68-3.82-2.8-5.57-.43-.67-.9-1.37-1.42-2.05-.3-.72-.6-1.45-.93-2.16-.86-1.86-1.95-3.7-3.71-4.84-1.95-1.26-4.68-1.34-6.45.27-.49.45-.44,1.27,0,1.72.06.06.13.11.2.17-.45.12-.89.29-1.27.58-1.09.82-1.57,2.07-1.46,3.38-.69,1.62-1.03,3.41-1.03,5.19,0,4.42,2.03,8.43,4.48,11.95,1.22,1.76,2.5,3.55,4.02,5.07,1.34,1.34,2.99,2.5,4.89,2.78.29.39.83.65,1.31.47.1-.04.2-.09.29-.13,0,0,0,0,0,0,0,0,0,0,0,0,.61-.25,1.19-.56,1.74-.91.96-.5,1.81-1.25,2.46-2.15,0,0,0,0,0,0,2.16-2.51,3.3-5.93,2.92-9.25ZM193.63,268.87s-.09-.03-.14-.05c0,0,0,0,0,0-.21-.1-.42-.2-.62-.32-.18-.1-.35-.21-.52-.32-.09-.06-.18-.12-.28-.19-.04-.03-.08-.06-.12-.09-.02-.02-.03-.02-.02-.02,0,0-.02-.01-.04-.04-.05-.04-.09-.08-.14-.12.2.09.41.17.62.25.44.31.89.61,1.35.88.37.22.85.22,1.22,0,.1-.06.19-.13.26-.2.07.06.13.12.2.19-.04.04-.08.08-.11.11.02,0,0,.02-.04.05-.01,0-.02.01-.03.02,0,.01-.03.02-.04.04,0-.01.01-.02.02-.03-.05.03-.09.06-.14.1-.02.01-.04.02-.06.04-.1,0-.2-.01-.31-.02-.02,0-.04,0-.07,0,.01,0,.03,0,.06.01-.04,0-.09-.01-.13-.02-.22-.04-.44-.1-.66-.16-.09-.03-.17-.06-.26-.09Z"/>
      <path class="cls-1" d="M195.2,269.03s0,0,.01,0c.02-.03.05-.05.08-.08-.01,0-.05.03-.09.09Z"/>
      <path class="cls-1" d="M194.62,269.13s-.03,0,0,0h0Z"/>
    </g>
    <path class="cls-1" d="M204.03,259.24c-.3-3.03-1.49-5.87-3.12-8.42-.94-1.47-1.99-2.9-3.22-4.13-.34-.34-.89-.36-1.26-.08-.34.27-.53.85-.25,1.24.47.63.95,1.24,1.43,1.85.04.05.09.11.13.16.02.02.12.15.12.15.1.14.2.27.3.41.16.22.32.45.48.68,0,0,0,0-.01,0-.37.29-.58.92-.27,1.34.44.59.84,1.22,1.18,1.87.16.31.31.62.45.93,0,.02.06.13.07.15.02.06.05.12.07.18.07.18.14.37.21.55.24.7.44,1.41.58,2.13.03.15.06.3.08.44.02.09.03.18.04.27,0,.01.01.07.02.12.05.38.08.75.1,1.13.04.72.03,1.45-.03,2.17-.01.15-.03.3-.04.45,0,.06-.01.12-.02.18,0,0-.02.15-.02.17-.06.39-.13.77-.22,1.15-.16.7-.37,1.4-.64,2.07-.03.08-.06.16-.1.24,0,0,0,0,0,0-.07.17-.15.33-.23.49-.06.13-.14.25-.21.38-.62.16-1.23.31-1.84.49-.84.25-1.69.5-2.53.74-.31.09-.57.37-.63.7-.8-.21-1.53-.63-2.15-1.18.39.18.76.36,1.14.56.11.06.2-.1.09-.16-.44-.24-.88-.49-1.3-.77-.21-.14-.4-.28-.58-.47-.18-.19-.34-.42-.57-.55-.46-.26-.9.25-.69.69.64,1.32,1.8,2.31,3.13,2.89-.02.03-.04.05-.06.09-.18.43-.04,1.01.4,1.23.08.04.16.06.24.1,0,0,0,0,0,0,0,0,0,0,0,0,.87.37,1.8.43,2.67.19,1.2-.06,2.38-.69,3.2-1.61.16-.19.3-.4.45-.6.27-.29.53-.6.75-.94.1-.15.12-.3.12-.45.11-.21.2-.42.3-.64.1-.08.2-.17.27-.29.19-.29.37-.58.53-.89.07-.14.14-.28.21-.42.04-.08.08-.17.11-.26.11-.26.13-.32.07-.17.03-.07.06-.14.09-.21.28-.66.5-1.34.66-2.03.31-1.43.4-2.91.25-4.36Z"/>
    <path class="cls-1" d="M205.81,258.17c-.03-.86-.15-1.72-.29-2.58-.28-1.64-.73-3.26-1.36-4.8-1.31-3.17-3.19-6.13-5.63-8.56-.66-.66-1.36-1.28-2.09-1.86-.41-.33-.83-.65-1.27-.95-.44-.31-.92-.51-1.42-.72-.34-.14-.83.09-1,.41-.18.33-.16.81.14,1.07.35.31.69.63,1.08.9.15.11.31.21.46.32.08.05.15.11.23.17.04.03.09.06.13.1,0,0,.04.03.07.05.03.02.14.11.16.13.08.07.17.13.25.2.17.13.33.27.49.41.3.26.6.53.89.8.59.56,1.15,1.15,1.69,1.76.27.3.52.61.77.92.06.07.12.15.17.22.03.03.05.06.08.1,0,0,0,0,.01.02.13.17.26.34.38.52.95,1.31,1.77,2.71,2.46,4.17.09.18.17.36.25.55.04.09.07.17.11.26,0,0,0,0,0,0,.03.06.05.12.08.18.15.37.3.74.44,1.12.29.76.54,1.54.76,2.32.24.87.4,1.76.58,2.65.09.44.16.88.23,1.33.06.45.17.89.26,1.34.07.35.64.35.71,0,.08-.43.17-.86.18-1.3,0-.41,0-.82,0-1.24Z"/>
  </g>
  <g id="Layer_5" data-name="Layer 5">
    <path class="cls-3" d="M168.93,241.34c-.08-1.08-.3-2.11-.73-3.1-.35-.83-.86-1.6-1.49-2.24-.32-.32-.68-.62-1.06-.86-.39-.25-.82-.42-1.25-.56-.2-.07-.42-.02-.61.1-.19-.09-.38-.17-.58-.25-1.77-.67-3.78-.58-5.45.35-.41.23-.79.51-1.14.82-.1.06-.21.12-.3.18-.43.31-.79.67-1.1,1.1-.46.65-.71,1.41-.85,2.19-.65,1.86-.61,3.88-.19,5.79.23,1.04.57,2.04.98,3.02.39.94.82,1.88,1.33,2.77.91,1.58,2.12,3.07,3.84,3.79.87.36,1.85.43,2.77.23.95-.21,1.82-.72,2.54-1.36,1.54-1.37,2.26-3.39,2.66-5.36.22-1.09.37-2.19.51-3.29.13-1.1.21-2.2.13-3.31ZM163.15,237.68s.09.07.12.09c.04.03.07.06.11.09.09.07.18.15.26.22.16.14.31.29.46.44.16.16.31.32.45.48.06.07.13.15.19.22.03.04.06.08.09.11.02.03.04.05.06.08,0,0,.01.02.02.03.01.02.05.07.06.08.03.04.06.08.09.12.07.09.13.19.2.28.12.18.23.35.34.54.22.37.42.76.59,1.15.01.03.03.06.04.09,0-.01.02.05.03.08.04.11.08.21.12.32.07.2.14.4.2.6.12.4.24.8.32,1.2.04.19.07.39.1.58,0,.05-.01.1-.02.15-.08.49-.19.97-.32,1.45-.13.47-.28.93-.46,1.38-.04.11-.09.23-.13.34-.02.04-.03.09-.05.13,0,0,0,0,0,0-.01.03-.03.07-.04.1-.1.22-.2.44-.31.66-.39.81-.83,1.59-1.36,2.32,0,0,0,0,0,0-.03.04-.06.07-.09.11-.07.08-.14.17-.22.25-.14.15-.28.29-.43.42-.04.04-.08.07-.12.1,0,0,0,0-.01,0-.08.05-.16.12-.24.17-.08.05-.15.09-.23.13-.04.02-.08.04-.12.06-.01,0-.03.01-.04.02-.18.05-.35.12-.54.15,0,0-.01,0-.02,0-.04,0-.09,0-.12.01-.1,0-.21,0-.31,0-.02,0-.09,0-.12-.01-.02,0-.04,0-.05,0-.11-.02-.22-.05-.33-.08-.05-.01-.09-.03-.14-.05-.01,0-.04-.02-.07-.03-.03-.01-.06-.02-.07-.03-.06-.03-.12-.06-.17-.09-.19-.1-.37-.22-.54-.35,0,0,0,0-.01,0-.04-.04-.09-.07-.13-.11-.08-.07-.16-.14-.24-.22-.33-.31-.62-.64-.9-.99-.03-.04-.07-.08-.1-.12,0,0,0,0,0-.01,0,0,0,0,0,0-.07-.1-.15-.2-.22-.3-.13-.18-.26-.37-.39-.56-.26-.39-.5-.79-.72-1.19-.22-.4-.42-.81-.61-1.23-.02-.05-.04-.1-.06-.14,0-.02-.01-.03-.02-.05-.03-.1-.09-.21-.13-.31-.09-.22-.17-.44-.25-.67-.3-.87-.53-1.77-.68-2.67-.02-.1-.03-.21-.05-.31,0-.04-.01-.09-.02-.13,0-.03,0-.06-.01-.09-.03-.23-.05-.45-.07-.68-.04-.46-.05-.93-.05-1.39,0-.1,0-.2.01-.3.05-.21.09-.43.16-.64.06-.19.13-.39.21-.58,0,0,0-.01,0-.02.01-.03.02-.06.04-.08.04-.1.09-.19.14-.29.17-.35.37-.69.6-1,.03-.04.06-.08.09-.13,0,0,0,0,0-.01.06-.07.11-.14.17-.21.12-.15.26-.29.39-.42.14-.13.28-.26.43-.38,0,0,.02-.02.03-.02.02-.01.03-.02.05-.04,0,0,.01,0,.02,0,.19-.07.39-.12.59-.16.09-.02.19-.03.28-.05,0,0,.01,0,.02,0,.05,0,.11-.01.16-.02.2-.02.41-.02.61,0,.11,0,.22.01.34.03,0,0,.02,0,.03,0,.07.01.14.02.2.03.22.04.45.1.66.16.11.03.22.07.32.11.05.02.1.04.15.06.02,0,.08.05.02,0-.13-.08.23.12.1.04-.07-.05.06.03.09.04.06.03.11.05.17.08.1.05.21.1.31.16.21.11.42.24.62.37.09.06.18.12.26.18.04.03.09.06.13.09.03.02.06.04.09.06-.05-.03-.06-.05,0,0ZM163.46,236.19c.18.1.36.2.53.31.09.06.17.11.26.17.04.03.08.06.12.08,0,0,.01.01.02.02.33.27.63.55.91.87.07.08.13.15.19.23,0,0,.01.02.02.02.03.05.07.09.1.14.13.18.24.36.36.54.11.19.21.38.31.57.04.07.07.14.1.22-.8-1.26-1.84-2.35-3.07-3.19-.11-.07-.22-.14-.33-.2.01,0,.03,0,.04.01,0,0,0,0,0,0,0,0,0,0,0,0,.04.02.09.04.13.06.1.05.2.1.3.15Z"/>
    <g>
      <path class="cls-3" d="M168.83,245.7c-.21-.8-.49-1.59-.81-2.36.04-.05.09-.1.12-.16.21-.45.2-.96.05-1.43-.08-.26-.2-.51-.33-.76.1-.23.1-.49-.03-.72-.64-1.19-1.55-2.26-2.63-3.1-.19-.39-.41-.77-.68-1.11-.08-.21-.32-.39-.48-.54-.18-.16-.37-.3-.56-.44-.37-.26-.78-.46-1.21-.61-.44-.16-.9-.24-1.36-.27-.02,0-.15,0-.16,0,0,0,0,0,0,0-.05,0-.09-.01-.14-.01-.11,0-.23,0-.34.02-.25.02-.5.05-.75.1-.92.17-1.77.6-2.5,1.19-.04.03-.08.07-.12.1-.01.01-.04.03-.05.05.01,0,.03-.02.04-.03.09-.06.05-.04-.11.09-.08.07-.15.15-.22.23-.17.19-.33.4-.48.61-.27.39-.48.82-.65,1.27-.68,1.75-.53,3.75-.13,5.54.16.74.39,1.46.63,2.18.05.36.18.73.38,1.04.35.87.75,1.72,1.21,2.53.49.87,1.02,1.73,1.67,2.49.62.71,1.41,1.35,2.34,1.58.25.06.51.09.76.1.23,0,.43-.12.56-.29.26.11.59.11.79-.12.16-.18.24-.45.16-.68.15-.02.29-.08.39-.19.15-.16.2-.36.19-.56.25.08.55.04.74-.16.21-.23.29-.59.11-.87,0,0,0,0,0,0,.05-.02.1-.05.14-.08.22-.17.35-.48.26-.76.24-.12.45-.31.6-.53.1-.15.15-.31.19-.48.23-.14.39-.39.39-.66,0-.3-.02-.6-.06-.89.3-.1.55-.29.72-.57.01-.02.02-.05.03-.08.18.25.51.39.8.3.39-.13.63-.51.52-.92ZM158.81,236c.08-.04.16-.08.25-.12,0,0,0,0,0,0,.06-.02.11-.04.17-.06.16-.06.32-.1.48-.14-.33.16-.59.42-.77.73-.05,0-.1-.02-.15-.03-.2-.02-.4-.01-.6.01.04-.03.08-.06.12-.08.16-.11.33-.21.51-.3Z"/>
      <path class="cls-3" d="M162.34,235.84s0,0,0,0c-.06-.03-.03,0,0,0Z"/>
    </g>
  </g>
  <g id="Layer_2" data-name="Layer 2">
    <path class="cls-2" d="M206.87,263.46c-.05-.28-.12-.56-.21-.84.05-.72.07-1.44.05-2.16-.06-1.75-.29-3.5-.69-5.2-.41-1.7-.98-3.36-1.71-4.96-.72-1.59-1.6-3.1-2.63-4.51-1.03-1.41-2.2-2.73-3.49-3.9-1.42-1.28-2.99-2.42-4.71-3.27-1.77-.87-3.71-1.45-5.69-1.47-1.79-.01-3.54.45-5.12,1.28-1.54.81-2.9,1.97-3.98,3.33-1.18,1.5-2.02,3.24-2.5,5.08-.5,1.91-.63,3.92-.45,5.89.19,1.99.69,3.93,1.43,5.78.75,1.87,1.72,3.64,2.85,5.32,1.08,1.6,2.28,3.13,3.61,4.53,1.3,1.36,2.74,2.61,4.33,3.62,1.58,1,3.31,1.78,5.14,2.2,1.82.41,3.7.48,5.54.15,1.77-.32,3.49-1.05,4.89-2.2,1.27-1.04,2.24-2.43,2.84-3.95.3-.76.5-1.54.59-2.35.1-.8.06-1.59-.08-2.38ZM206.15,265.89s0,0,0,0c0,0,0,0,0,.01-.22,1.55-.82,2.94-1.76,4.19-.05.07-.07.09-.14.18-.06.08-.13.16-.2.23-.13.15-.26.29-.4.43-.14.14-.28.27-.42.4-.07.06-.14.12-.21.18-.03.03-.07.06-.1.08-.01.01-.11.09-.09.07-.67.52-1.44.95-2.21,1.26-1.64.66-3.38.9-5.14.79-1.74-.1-3.48-.55-5.07-1.29-1.64-.76-3.14-1.78-4.5-2.97-1.38-1.21-2.62-2.57-3.75-4.01-1.19-1.52-2.26-3.14-3.16-4.84-.9-1.7-1.61-3.5-2.06-5.37-.44-1.85-.6-3.77-.44-5.67.16-1.86.66-3.72,1.52-5.38.78-1.5,1.85-2.8,3.17-3.87,1.27-1.03,2.77-1.79,4.37-2.15,1.73-.4,3.58-.27,5.31.24,1.82.54,3.5,1.47,5.03,2.59,1.38,1.01,2.65,2.19,3.78,3.48,1.11,1.26,2.08,2.64,2.92,4.09.84,1.46,1.55,2.99,2.1,4.58.56,1.6.96,3.26,1.21,4.93.16,1.12.24,2.24.25,3.37-.03-.06-.06-.13-.09-.19-.2-.38-.78-.04-.58.34.17.33.3.67.41,1.03.06.18.1.37.14.55.02.09.04.18.05.27,0,.04.01.08.02.13,0,.04,0,.06.01.07-.03.65-.08,1.29-.17,1.94-.01.1.11.14.19.11,0,.04,0,.07-.01.11,0,.02,0,.04,0,.06Z"/>
    <path class="cls-2" d="M169.7,243.98c.12-2.06-.32-4.14-1.33-5.95-.97-1.74-2.48-3.17-4.33-3.94-1.83-.76-3.99-.83-5.85-.11-1.87.72-3.3,2.2-4.08,4.03-.82,1.92-.97,4.02-.61,6.07.4,2.24,1.39,4.35,2.53,6.31.96,1.64,2.2,3.37,3.99,4.16.95.42,1.97.54,2.99.34,1.02-.2,1.95-.72,2.74-1.38,1.31-1.11,2.09-2.66,2.56-4.28.78-1.64,1.29-3.42,1.4-5.24ZM166.03,251.92c-.52.69-1.25,1.31-2.07,1.72-.37.18-.8.33-1.25.41-.2.04-.39.06-.64.06-.11,0-.22,0-.33,0-.06,0-.11,0-.17-.01-.02,0-.04,0-.05,0,0,0-.06,0-.07,0-.86-.14-1.63-.54-2.26-1.07-.72-.6-1.28-1.3-1.79-2.05-.56-.84-1.06-1.74-1.51-2.64-.47-.96-.88-1.94-1.18-2.97-.3-1.02-.49-2.03-.52-3.08-.03-.95.06-1.75.3-2.65.24-.9.56-1.65,1.09-2.43.06-.09.12-.18.19-.26.01-.02.03-.04.04-.06,0-.01,0-.01.01-.01,0,0,0,0,0,0,.04-.05.08-.1.12-.14.14-.17.29-.34.45-.49.16-.16.34-.32.52-.46.02-.01.04-.03.05-.04,0,0,0,0,0,0,0,0,0,0,.01,0,.04-.03.09-.07.13-.1.1-.07.2-.13.3-.2.19-.12.39-.23.6-.33.24-.12.34-.16.59-.25.43-.15.88-.26,1.33-.33,0,0,.03,0,.04,0,.02,0,.03,0,.05,0,.05,0,.11-.01.17-.02.13-.01.25-.02.38-.03.23-.01.46-.01.69,0,.5.02.82.06,1.29.17.46.1.9.24,1.34.42.02,0,.08.04.1.04.05.02.1.05.15.07.11.05.21.1.32.16.21.11.41.23.61.36.09.06.18.12.27.19.1.07.16.12.23.17.18.14.35.29.52.45.34.32.65.66.94,1.03,1.09,1.4,1.81,3.19,1.99,5,.12,1.19.04,2.4-.19,3.57-.07-.13-.22-.23-.36-.23-.23,0-.36.18-.39.39-.07.5-.2,1-.31,1.5-.1.51-.23,1.01-.39,1.5-.31.96-.73,1.89-1.35,2.71Z"/>
  </g>
</svg>