<?xml version="1.0" encoding="UTF-8"?>
<svg xmlns="http://www.w3.org/2000/svg" viewBox="0 0 691.2 281.76">
  <defs>
    <style>
      .cls-1 {
        fill: #7ce0d4;
      }

      .cls-2 {
        fill: #3b332d;
      }

      .cls-3 {
        fill: #f72585;
      }
    </style>
  </defs>
  <g id="Layer_6" data-name="Layer 6">
    <path class="cls-1" d="M321.57,62.78c0-.08,0-.16-.01-.24,0-.06-.03-.12-.04-.18.08-.75-.13-1.52-.57-2.14-.53-.75-1.27-1.27-2.1-1.64-.07-.03-.15-.06-.22-.09-.39-.21-.8-.37-1.23-.48-.31-.08-.68.1-.76.43,0,.02,0,.05,0,.07-.48,0-.95.07-1.41.23-1.31.47-2.24,1.52-2.75,2.79-.5,1.23-.52,2.63-.13,3.89.08.26.19.5.3.75.24.97.71,1.88,1.48,2.56.27.24.57.45.89.62.15.13.3.27.45.4.24.19.54.25.8.05.01-.01.02-.03.04-.04.61.07,1.23,0,1.81-.23,1.36-.55,2.41-1.71,2.99-3.04.51-1.17.7-2.47.48-3.73Z"/>
  </g>
  <g id="Layer_5" data-name="Layer 5">
    <path class="cls-3" d="M282.61,98.81c-.22-1.66-.75-3.32-1.82-4.63-.55-.67-1.31-1.2-2.16-1.43-.21-.06-.42-.09-.63-.11-.37-.22-.76-.39-1.17-.49-.95-.23-1.9-.09-2.78.3-.8.35-1.51.92-2.11,1.55-.61.64-1.15,1.37-1.61,2.13-.89,1.48-1.51,3.14-1.79,4.84-.08.5-.13,1.02-.16,1.53-.08.48-.12.96-.11,1.46.02,1.09.25,2.21.73,3.2.45,1.2,1.15,2.31,2.19,3.09,1.42,1.07,3.32,1.13,4.95.5,3.1-1.21,5.29-4.17,6.15-7.32.41-1.5.54-3.08.33-4.62Z"/>
  </g>
  <g id="Layer_2" data-name="Layer 2">
    <path class="cls-2" d="M282.94,97.65c-.41-1.9-1.4-3.66-2.95-4.86-1.43-1.1-3.28-1.69-5.07-1.28-1.53.35-2.91,1.4-3.61,2.8-.15-.05-.32-.02-.44.1-.71.8-1.3,1.69-1.84,2.62-.54.93-.99,1.92-1.34,2.94-.66,1.9-.91,3.99-.45,5.97.39,1.69,1.29,3.33,2.58,4.5,1.34,1.22,3.14,1.91,4.96,1.7,2.07-.23,3.94-1.36,5.31-2.89,1.38-1.53,2.3-3.39,2.71-5.41.41-2.04.59-4.16.14-6.2ZM282.29,101.08c-.03.22-.06.47-.09.66-.04.24-.09.47-.14.71-.1.46-.23.9-.38,1.34-.08.22-.17.44-.26.66,0,.02-.02.04-.03.06-.03.07-.06.14-.09.22-.02.04-.03.08-.05.12,0,0,0,.01,0,.02,0,0,0,.02,0,.02-.02.04-.03.08-.05.12-.37.84-.83,1.67-1.36,2.42-.06.09-.13.18-.2.27-.01.02-.03.03-.03.04-.04.05-.09.11-.13.16-.15.18-.3.35-.46.52-.16.17-.32.33-.49.48-.08.07-.16.15-.25.22-.02.02-.26.24-.28.23,0,0,.1-.08.04-.03-.03.02-.05.04-.08.06-.04.03-.08.06-.12.09-.1.07-.2.14-.3.2-.2.13-.4.25-.61.36-.1.05-.2.1-.29.15-.05.02-.09.04-.14.06-.02.01-.05.02-.07.03-.09.04-.07.02,0,0-.1.03-.21.08-.31.12-.11.04-.22.08-.33.11-.22.07-.44.12-.66.16-.06.01-.11.02-.17.03-.02,0-.07.01-.1.01-.03,0-.06,0-.09,0-.06,0-.12.01-.17.01-.23.02-.45.02-.68,0-.11,0-.22-.01-.32-.03,0,0,0,0,0,0-.05,0-.09-.01-.14-.02-.38-.07-.72-.19-1.08-.31,0,0,0,0-.01,0-.04-.02-.08-.03-.11-.05-.09-.04-.18-.09-.26-.13-.17-.09-.33-.19-.49-.29-.08-.05-.15-.1-.22-.16-.02-.01-.04-.03-.06-.04-.03-.02-.05-.04-.08-.06-.15-.12-.29-.25-.43-.38-.14-.13-.27-.27-.4-.42-.06-.07-.12-.14-.18-.21-.03-.04-.06-.08-.1-.12,0,0,0,0,0,0,0,0,0,0,0,0-.24-.32-.46-.66-.65-1.01-.09-.17-.18-.35-.27-.53-.02-.04-.04-.08-.05-.12,0,0,0,0,0-.01-.04-.1-.08-.19-.11-.29-.14-.37-.25-.75-.33-1.14-.04-.19-.07-.38-.1-.56,0,0,0-.02,0-.03,0-.04,0-.09-.01-.13-.01-.11-.02-.22-.03-.33-.03-.48-.02-.96.03-1.43.01-.12.02-.23.04-.35,0-.03,0-.05,0-.08,0-.08,0,.05,0,.05,0,0,.03-.19.03-.21.04-.24.08-.48.13-.71.1-.48.23-.96.39-1.43.08-.23.16-.46.25-.69.04-.11.09-.22.13-.33.02-.05.04-.1.06-.15-.06.14.03-.06.04-.09.05-.11.1-.22.15-.33.03-.06.05-.12.08-.17.02-.04.04-.08.06-.13.04-.09.04-.1.02-.05-.01.04-.01.04,0,0,.11-.22.21-.45.32-.67.23-.45.47-.89.71-1.34.01-.03.03-.05.04-.08.05.12.19.21.32.21.2,0,.33-.16.34-.34.02-.35.17-.74.3-1.07.11-.28.34-.69.55-.95.47-.61,1.09-1.08,1.8-1.41.68-.31,1.44-.45,2.22-.4.77.05,1.58.32,2.27.71,1.48.84,2.58,2.23,3.13,3.85.31.92.47,1.86.5,2.83.02.5,0,1-.05,1.49Z"/>
    <g>
      <path class="cls-2" d="M314.78,68.92c.05.02.09.03,0,0h0Z"/>
      <path class="cls-2" d="M313.23,67.68s.1.11,0,0h0Z"/>
      <path class="cls-2" d="M313.98,68.45s0,0,0,0c.04.03.14.08,0,0Z"/>
      <path class="cls-2" d="M322.01,61.78c-.07-.32-.18-.62-.34-.91,0,0-.01,0-.02-.01-.26-.78-.73-1.48-1.36-2.02-.95-.82-2.18-1.23-3.44-1.16-1.32.07-2.6.61-3.61,1.46-1.03.87-1.74,2.1-2.1,3.39-.35,1.28-.37,2.65-.01,3.94.36,1.27,1.06,2.41,2.12,3.21.97.73,2.24,1.05,3.45.92,1.29-.13,2.47-.66,3.45-1.52.97-.85,1.58-2.09,1.86-3.34.03-.14.06-.29.08-.44,0-.04.01-.09.02-.13,0-.04.01-.09.02-.13,0,0,0,0,0,0,0,0,0,0,0,0,0-.03,0-.03,0-.02,0-.05.02-.12.02-.14,0-.05.01-.1.02-.15.03-.32.03-.63.03-.95,0-.66-.06-1.33-.2-1.98ZM321.32,64.15s0,.02,0,.02c0,.04-.01.09-.02.13-.01.07-.02.15-.04.22-.06.3-.13.6-.23.9-.04.13-.09.25-.13.37-.02.04-.03.08-.05.12-.03.08-.07.16-.11.23-.13.26-.27.52-.43.76-.04.06-.08.12-.13.18-.02.03-.04.06-.06.09,0,0,0,0,0,0,0,0,0,0,0,0,0,0,0,0,0,0,0,0-.01.01-.02.02-.09.09-.17.21-.26.3-.18.2-.38.39-.58.56-.04.03-.08.07-.12.1-.02.02-.05.03-.07.05-.11.08-.23.16-.35.23-.22.14-.46.25-.69.36-.02,0-.04.02-.06.02-.06.02-.12.05-.18.07-.13.05-.26.09-.39.13-.12.03-.24.06-.36.09-.06.01-.13.03-.19.04-.03,0-.06,0-.08.01-.26.03-.51.04-.77.03-.06,0-.13,0-.19-.01-.03,0-.08,0-.12-.01-.1-.02-.2-.03-.3-.06-.13-.03-.25-.06-.37-.1-.06-.02-.12-.04-.18-.07-.02,0-.05-.02-.07-.03.02,0,.03,0,.04.01-.02,0-.04-.01-.05-.02-.24-.11-.48-.25-.7-.41-.02-.02-.04-.04-.07-.05,0,0,0,0,.01,0-.05-.04-.1-.09-.15-.13-.1-.09-.2-.19-.29-.28-.09-.1-.18-.2-.27-.3-.02-.02-.03-.04-.05-.06,0,0,0,0,.01.01,0,0,0,0,0,0-.04-.06-.09-.12-.13-.18-.16-.23-.29-.48-.41-.73-.02-.05-.05-.1-.07-.15-.01-.03-.02-.06-.03-.08-.05-.14-.1-.27-.14-.41-.08-.27-.15-.54-.2-.81-.01-.06-.02-.13-.03-.19,0-.03,0-.06-.01-.09-.02-.14-.02-.29-.03-.43-.02-.31-.01-.62,0-.92,0-.08.01-.15.02-.22,0-.03,0-.06.01-.09,0,0,.02-.14,0-.06,0-.02,0-.05,0-.05,0-.03,0-.06.01-.09.02-.09.03-.18.05-.27.06-.29.14-.59.24-.87.02-.07.05-.14.08-.21.01-.03.03-.07.04-.1,0,0,0-.01.01-.02.06-.14.13-.28.2-.42.14-.27.3-.53.48-.78.02-.02.04-.05.05-.07.01-.01,0-.01.01-.02,0,0,0,0,.02-.02.04-.05.09-.1.13-.16.1-.12.21-.23.32-.34.1-.1.21-.2.32-.29.02-.02.04-.04.07-.06,0,0,.05-.04.06-.05.05-.04.11-.08.16-.12.25-.18.52-.33.79-.46.14-.06.16-.07.3-.13.15-.06.3-.11.46-.15,1.05-.3,2.18-.23,3.18.26.84.41,1.55,1.11,1.98,1.95-.05.05-.09.11-.08.2.03.32.06.63.12.95.01.07.03.15.04.22,0,.04.01.07.02.11,0-.05,0,.02,0,.03.02.16.04.33.05.49.02.3.03.6.02.89,0,.15-.02.29-.04.44Z"/>
      <path class="cls-2" d="M320.1,67.19s.01-.01.02-.02c0,0,0,0,0,0-.08.07-.05.05-.02.02Z"/>
    </g>
  </g>
</svg>