<?xml version="1.0" encoding="UTF-8"?>
<svg xmlns="http://www.w3.org/2000/svg" viewBox="0 0 691.2 281.76">
  <defs>
    <style>
      .cls-1 {
        fill: #7ce0d4;
      }

      .cls-2 {
        fill: #3b332d;
      }
    </style>
  </defs>
  <g id="Layer_6" data-name="Layer 6">
    <g>
      <path class="cls-1" d="M652.64,224.38s-.04,0-.05,0c0,0,0,0,0,0,.04,0,.06,0,.06,0Z"/>
      <path class="cls-1" d="M671.41,230.94c-.23-1.2-.58-2.37-1.05-3.49-.95-2.27-2.35-4.38-4.15-6.06-1.73-1.62-3.86-2.89-6.2-3.36-1.43-.29-2.9-.25-4.29.1-.57.08-1.13.23-1.66.46-.57.25-1.08.6-1.52,1.04-1.45,1.09-2.52,2.65-2.88,4.46-.03.15-.04.3-.06.45-.55,1.75-.54,3.67.03,5.43.72,2.22,2.2,4.15,4.03,5.57,2.03,1.58,4.44,2.58,6.93,3.2,2.16.54,4.48.93,6.68.43,1.03-.24,2.01-.71,2.77-1.45.84-.82,1.35-1.94,1.52-3.1.18-1.23.09-2.46-.14-3.67ZM652.18,224.68s.02-.04.03-.05c.01-.02.03-.05.04-.07.02-.02.05-.05.07-.07.02-.01.04-.03.06-.04.01,0,.03-.01.04-.02.04-.01.08-.03.12-.04.01,0,.02,0,.04,0-.01,0-.01,0-.03,0,0,0,.02,0,.03,0,.01,0,.02,0,.03,0,.03,0,.03,0,.02,0,.03,0,.05,0,.08,0,.02,0,.04,0,.06,0-.01,0-.01,0-.03,0,0,0,.02,0,.03,0,0,0,.02,0,.03,0,.02,0,.02,0,.02,0,.02,0,.04,0,.06.01.02,0,.03.01.05.02-.01,0-.01,0-.03-.02,0,0,.02.01.03.02,0,0,.01,0,.02,0,.03,0,.03.02.03.02.03.01.05.03.07.04,0,0,0,0,0,0,0,0,0,0,0,0,.01.01.02.02.03.03.01.03.03.05.05.08,0,.01,0,.01,0,.02,0,0,0,0,0-.01h0s0,0,0,0c0,0,0,0,0,.01s0,.02,0,.02c0,0,0,.02,0,.02,0,0,0,0,0-.01,0,.01,0,.03,0,.04,0,0,0,.01,0,.02,0,0,0,0,0,0,0,0,0,0,0,0,0,.02,0,.04,0,.04,0-.02,0-.02,0-.04,0,.02-.01.04-.02.06,0,0,0,.02,0,.03,0-.04.01-.02-.01.02-.02.03-.03.06-.05.09,0,0,0,.01-.02.03-.3-.07-.6-.1-.9-.1,0,0,0,0,0,0,0,0,0,0,0,0,0,0,0,0,0,0,0,0,0-.02,0-.03,0-.02,0-.04,0-.04,0,0,0,0,0,.01.01-.05.03-.1.04-.15Z"/>
      <path class="cls-1" d="M652.82,224.39s-.03,0-.05-.01c0,0,0,0,0,0,.04.01.05.02.05.01Z"/>
      <path class="cls-1" d="M652.13,224.85s0,.02,0,.03c0,0,0,0,0,0,0-.01,0-.04,0-.05,0,0,0,0,0,.01,0,0,0,0,0,.01Z"/>
      <path class="cls-1" d="M653.14,224.66s0-.02,0-.03c0,.02,0,.04,0,.05,0,0,0,0,0-.01Z"/>
      <path class="cls-1" d="M653.14,224.75s0,0,0,0c0,0,0,0,0,0,0-.04,0-.02,0,.02Z"/>
      <path class="cls-1" d="M652.97,224.44s-.03-.02-.04-.02c0,0,0,0,0,0,.02.01.04.03.05.02Z"/>
    </g>
    <g>
      <path class="cls-1" d="M653.74,225.08s0,0,0,0c0,.02,0,.03,0,.05,0-.02,0-.03,0-.05Z"/>
      <path class="cls-1" d="M653.75,225.26c0-.06,0-.11-.01-.17,0-.03,0-.05-.01-.08,0,.02,0,.05,0,.07,0-.03-.02-.06-.02-.08,0-.03,0-.05-.01-.08,0,.02,0,.05.01.07,0-.02,0-.03-.01-.05,0-.04,0-.08-.02-.12-.03-.07-.05-.14-.09-.21-.05-.1-.12-.18-.18-.27-.07-.09-.16-.15-.24-.22-.09-.07-.19-.1-.29-.14-.03-.01-.07-.02-.1-.03-.08-.02-.17-.03-.25-.03-.2,0-.39.11-.49.28-.05.09-.08.18-.08.29,0,.02.01.04.02.06l-.05-.02s-.03-.01-.05-.02c-.06-.02-.13-.02-.2-.03h-.12c-.15-.02-.3-.03-.45-.05-.08,0-.16.01-.23.05-.07.02-.14.07-.19.13-.11.12-.18.26-.18.43,0,.1.01.21.04.31.01.05.04.09.06.14.02.05.04.09.06.14.05.09.11.17.18.24.03.04.07.08.11.11.08.07.16.13.24.18.09.05.18.09.28.13.05.02.1.04.15.05.1.02.2.04.3.04.1,0,.2-.01.3-.03.05,0,.1-.02.15-.04.09-.04.18-.07.26-.13.08-.05.16-.11.22-.18,0,0,0,0,0,0,.03.02.07.03.1.04.01,0,.03.01.04.01.15.04.34,0,.45-.12.06-.07.12-.14.16-.22.04-.08.08-.17.1-.25,0-.02,0-.04,0-.06,0,0,0,0,0-.01.01-.05.02-.1.03-.16Z"/>
      <path class="cls-1" d="M653.74,225.07s0,0,0,.01h0s0-.01,0-.01Z"/>
      <path class="cls-1" d="M653.74,225.08s0,0,0,0c0,.02,0,.05,0,.06,0-.02,0-.04,0-.07Z"/>
    </g>
  </g>
  <g id="Layer_2" data-name="Layer 2">
    <path class="cls-2" d="M671.15,229.51c-.14-.23-.3-.42-.46-.61-.22-.59-.44-1.17-.7-1.74-.58-1.24-1.2-2.46-1.97-3.6-1.4-2.09-3.15-3.97-5.32-5.26-2.09-1.25-4.54-1.89-6.98-1.57-2.43.32-4.67,1.5-6.06,3.55-1.37,2.02-1.72,4.62-1.31,7,.43,2.45,1.77,4.67,3.42,6.49.86.95,1.83,1.79,2.85,2.57,1.04.79,2.14,1.52,3.31,2.1,2.34,1.16,4.93,1.77,7.53,1.31,2.3-.4,4.59-1.74,5.72-3.84,1.03-1.94,1.14-4.48-.02-6.4ZM670.35,233.33s0,0,0,.01c0,.05-.01.09-.02.14-.05.27-.11.53-.19.79-.03.11-.07.21-.11.31-.02.04-.03.09-.05.13,0,.02-.02.04-.02.05-.11.23-.23.46-.37.68-.24.38-.52.71-.93,1.08-.09.08-.18.16-.27.23-.03.02-.03.02-.04.03,0,0,0,0-.02.01-.05.04-.11.08-.16.12-.22.15-.44.29-.68.42-.12.06-.24.13-.35.18-.06.03-.12.06-.18.09-.01,0-.06.03-.09.04-.24.1-.49.19-.74.26-.26.08-.52.15-.78.2-.12.02-.24.05-.36.07-.05,0-.11.02-.16.02-.01,0-.13.02-.15.02-.54.06-1.08.07-1.62.03-.57-.04-1.04-.12-1.65-.27-.58-.14-1.15-.33-1.71-.56-.18-.07-.45-.19-.69-.31-.28-.13-.55-.28-.82-.43-.54-.3-1.07-.63-1.58-.98-.26-.17-.51-.35-.76-.54-.05-.04-.1-.07-.14-.11.02.02-.2-.16-.12-.09-.05-.04-.23-.18-.33-.26-.45-.37-.89-.75-1.32-1.15-.42-.4-.82-.82-1.21-1.26-.4-.47-.63-.76-.98-1.27-.31-.47-.6-.95-.85-1.45-.06-.12-.11-.23-.17-.35-.04-.08-.07-.16-.11-.24.02.03.05.12-.01-.04-.11-.26-.2-.53-.29-.8-.16-.51-.28-1.03-.36-1.55,0-.04-.02-.12-.02-.13,0-.05-.01-.11-.02-.16-.01-.14-.02-.27-.03-.41-.02-.27-.02-.54-.01-.82,0-.27.02-.54.05-.81,0-.04,0-.07.01-.11,0-.02,0-.05,0-.06.03-.16.05-.32.09-.48.05-.25.12-.5.19-.74.04-.11.07-.23.11-.34.03-.08.05-.15.08-.22,0-.02.03-.08.05-.12.22-.48.48-.93.78-1.36,0,0,.03-.03.04-.05.03-.04.07-.09.1-.13.08-.09.16-.18.24-.27.19-.21.39-.4.61-.58.04-.04.09-.07.13-.11.02-.01.04-.03.05-.03.11-.08.22-.15.33-.23.22-.15.45-.28.69-.4.25-.13.45-.22.61-.28.25-.1.5-.18.76-.25.55-.15,1-.23,1.45-.27.54-.05,1.08-.04,1.62,0,.46.04.92.12,1.46.27.53.14,1.08.34,1.5.54,2.05.94,3.72,2.41,5.16,4.16.79.97,1.48,2.02,2.13,3.08.33.54.65,1.09.96,1.65.05.1.11.19.17.28-.09.05-.17.11-.22.18-.22.29-.19.67.06.93.08.08.15.17.22.25.01.02.04.06.05.07.03.05.07.1.11.14.14.19.27.39.39.6.05.1.1.2.15.31,0,0,0,.02,0,.02.03.07.05.13.08.2.08.23.14.46.19.69.02.1.04.21.06.32,0,.03.02.2.02.23.02.26.02.51,0,.77,0,.12-.02.24-.03.37Z"/>
  </g>
</svg>